{
.appVersion = "3151";
DisplayStrings = (
"llllll/Placeholder zllllll\012nnnzznnn\012ooo/Placeholder zooo",
"IIIIII/Placeholder ZIIIIII\012HHHZZHHH\012OOO/Placeholder ZOOO",
"IIIIII°/Placeholder °IIIIII\012HHH/divisionslash Z°HHH\012",
"llllll&/Placeholder &llllll\012nnn/kip a&nnn",
"nnn/space/Placeholder zllllll\012nnn/space Zznnn\012",
"IIIIII%/Placeholder %IIIIII\012HHH%0%HHH\012",
"IIIIII°/Placeholder °IIIIII\012HHH°°°HHH\012"
);
classes = (
{
automatic = 1;

glyphs = (
{
color = 3;
glyphname = A;
lastChange = "2023-02-14 14:17:59 +0000";
layers = (
{
anchors = (
{
name = bottom;
position = "{272, 0}";
},
{
name = ogonek;
position = "{522, 3}";
},
{
name = top;
position = "{262, 750}";
}
);
background = {
paths = (
{
closed = 1;
nodes = (
"160 137 LINE",
"355 137 LINE",
"355 259 LINE",
"160 259 LINE"
);
},
{
closed = 1;
nodes = (
"385 -14 LINE",
"522 3 LINE",
"349 762 LINE",
"168 741 LINE",
"15 0 LINE",
"157 0 LINE",
"194 220 LINE",
"187 224 LINE",
"248 548 LINE SMOOTH",
"253 572 OFFCURVE",
"256 595 OFFCURVE",
"260 617 CURVE",
"264 595 OFFCURVE",
"268 572 OFFCURVE",
"273 549 CURVE SMOOTH",
"338 224 LINE",
"330 219 LINE"
);
}
);
};
layerId = "849A9C4C-BF7C-40C5-8614-1FD725A2A379";
paths = (
{
closed = 1;
nodes = (
"157 0 LINE",
"180 137 LINE",
"349 137 LINE",
"385 -14 LINE",
"522 3 LINE",
"349 762 LINE",
"168 741 LINE",
"15 0 LINE"
);
},
{
closed = 1;
nodes = (
"260 612 LINE",
"331 259 LINE",
"194 259 LINE"
);
}
);
width = 537;
}
);
leftKerningGroup = A;
rightKerningGroup = A;
unicode = 0041;
},
{
color = 3;
glyphname = AE;
lastChange = "2023-02-13 21:24:42 +0000";
layers = (
{
anchors = (
{
name = bottom;
position = "{341, 0}";
},
{
name = top;
position = "{431, 750}";
}
);
background = {
anchors = (
{
name = bottom;
position = "{341, 0}";
},
{
name = top;
position = "{431, 750}";
}
);
paths = (
{
closed = 1;
nodes = (
"160 0 LINE",
"208 161 LINE",
"347 161 LINE",
"346 0 LINE",
"722 0 LINE",
"737 122 LINE",
"494 122 LINE",
"494 315 LINE",
"654 315 LINE",
"669 433 LINE",
"494 433 LINE",
"494 633 LINE",
"716 633 LINE",
"730 750 LINE",
"260 750 LINE",
"10 0 LINE"
);
},
{
closed = 1;
nodes = (
"347 630 LINE",
"346 277 LINE",
"241 277 LINE"
);
}
);
};
layerId = "849A9C4C-BF7C-40C5-8614-1FD725A2A379";
paths = (
{
closed = 1;
nodes = (
"160 0 LINE",
"208 161 LINE",
"347 161 LINE",
"347 0 LINE",
"722 0 LINE",
"737 122 LINE",
"491 122 LINE",
"491 315 LINE",
"654 315 LINE",
"669 433 LINE",
"491 433 LINE",
"491 633 LINE",
"716 633 LINE",
"730 750 LINE",
"260 750 LINE",
"10 0 LINE"
);
},
{
closed = 1;
nodes = (
"347 620 LINE",
"347 277 LINE",
"241 277 LINE"
);
}
);
width = 762;
}
);
leftKerningGroup = AE;
rightKerningGroup = E;
rightMetricsKey = E;
unicode = 00C6;
},
{
color = 3;
glyphname = B;
lastChange = "2023-02-10 15:29:09 +0000";
layers = (
{
anchors = (
{
name = bottom;
position = "{271, 0}";
},
{
name = top;
position = "{271, 750}";
}
);
background = {
anchors = (
{
name = bottom;
position = "{271, 0}";
},
{
name = top;
position = "{271, 750}";
}
);
paths = (
{
closed = 1;
nodes = (
"251 0 LINE SMOOTH",
"422 0 OFFCURVE",
"515 72 OFFCURVE",
"515 213 CURVE SMOOTH",
"515 312 OFFCURVE",
"468 369 OFFCURVE",
"368 393 CURVE",
"358 368 LINE",
"454 385 OFFCURVE",
"498 463 OFFCURVE",
"498 548 CURVE SMOOTH",
"498 678 OFFCURVE",
"426 750 OFFCURVE",
"249 750 CURVE SMOOTH",
"65 750 LINE",
"65 0 LINE"
);
},
{
closed = 1;
nodes = (
"204 322 LINE",
"251 322 LINE SMOOTH",
"326 322 OFFCURVE",
"370 297 OFFCURVE",
"370 223 CURVE SMOOTH",
"370 145 OFFCURVE",
"326 116 OFFCURVE",
"251 116 CURVE SMOOTH",
"204 116 LINE"
);
},
{
closed = 1;
nodes = (
"204 634 LINE",
"249 634 LINE SMOOTH",
"319 634 OFFCURVE",
"359 607 OFFCURVE",
"359 537 CURVE SMOOTH",
"359 472 OFFCURVE",
"315 435 OFFCURVE",
"260 435 CURVE SMOOTH",
"204 435 LINE"
);
}
);
};
layerId = "849A9C4C-BF7C-40C5-8614-1FD725A2A379";
paths = (
{
closed = 1;
nodes = (
"251 0 LINE SMOOTH",
"422 0 OFFCURVE",
"515 72 OFFCURVE",
"515 213 CURVE SMOOTH",
"515 312 OFFCURVE",
"468 369 OFFCURVE",
"368 393 CURVE",
"358 368 LINE",
"454 385 OFFCURVE",
"498 463 OFFCURVE",
"498 548 CURVE SMOOTH",
"498 678 OFFCURVE",
"426 750 OFFCURVE",
"249 750 CURVE SMOOTH",
"60 750 LINE",
"60 0 LINE"
);
},
{
closed = 1;
nodes = (
"204 322 LINE",
"251 322 LINE SMOOTH",
"326 322 OFFCURVE",
"370 297 OFFCURVE",
"370 223 CURVE SMOOTH",
"370 145 OFFCURVE",
"326 116 OFFCURVE",
"251 116 CURVE SMOOTH",
"204 116 LINE"
);
},
{
closed = 1;
nodes = (
"204 634 LINE",
"249 634 LINE SMOOTH",
"319 634 OFFCURVE",
"359 607 OFFCURVE",
"359 537 CURVE SMOOTH",
"359 472 OFFCURVE",
"315 435 OFFCURVE",
"260 435 CURVE SMOOTH",
"204 435 LINE"
);
}
);
width = 547;
}
);
leftKerningGroup = H;
leftMetricsKey = H;
rightKerningGroup = B;
unicode = 0042;
},
{
color = 3;
glyphname = C;
lastChange = "2023-02-13 21:13:10 +0000";
layers = (
{
anchors = (
{
name = bottom;
position = "{285, 0}";
},
{
name = top;
position = "{272, 750}";
}
);
background = {
anchors = (
{
name = bottom;
position = "{285, 0}";
},
{
name = top;
position = "{272, 752}";
}
);
paths = (
{
closed = 1;
nodes = (
"434 -15 OFFCURVE",
"499 109 OFFCURVE",
"508 240 CURVE",
"371 255 LINE",
"366 187 OFFCURVE",
"348 108 OFFCURVE",
"286 108 CURVE SMOOTH",
"214 108 OFFCURVE",
"190 203 OFFCURVE",
"190 375 CURVE SMOOTH",
"190 543 OFFCURVE",
"216 642 OFFCURVE",
"287 642 CURVE SMOOTH",
"347 642 OFFCURVE",
"365 549 OFFCURVE",
"369 481 CURVE",
"508 510 LINE",
"501 646 OFFCURVE",
"429 765 OFFCURVE",
"288 765 CURVE SMOOTH",
"115 765 OFFCURVE",
"35 628 OFFCURVE",
"35 375 CURVE SMOOTH",
"35 144 OFFCURVE",
"113 -15 OFFCURVE",
"286 -15 CURVE SMOOTH"
);
}
);
};
layerId = "849A9C4C-BF7C-40C5-8614-1FD725A2A379";
paths = (
{
closed = 1;
nodes = (
"434 -15 OFFCURVE",
"499 109 OFFCURVE",
"508 240 CURVE",
"371 255 LINE",
"366 187 OFFCURVE",
"348 108 OFFCURVE",
"286 108 CURVE SMOOTH",
"214 108 OFFCURVE",
"190 203 OFFCURVE",
"190 375 CURVE SMOOTH",
"190 543 OFFCURVE",
"216 642 OFFCURVE",
"287 642 CURVE SMOOTH",
"347 642 OFFCURVE",
"365 549 OFFCURVE",
"369 481 CURVE",
"508 510 LINE",
"501 646 OFFCURVE",
"429 765 OFFCURVE",
"288 765 CURVE SMOOTH",
"115 765 OFFCURVE",
"35 628 OFFCURVE",
"35 375 CURVE SMOOTH",
"35 144 OFFCURVE",
"113 -15 OFFCURVE",
"286 -15 CURVE SMOOTH"
);
}
);
width = 528;
}
);
leftKerningGroup = O;
leftMetricsKey = O;
rightKerningGroup = C;
unicode = 0043;
},
{
color = 3;
glyphname = D;
lastChange = "2023-02-13 13:55:51 +0000";
layers = (
{
anchors = (
{
name = bottom;
position = "{269, 0}";
},
{
name = center;
position = "{269, 375}";
},
{
name = top;
position = "{226, 750}";
}
);
background = {
anchors = (
{
name = bottom;
position = "{269, 0}";
},
{
name = center;
position = "{269, 375}";
},
{
name = top;
position = "{226, 750}";
}
);
paths = (
{
closed = 1;
nodes = (
"221 0 LINE SMOOTH",
"423 0 OFFCURVE",
"522 182 OFFCURVE",
"522 375 CURVE SMOOTH",
"522 627 OFFCURVE",
"417 750 OFFCURVE",
"221 750 CURVE SMOOTH",
"62 750 LINE",
"62 0 LINE"
);
},
{
closed = 1;
nodes = (
"204 633 LINE",
"221 633 LINE SMOOTH",
"321 633 OFFCURVE",
"367 546 OFFCURVE",
"367 375 CURVE SMOOTH",
"367 227 OFFCURVE",
"332 120 OFFCURVE",
"225 120 CURVE SMOOTH",
"204 120 LINE"
);
}
);
};
layerId = "849A9C4C-BF7C-40C5-8614-1FD725A2A379";
paths = (
{
closed = 1;
nodes = (
"221 0 LINE SMOOTH",
"423 0 OFFCURVE",
"522 182 OFFCURVE",
"522 375 CURVE SMOOTH",
"522 627 OFFCURVE",
"417 750 OFFCURVE",
"221 750 CURVE SMOOTH",
"60 750 LINE",
"60 0 LINE"
);
},
{
closed = 1;
nodes = (
"204 633 LINE",
"221 633 LINE SMOOTH",
"321 633 OFFCURVE",
"367 546 OFFCURVE",
"367 375 CURVE SMOOTH",
"367 227 OFFCURVE",
"332 120 OFFCURVE",
"225 120 CURVE SMOOTH",
"204 120 LINE"
);
}
);
width = 557;
}
);
leftKerningGroup = H;
leftMetricsKey = H;
rightKerningGroup = O;
rightMetricsKey = O;
unicode = 0044;
},
{
color = 3;
glyphname = E;
lastChange = "2023-02-13 21:24:50 +0000";
layers = (
{
anchors = (
{
name = bottom;
position = "{255, 0}";
},
{
name = ogonek;
position = "{449, 0}";
},
{
name = top;
position = "{259, 750}";
}
);
background = {
anchors = (
{
name = bottom;
position = "{232, 0}";
},
{
name = ogonek;
position = "{449, 0}";
},
{
name = top;
position = "{232, 750}";
},
{
name = topleft;
position = "{0, 750}";
}
);
paths = (
{
closed = 1;
nodes = (
"449 0 LINE",
"463 122 LINE",
"204 122 LINE",
"204 326 LINE",
"382 326 LINE",
"397 446 LINE",
"204 446 LINE",
"204 628 LINE",
"443 628 LINE",
"458 750 LINE",
"60 750 LINE",
"60 0 LINE"
);
}
);
};
layerId = "849A9C4C-BF7C-40C5-8614-1FD725A2A379";
paths = (
{
closed = 1;
nodes = (
"449 0 LINE",
"463 122 LINE",
"204 122 LINE",
"204 326 LINE",
"382 326 LINE",
"397 446 LINE",
"204 446 LINE",
"204 628 LINE",
"443 628 LINE",
"458 750 LINE",
"60 750 LINE",
"60 0 LINE"
);
}
);
width = 488;
}
);
leftKerningGroup = H;
leftMetricsKey = H;
rightKerningGroup = E;
unicode = 0045;
},
{
color = 4;
glyphname = Eth;
lastChange = "2023-02-13 10:37:55 +0000";
layers = (
{
background = {
paths = (
{
closed = 1;
nodes = (
"298 340 LINE",
"298 430 LINE",
"15 430 LINE",
"15 340 LINE"
);
},
{
closed = 1;
nodes = (
"224 0 LINE SMOOTH",
"426 0 OFFCURVE",
"524 182 OFFCURVE",
"524 376 CURVE SMOOTH",
"524 627 OFFCURVE",
"420 750 OFFCURVE",
"224 750 CURVE SMOOTH",
"64 750 LINE",
"64 0 LINE"
);
},
{
closed = 1;
nodes = (
"208 633 LINE",
"226 633 LINE SMOOTH",
"324 633 OFFCURVE",
"370 546 OFFCURVE",
"370 376 CURVE SMOOTH",
"370 227 OFFCURVE",
"335 120 OFFCURVE",
"230 120 CURVE SMOOTH",
"208 120 LINE"
);
}
);
};
layerId = "849A9C4C-BF7C-40C5-8614-1FD725A2A379";
paths = (
{
closed = 1;
nodes = (
"64 340 LINE",
"64 0 LINE",
"224 0 LINE SMOOTH",
"426 0 OFFCURVE",
"524 182 OFFCURVE",
"524 376 CURVE SMOOTH",
"524 627 OFFCURVE",
"420 750 OFFCURVE",
"224 750 CURVE SMOOTH",
"64 750 LINE",
"64 430 LINE",
"15 430 LINE",
"15 340 LINE"
);
},
{
closed = 1;
nodes = (
"208 340 LINE",
"298 340 LINE",
"298 430 LINE",
"208 430 LINE",
"208 633 LINE",
"226 633 LINE SMOOTH",
"324 633 OFFCURVE",
"370 546 OFFCURVE",
"370 376 CURVE SMOOTH",
"370 227 OFFCURVE",
"335 120 OFFCURVE",
"230 120 CURVE SMOOTH",
"208 120 LINE"
);
}
);
width = 559;
}
);
leftKerningGroup = H;
rightKerningGroup = O;
rightMetricsKey = D;
unicode = 00D0;
},
{
color = 3;
glyphname = F;
lastChange = "2023-02-14 14:26:42 +0000";
layers = (
{
background = {
anchors = (
{
name = bottom;
position = "{220, 0}";
},
{
name = top;
position = "{220, 750}";
}
);
paths = (
{
closed = 1;
nodes = (
"204 0 LINE",
"204 313 LINE",
"379 313 LINE",
"394 435 LINE",
"204 435 LINE",
"204 628 LINE",
"435 628 LINE",
"450 750 LINE",
"60 750 LINE",
"60 0 LINE"
);
}
);
};
layerId = "849A9C4C-BF7C-40C5-8614-1FD725A2A379";
paths = (
{
closed = 1;
nodes = (
"204 0 LINE",
"204 313 LINE",
"379 313 LINE",
"394 435 LINE",
"204 435 LINE",
"204 628 LINE",
"435 628 LINE",
"450 750 LINE",
"60 750 LINE",
"60 0 LINE"
);
}
);
width = 460;
}
);
leftKerningGroup = H;
leftMetricsKey = H;
rightKerningGroup = F;
unicode = 0046;
},
{
color = 3;
glyphname = G;
lastChange = "2023-02-13 10:38:01 +0000";
layers = (
{
anchors = (
{
name = bottom;
position = "{273, 0}";
},
{
name = top;
position = "{284, 750}";
}
);
background = {
anchors = (
{
name = bottom;
position = "{273, 0}";
},
{
name = top;
position = "{284, 753}";
}
);
paths = (
{
closed = 1;
nodes = (
"341 -14 OFFCURVE",
"397 30 OFFCURVE",
"423 80 CURVE",
"442 -17 LINE",
"510 -8 LINE",
"510 374 LINE",
"299 374 LINE",
"285 262 LINE",
"378 262 LINE",
"378 228 LINE SMOOTH",
"378 178 OFFCURVE",
"355 107 OFFCURVE",
"288 107 CURVE SMOOTH",
"197 107 OFFCURVE",
"183 238 OFFCURVE",
"183 361 CURVE SMOOTH",
"183 509 OFFCURVE",
"200 641 OFFCURVE",
"285 641 CURVE SMOOTH",
"348 641 OFFCURVE",
"366 569 OFFCURVE",
"372 493 CURVE",
"504 521 LINE",
"496 662 OFFCURVE",
"427 764 OFFCURVE",
"290 764 CURVE SMOOTH",
"109 764 OFFCURVE",
"35 609 OFFCURVE",
"35 363 CURVE SMOOTH",
"35 114 OFFCURVE",
"124 -14 OFFCURVE",
"268 -14 CURVE SMOOTH"
);
}
);
};
layerId = "849A9C4C-BF7C-40C5-8614-1FD725A2A379";
paths = (
{
closed = 1;
nodes = (
"341 -14 OFFCURVE",
"397 30 OFFCURVE",
"423 80 CURVE",
"442 -9 LINE",
"510 0 LINE",
"510 374 LINE",
"299 374 LINE",
"285 262 LINE",
"378 262 LINE",
"378 228 LINE SMOOTH",
"378 178 OFFCURVE",
"355 107 OFFCURVE",
"288 107 CURVE SMOOTH",
"197 107 OFFCURVE",
"183 238 OFFCURVE",
"183 361 CURVE SMOOTH",
"183 509 OFFCURVE",
"200 641 OFFCURVE",
"285 641 CURVE SMOOTH",
"348 641 OFFCURVE",
"366 569 OFFCURVE",
"372 493 CURVE",
"504 521 LINE",
"496 662 OFFCURVE",
"427 764 OFFCURVE",
"290 764 CURVE SMOOTH",
"109 764 OFFCURVE",
"35 609 OFFCURVE",
"35 363 CURVE SMOOTH",
"35 114 OFFCURVE",
"124 -14 OFFCURVE",
"268 -14 CURVE SMOOTH"
);
}
);
width = 550;
}
);
leftKerningGroup = O;
leftMetricsKey = C;
rightKerningGroup = G;
unicode = 0047;
},
{
color = 3;
glyphname = H;
lastChange = "2023-02-10 10:52:13 +0000";
layers = (
{
anchors = (
{
name = bottom;
position = "{286, 0}";
},
{
name = center;
position = "{286, 560}";
},
{
name = top;
position = "{286, 750}";
}
);
background = {
anchors = (
{
name = bottom;
position = "{282, 0}";
},
{
name = center;
position = "{282, 375}";
},
{
name = top;
position = "{282, 750}";
},
{
name = topleft;
position = "{5, 750}";
}
);
paths = (
{
closed = 1;
nodes = (
"207 0 LINE",
"207 304 LINE",
"365 304 LINE",
"365 0 LINE",
"512 0 LINE",
"512 750 LINE",
"365 750 LINE",
"365 426 LINE",
"207 426 LINE",
"207 750 LINE",
"60 750 LINE",
"60 0 LINE"
);
}
);
};
layerId = "849A9C4C-BF7C-40C5-8614-1FD725A2A379";
paths = (
{
closed = 1;
nodes = (
"204 0 LINE",
"204 304 LINE",
"368 304 LINE",
"368 0 LINE",
"512 0 LINE",
"512 750 LINE",
"368 750 LINE",
"368 426 LINE",
"204 426 LINE",
"204 750 LINE",
"60 750 LINE",
"60 0 LINE"
);
}
);
width = 572;
}
);
leftKerningGroup = H;
rightKerningGroup = H;
unicode = 0048;
},
{
color = 3;
glyphname = I;
lastChange = "2023-02-10 10:52:13 +0000";
layers = (
{
anchors = (
{
name = bottom;
position = "{134, 0}";
},
{
name = ogonek;
position = "{207, 0}";
},
{
name = top;
position = "{134, 750}";
}
);
background = {
anchors = (
{
name = bottom;
position = "{134, 0}";
},
{
name = ogonek;
position = "{282, 5}";
},
{
name = top;
position = "{134, 750}";
},
{
name = topleft;
position = "{0, 750}";
}
);
paths = (
{
closed = 1;
nodes = (
"207 0 LINE",
"207 750 LINE",
"60 750 LINE",
"60 0 LINE"
);
}
);
};
layerId = "849A9C4C-BF7C-40C5-8614-1FD725A2A379";
paths = (
{
closed = 1;
nodes = (
"207 0 LINE",
"207 750 LINE",
"60 750 LINE",
"60 0 LINE"
);
}
);
width = 267;
}
);
leftKerningGroup = H;
leftMetricsKey = H;
rightKerningGroup = H;
rightMetricsKey = H;
unicode = 0049;
},
{
color = 4;
glyphname = IJ;
lastChange = "2023-02-10 10:52:13 +0000";
layers = (
{
anchors = (
{
name = top;
position = "{137, 750}";
},
{
name = top_ij;
position = "{420, 750}";
}
);
background = {
paths = (
{
closed = 1;
nodes = (
"209 247 LINE",
"209 750 LINE",
"62 750 LINE",
"62 247 LINE"
);
},
{
closed = 1;
nodes = (
"412 -14 OFFCURVE",
"495 83 OFFCURVE",
"495 235 CURVE SMOOTH",
"495 750 LINE",
"348 750 LINE",
"348 262 LINE SMOOTH",
"348 169 OFFCURVE",
"313 117 OFFCURVE",
"227 117 CURVE SMOOTH",
"171 117 OFFCURVE",
"119 130 OFFCURVE",
"76 150 CURVE",
"49 23 LINE",
"108 -3 OFFCURVE",
"161 -14 OFFCURVE",
"242 -14 CURVE SMOOTH"
);
}
);
};
layerId = "849A9C4C-BF7C-40C5-8614-1FD725A2A379";
paths = (
{
closed = 1;
nodes = (
"209 247 LINE",
"209 750 LINE",
"65 750 LINE",
"65 247 LINE"
);
},
{
closed = 1;
nodes = (
"412 -14 OFFCURVE",
"492 83 OFFCURVE",
"492 235 CURVE SMOOTH",
"492 750 LINE",
"348 750 LINE",
"348 252 LINE SMOOTH",
"348 159 OFFCURVE",
"313 112 OFFCURVE",
"227 112 CURVE SMOOTH",
"181 112 OFFCURVE",
"129 130 OFFCURVE",
"86 160 CURVE",
"39 35 LINE",
"108 -3 OFFCURVE",
"171 -14 OFFCURVE",
"242 -14 CURVE SMOOTH"
);
}
);
width = 547;
}
);
leftKerningGroup = H;
rightKerningGroup = H;
rightMetricsKey = U;
unicode = 0132;
},
{
color = 3;
glyphname = J;
lastChange = "2023-02-13 11:21:38 +0000";
layers = (
{
anchors = (
{
name = bottom;
position = "{177, 0}";
},
{
name = top;
position = "{208, 750}";
}
);
background = {
anchors = (
{
name = bottom;
position = "{177, 0}";
},
{
name = top;
position = "{208, 750}";
}
);
paths = (
{
closed = 1;
nodes = (
"222 -14 OFFCURVE",
"277 60 OFFCURVE",
"277 176 CURVE SMOOTH",
"277 750 LINE",
"131 750 LINE",
"131 192 LINE SMOOTH",
"131 140 OFFCURVE",
"122 110 OFFCURVE",
"74 110 CURVE SMOOTH",
"52 110 OFFCURVE",
"37 114 OFFCURVE",
"18 124 CURVE",
"3 5 LINE",
"37 -10 OFFCURVE",
"65 -14 OFFCURVE",
"105 -14 CURVE SMOOTH"
);
}
);
};
layerId = "849A9C4C-BF7C-40C5-8614-1FD725A2A379";
paths = (
{
closed = 1;
nodes = (
"222 -14 OFFCURVE",
"278 60 OFFCURVE",
"278 176 CURVE SMOOTH",
"278 750 LINE",
"131 750 LINE",
"131 192 LINE SMOOTH",
"131 140 OFFCURVE",
"122 110 OFFCURVE",
"74 110 CURVE SMOOTH",
"52 110 OFFCURVE",
"37 114 OFFCURVE",
"18 124 CURVE",
"3 5 LINE",
"37 -10 OFFCURVE",
"65 -14 OFFCURVE",
"105 -14 CURVE SMOOTH"
);
}
);
width = 333;
}
);
leftKerningGroup = J;
rightKerningGroup = H;
rightMetricsKey = U;
unicode = 004A;
},
{
color = 4;
glyphname = K;
lastChange = "2023-02-13 21:21:34 +0000";
layers = (
{
anchors = (
{
name = bottom;
position = "{281, 0}";
},
{
name = top;
position = "{271, 750}";
}
);
background = {
paths = (
{
closed = 1;
nodes = (
"514 716 LINE",
"392 765 LINE",
"204 392 LINE",
"204 750 LINE",
"60 750 LINE",
"60 0 LINE",
"204 0 LINE",
"204 198 LINE",
"263 312 LINE",
"301 300 LINE"
);
},
{
closed = 1;
nodes = (
"392 -16 LINE",
"527 33 LINE",
"338 444 LINE",
"241 328 LINE"
);
}
);
};
layerId = "849A9C4C-BF7C-40C5-8614-1FD725A2A379";
paths = (
{
closed = 1;
nodes = (
"204 0 LINE",
"204 198 LINE",
"255 296 LINE",
"392 -16 LINE",
"527 33 LINE",
"355 406 LINE",
"514 716 LINE",
"392 765 LINE",
"204 392 LINE",
"204 750 LINE",
"60 750 LINE",
"60 0 LINE"
);
}
);
width = 531;
}
);
leftKerningGroup = H;
leftMetricsKey = H;
rightKerningGroup = K;
unicode = 004B;
},
{
color = 3;
glyphname = L;
lastChange = "2023-02-14 14:18:12 +0000";
layers = (
{
anchors = (
{
name = bottom;
position = "{265, 0}";
},
{
name = center;
position = "{356, 417}";
},
{
name = top;
position = "{134, 750}";
},
{
name = topright;
position = "{326, 750}";
}
);
background = {
anchors = (
{
name = bottom;
position = "{265, 0}";
},
{
name = center;
position = "{356, 417}";
},
{
name = top;
position = "{115, 750}";
},
{
name = topright;
position = "{280, 521}";
}
);
paths = (
{
closed = 1;
nodes = (
"435 0 LINE",
"450 123 LINE",
"207 123 LINE",
"207 750 LINE",
"61 750 LINE",
"61 0 LINE"
);
}
);
};
layerId = "849A9C4C-BF7C-40C5-8614-1FD725A2A379";
paths = (
{
closed = 1;
nodes = (
"435 0 LINE",
"450 125 LINE",
"207 125 LINE",
"207 750 LINE",
"60 750 LINE",
"60 0 LINE"
);
}
);
width = 460;
}
);
leftKerningGroup = H;
leftMetricsKey = H;
rightKerningGroup = L;
unicode = 004C;
},
{
color = 4;
glyphname = Lslash;
lastChange = "2023-02-10 11:10:51 +0000";
layers = (
{
background = {
paths = (
{
closed = 1;
nodes = (
"364 461 LINE",
"317 532 LINE",
"-19 306 LINE",
"28 235 LINE"
);
},
{
closed = 1;
nodes = (
"445 0 LINE",
"460 125 LINE",
"217 125 LINE",
"217 750 LINE",
"70 750 LINE",
"70 0 LINE"
);
}
);
};
layerId = "849A9C4C-BF7C-40C5-8614-1FD725A2A379";
paths = (
{
closed = 1;
nodes = (
"70 263 LINE",
"70 0 LINE",
"445 0 LINE",
"460 125 LINE",
"217 125 LINE",
"217 362 LINE",
"364 461 LINE",
"317 532 LINE",
"217 465 LINE",
"217 750 LINE",
"70 750 LINE",
"70 366 LINE",
"-19 306 LINE",
"28 235 LINE"
);
}
);
width = 470;
}
);
leftKerningGroup = H;
rightKerningGroup = L;
rightMetricsKey = L;
unicode = 0141;
},
{
color = 4;
glyphname = M;
lastChange = "2023-02-10 10:52:13 +0000";
layers = (
{
anchors = (
{
name = bottom;
position = "{392, 0}";
},
{
name = top;
position = "{392, 750}";
}
);
background = {
anchors = (
{
name = bottom;
position = "{392, 0}";
},
{
name = top;
position = "{392, 750}";
}
);
paths = (
{
closed = 1;
nodes = (
"702 0 LINE",
"702 750 LINE",
"512 750 LINE",
"388 243 LINE",
"254 762 LINE",
"60 739 LINE",
"60 0 LINE",
"187 1 LINE",
"187 516 LINE",
"186 565 LINE",
"332 -4 LINE",
"432 8 LINE",
"569 566 LINE",
"567 520 LINE",
"567 0 LINE"
);
}
);
};
guideLines = (
{
angle = 104.5306;
position = "{332, -8}";
}
);
layerId = "849A9C4C-BF7C-40C5-8614-1FD725A2A379";
paths = (
{
closed = 1;
nodes = (
"702 0 LINE",
"702 762 LINE",
"510 739 LINE",
"388 245 LINE",
"254 762 LINE",
"60 739 LINE",
"60 0 LINE",
"187 0 LINE",
"187 552 LINE",
"332 -8 LINE",
"432 6 LINE",
"567 566 LINE",
"567 0 LINE"
);
}
);
width = 762;
}
);
leftKerningGroup = H;
leftMetricsKey = H;
rightKerningGroup = H;
rightMetricsKey = H;
unicode = 004D;
},
{
color = 3;
glyphname = N;
lastChange = "2023-02-10 10:52:13 +0000";
layers = (
{
anchors = (
{
name = bottom;
position = "{297, 0}";
},
{
name = top;
position = "{297, 750}";
}
);
background = {
anchors = (
{
name = bottom;
position = "{1093, 0}";
},
{
name = top;
position = "{1093, 750}";
}
);
paths = (
{
closed = 1;
nodes = (
"1333 7 LINE",
"1333 752 LINE",
"1203 752 LINE",
"1203 326 LINE",
"1203 303 LINE",
"993 760 LINE",
"860 744 LINE",
"860 0 LINE",
"990 0 LINE",
"990 442 LINE",
"990 470 LINE",
"1210 -9 LINE"
);
},
{
closed = 1;
nodes = (
"702 0 LINE",
"702 762 LINE",
"510 739 LINE",
"388 245 LINE",
"254 762 LINE",
"60 739 LINE",
"60 0 LINE",
"187 0 LINE",
"187 552 LINE",
"332 -8 LINE",
"432 6 LINE",
"567 566 LINE",
"567 0 LINE"
);
}
);
};
layerId = "849A9C4C-BF7C-40C5-8614-1FD725A2A379";
paths = (
{
closed = 1;
nodes = (
"533 5 LINE",
"533 750 LINE",
"403 750 LINE",
"403 301 LINE",
"193 755 LINE",
"60 739 LINE",
"60 0 LINE",
"190 0 LINE",
"190 465 LINE",
"407 -11 LINE"
);
}
);
width = 593;
}
);
leftKerningGroup = H;
leftMetricsKey = H;
rightKerningGroup = H;
rightMetricsKey = H;
unicode = 004E;
},
{
color = 4;
glyphname = Eng;
lastChange = "2023-02-10 10:52:13 +0000";
layers = (
{
anchors = (
{
name = bottom;
position = "{294, 0}";
},
{
name = top;
position = "{294, 750}";
}
);
background = {
anchors = (
{
name = bottom;
position = "{1294, 0}";
},
{
name = top;
position = "{1294, 750}";
}
);
paths = (
{
closed = 1;
nodes = (
"1406 326 LINE",
"1408 296 LINE",
"1197 758 LINE",
"1060 741 LINE",
"1060 0 LINE",
"1190 0 LINE",
"1190 442 LINE",
"1188 474 LINE",
"1406 20 LINE",
"1406 -28 OFFCURVE",
"1389 -52 OFFCURVE",
"1354 -52 CURVE SMOOTH",
"1340 -52 OFFCURVE",
"1330 -50 OFFCURVE",
"1319 -46 CURVE",
"1306 -151 LINE",
"1334 -161 OFFCURVE",
"1362 -166 OFFCURVE",
"1400 -166 CURVE SMOOTH",
"1496 -166 OFFCURVE",
"1536 -90 OFFCURVE",
"1536 23 CURVE SMOOTH",
"1536 750 LINE",
"1406 750 LINE"
);
},
{
closed = 1;
nodes = (
"533 5 LINE",
"533 750 LINE",
"403 750 LINE",
"403 301 LINE",
"193 755 LINE",
"60 739 LINE",
"60 0 LINE",
"190 0 LINE",
"190 465 LINE",
"407 -11 LINE"
);
}
);
};
layerId = "849A9C4C-BF7C-40C5-8614-1FD725A2A379";
paths = (
{
closed = 1;
nodes = (
"403 321 LINE",
"193 755 LINE",
"60 739 LINE",
"60 0 LINE",
"190 0 LINE",
"190 465 LINE",
"404 16 LINE",
"401 -30 OFFCURVE",
"389 -52 OFFCURVE",
"352 -52 CURVE SMOOTH",
"338 -52 OFFCURVE",
"328 -50 OFFCURVE",
"317 -46 CURVE",
"294 -154 LINE",
"325 -164 OFFCURVE",
"353 -168 OFFCURVE",
"383 -168 CURVE SMOOTH",
"476 -168 OFFCURVE",
"534 -96 OFFCURVE",
"534 0 CURVE SMOOTH",
"534 131 LINE",
"533 131 LINE",
"533 750 LINE",
"403 750 LINE"
);
}
);
width = 594;
}
);
leftKerningGroup = H;
leftMetricsKey = H;
rightKerningGroup = H;
rightMetricsKey = H;
unicode = 014A;
},
{
color = 3;
glyphname = O;
lastChange = "2023-02-13 14:09:31 +0000";
layers = (
{
anchors = (
{
name = bottom;
position = "{280, 0}";
},
{
name = center;
position = "{281, 375}";
},
{
name = ogonek;
position = "{363, 0}";
},
{
name = top;
position = "{280, 750}";
},
{
name = topright;
position = "{440, 650}";
}
);
background = {
anchors = (
{
name = bottom;
position = "{280, 0}";
},
{
name = center;
position = "{281, 375}";
},
{
name = ogonek;
position = "{451, 5}";
},
{
name = top;
position = "{280, 752}";
},
{
name = topleft;
position = "{16, 750}";
},
{
name = topright;
position = "{498, 463}";
}
);
paths = (
{
closed = 1;
nodes = (
"454 -14 OFFCURVE",
"525 138 OFFCURVE",
"525 375 CURVE SMOOTH",
"525 612 OFFCURVE",
"454 764 OFFCURVE",
"280 764 CURVE SMOOTH",
"107 764 OFFCURVE",
"35 612 OFFCURVE",
"35 375 CURVE SMOOTH",
"35 138 OFFCURVE",
"107 -14 OFFCURVE",
"280 -14 CURVE SMOOTH"
);
},
{
closed = 1;
nodes = (
"198 115 OFFCURVE",
"190 238 OFFCURVE",
"190 375 CURVE SMOOTH",
"190 512 OFFCURVE",
"198 635 OFFCURVE",
"280 635 CURVE SMOOTH",
"363 635 OFFCURVE",
"370 512 OFFCURVE",
"370 375 CURVE SMOOTH",
"370 238 OFFCURVE",
"363 115 OFFCURVE",
"280 115 CURVE SMOOTH"
);
}
);
};
layerId = "849A9C4C-BF7C-40C5-8614-1FD725A2A379";
paths = (
{
closed = 1;
nodes = (
"454 -14 OFFCURVE",
"525 138 OFFCURVE",
"525 375 CURVE SMOOTH",
"525 612 OFFCURVE",
"454 764 OFFCURVE",
"280 764 CURVE SMOOTH",
"107 764 OFFCURVE",
"35 612 OFFCURVE",
"35 375 CURVE SMOOTH",
"35 138 OFFCURVE",
"107 -14 OFFCURVE",
"280 -14 CURVE SMOOTH"
);
},
{
closed = 1;
nodes = (
"198 115 OFFCURVE",
"190 238 OFFCURVE",
"190 375 CURVE SMOOTH",
"190 512 OFFCURVE",
"198 635 OFFCURVE",
"280 635 CURVE SMOOTH",
"363 635 OFFCURVE",
"370 512 OFFCURVE",
"370 375 CURVE SMOOTH",
"370 238 OFFCURVE",
"363 115 OFFCURVE",
"280 115 CURVE SMOOTH"
);
}
);
width = 560;
}
);
leftKerningGroup = O;
rightKerningGroup = O;
unicode = 004F;
},
{
color = 3;
glyphname = Oslash;
lastChange = "2023-02-10 10:52:59 +0000";
layers = (
{
anchors = (
{
name = center;
position = "{281, 375}";
},
{
name = top;
position = "{280, 750}";
},
{
name = topright;
position = "{498, 463}";
}
);
background = {
paths = (
{
closed = 1;
nodes = (
"570 678 LINE",
"508 730 LINE",
"420 621 LINE",
"425 617 LINE",
"89 189 LINE",
"87 191 LINE",
"-10 69 LINE",
"53 17 LINE",
"149 139 LINE",
"143 144 LINE",
"479 570 LINE",
"482 568 LINE"
);
},
{
closed = 1;
nodes = (
"454 -14 OFFCURVE",
"525 138 OFFCURVE",
"525 375 CURVE SMOOTH",
"525 612 OFFCURVE",
"454 764 OFFCURVE",
"280 764 CURVE SMOOTH",
"107 764 OFFCURVE",
"35 612 OFFCURVE",
"35 375 CURVE SMOOTH",
"35 138 OFFCURVE",
"107 -14 OFFCURVE",
"280 -14 CURVE SMOOTH"
);
},
{
closed = 1;
nodes = (
"198 115 OFFCURVE",
"185 238 OFFCURVE",
"185 375 CURVE SMOOTH",
"185 512 OFFCURVE",
"198 635 OFFCURVE",
"280 635 CURVE SMOOTH",
"363 635 OFFCURVE",
"375 512 OFFCURVE",
"375 375 CURVE SMOOTH",
"375 238 OFFCURVE",
"363 115 OFFCURVE",
"280 115 CURVE SMOOTH"
);
}
);
};
layerId = "849A9C4C-BF7C-40C5-8614-1FD725A2A379";
paths = (
{
closed = 1;
nodes = (
"454 -14 OFFCURVE",
"525 138 OFFCURVE",
"525 375 CURVE SMOOTH",
"525 457 OFFCURVE",
"516 529 OFFCURVE",
"498 588 CURVE",
"570 678 LINE",
"508 730 LINE",
"460 671 LINE",
"421 731 OFFCURVE",
"362 764 OFFCURVE",
"280 764 CURVE SMOOTH",
"107 764 OFFCURVE",
"35 612 OFFCURVE",
"35 375 CURVE SMOOTH",
"35 292 OFFCURVE",
"44 220 OFFCURVE",
"63 160 CURVE",
"-10 69 LINE",
"53 17 LINE",
"101 78 LINE",
"141 19 OFFCURVE",
"199 -14 OFFCURVE",
"280 -14 CURVE SMOOTH"
);
},
{
closed = 1;
nodes = (
"185 512 OFFCURVE",
"198 635 OFFCURVE",
"280 635 CURVE SMOOTH",
"327 635 OFFCURVE",
"351 596 OFFCURVE",
"363 538 CURVE",
"186 313 LINE",
"185 333 OFFCURVE",
"185 354 OFFCURVE",
"185 375 CURVE SMOOTH"
);
},
{
closed = 1;
nodes = (
"374 437 LINE",
"375 417 OFFCURVE",
"375 396 OFFCURVE",
"375 375 CURVE SMOOTH",
"375 238 OFFCURVE",
"363 115 OFFCURVE",
"280 115 CURVE SMOOTH",
"234 115 OFFCURVE",
"210 154 OFFCURVE",
"197 213 CURVE"
);
}
);
width = 560;
}
);
leftKerningGroup = O;
rightKerningGroup = O;
unicode = 00D8;
},
{
color = 3;
glyphname = OE;
lastChange = "2023-02-13 21:33:01 +0000";
layers = (
{
anchors = (
{
name = bottom;
position = "{440, 0}";
},
{
name = top;
position = "{440, 750}";
}
);
background = {
paths = (
{
closed = 1;
nodes = (
"368 0 LINE",
"744 0 LINE",
"758 122 LINE",
"515 122 LINE",
"515 315 LINE",
"675 315 LINE",
"690 433 LINE",
"515 433 LINE",
"515 628 LINE",
"736 628 LINE",
"752 750 LINE",
"368 750 LINE",
"296 750 LINE SMOOTH",
"123 750 OFFCURVE",
"35 620 OFFCURVE",
"35 375 CURVE SMOOTH",
"35 146 OFFCURVE",
"127 0 OFFCURVE",
"300 0 CURVE SMOOTH"
);
},
{
closed = 1;
nodes = (
"221 120 OFFCURVE",
"189 220 OFFCURVE",
"189 375 CURVE SMOOTH",
"189 536 OFFCURVE",
"221 633 OFFCURVE",
"318 633 CURVE SMOOTH",
"368 633 LINE",
"368 120 LINE",
"318 120 LINE SMOOTH"
);
}
);
};
layerId = "849A9C4C-BF7C-40C5-8614-1FD725A2A379";
paths = (
{
closed = 1;
nodes = (
"741 0 LINE",
"755 122 LINE",
"512 122 LINE",
"512 315 LINE",
"672 315 LINE",
"687 433 LINE",
"512 433 LINE",
"512 628 LINE",
"733 628 LINE",
"749 750 LINE",
"296 750 LINE SMOOTH",
"123 750 OFFCURVE",
"35 620 OFFCURVE",
"35 375 CURVE SMOOTH",
"35 146 OFFCURVE",
"127 0 OFFCURVE",
"300 0 CURVE SMOOTH"
);
},
{
closed = 1;
nodes = (
"221 120 OFFCURVE",
"189 220 OFFCURVE",
"189 375 CURVE SMOOTH",
"189 536 OFFCURVE",
"221 633 OFFCURVE",
"318 633 CURVE SMOOTH",
"368 633 LINE",
"368 120 LINE",
"318 120 LINE SMOOTH"
);
}
);
width = 780;
}
);
leftKerningGroup = O;
leftMetricsKey = O;
rightKerningGroup = E;
rightMetricsKey = E;
unicode = 0152;
},
{
color = 3;
glyphname = P;
lastChange = "2023-02-14 14:18:04 +0000";
layers = (
{
anchors = (
{
name = bottom;
position = "{257, 0}";
},
{
name = top;
position = "{257, 750}";
}
);
background = {
paths = (
{
closed = 1;
nodes = (
"228 273 LINE SMOOTH",
"394 273 OFFCURVE",
"498 347 OFFCURVE",
"498 512 CURVE SMOOTH",
"498 684 OFFCURVE",
"394 750 OFFCURVE",
"228 750 CURVE SMOOTH",
"60 750 LINE",
"60 0 LINE",
"204 0 LINE",
"204 631 LINE",
"239 631 LINE SMOOTH",
"312 631 OFFCURVE",
"352 599 OFFCURVE",
"352 512 CURVE SMOOTH",
"352 428 OFFCURVE",
"312 391 OFFCURVE",
"239 391 CURVE SMOOTH",
"198 391 LINE",
"197 273 LINE"
);
}
);
};
layerId = "849A9C4C-BF7C-40C5-8614-1FD725A2A379";
paths = (
{
closed = 1;
nodes = (
"204 0 LINE",
"204 273 LINE",
"228 273 LINE SMOOTH",
"394 273 OFFCURVE",
"498 347 OFFCURVE",
"498 512 CURVE SMOOTH",
"498 684 OFFCURVE",
"394 750 OFFCURVE",
"228 750 CURVE SMOOTH",
"60 750 LINE",
"60 0 LINE"
);
},
{
closed = 1;
nodes = (
"204 631 LINE",
"239 631 LINE SMOOTH",
"312 631 OFFCURVE",
"352 599 OFFCURVE",
"352 512 CURVE SMOOTH",
"352 428 OFFCURVE",
"312 391 OFFCURVE",
"239 391 CURVE SMOOTH",
"204 391 LINE"
);
}
);
width = 518;
}
);
leftKerningGroup = H;
leftMetricsKey = H;
rightKerningGroup = P;
unicode = 0050;
},
{
color = 4;
glyphname = Thorn;
lastChange = "2023-02-13 21:13:57 +0000";
layers = (
{
background = {
paths = (
{
closed = 1;
nodes = (
"204 -122 LINE",
"204 151 LINE",
"228 151 LINE SMOOTH",
"394 151 OFFCURVE",
"498 225 OFFCURVE",
"498 390 CURVE SMOOTH",
"498 562 OFFCURVE",
"394 628 OFFCURVE",
"228 628 CURVE SMOOTH",
"60 628 LINE",
"60 -122 LINE"
);
},
{
closed = 1;
nodes = (
"204 509 LINE",
"239 509 LINE SMOOTH",
"312 509 OFFCURVE",
"352 477 OFFCURVE",
"352 390 CURVE SMOOTH",
"352 306 OFFCURVE",
"312 269 OFFCURVE",
"239 269 CURVE SMOOTH",
"204 269 LINE"
);
}
);
};
layerId = "849A9C4C-BF7C-40C5-8614-1FD725A2A379";
paths = (
{
closed = 1;
nodes = (
"187 509 LINE",
"239 509 LINE SMOOTH",
"312 509 OFFCURVE",
"352 477 OFFCURVE",
"352 390 CURVE SMOOTH",
"352 306 OFFCURVE",
"312 269 OFFCURVE",
"239 269 CURVE SMOOTH",
"187 269 LINE",
"187 151 LINE",
"228 151 LINE SMOOTH",
"394 151 OFFCURVE",
"498 225 OFFCURVE",
"498 390 CURVE SMOOTH",
"498 562 OFFCURVE",
"394 628 OFFCURVE",
"228 628 CURVE SMOOTH",
"187 628 LINE"
);
},
{
closed = 1;
nodes = (
"204 752 LINE",
"60 752 LINE",
"60 -2 LINE",
"204 -2 LINE"
);
}
);
width = 518;
}
);
leftKerningGroup = H;
leftMetricsKey = H;
rightKerningGroup = Thorn;
rightMetricsKey = P;
unicode = 00DE;
},
{
color = 3;
glyphname = Q;
lastChange = "2023-02-10 10:52:59 +0000";
layers = (
{
background = {
paths = (
{
closed = 1;
nodes = (
"519 -68 LINE",
"446 -22 OFFCURVE",
"396 16 OFFCURVE",
"342 71 CURVE",
"288 44 LINE",
"306 -51 OFFCURVE",
"373 -118 OFFCURVE",
"448 -153 CURVE"
);
},
{
closed = 1;
nodes = (
"454 -14 OFFCURVE",
"525 138 OFFCURVE",
"525 375 CURVE SMOOTH",
"525 612 OFFCURVE",
"454 764 OFFCURVE",
"280 764 CURVE SMOOTH",
"107 764 OFFCURVE",
"35 612 OFFCURVE",
"35 375 CURVE SMOOTH",
"35 138 OFFCURVE",
"107 -14 OFFCURVE",
"280 -14 CURVE SMOOTH"
);
},
{
closed = 1;
nodes = (
"198 112 OFFCURVE",
"190 238 OFFCURVE",
"190 375 CURVE SMOOTH",
"190 512 OFFCURVE",
"198 635 OFFCURVE",
"280 635 CURVE SMOOTH",
"363 635 OFFCURVE",
"370 512 OFFCURVE",
"370 375 CURVE SMOOTH",
"370 238 OFFCURVE",
"363 112 OFFCURVE",
"280 112 CURVE SMOOTH"
);
}
);
};
layerId = "849A9C4C-BF7C-40C5-8614-1FD725A2A379";
paths = (
{
closed = 1;
nodes = (
"519 -68 LINE",
"472 -38 OFFCURVE",
"434 -12 OFFCURVE",
"399 18 CURVE",
"487 74 OFFCURVE",
"525 202 OFFCURVE",
"525 375 CURVE SMOOTH",
"525 612 OFFCURVE",
"454 764 OFFCURVE",
"280 764 CURVE SMOOTH",
"107 764 OFFCURVE",
"35 612 OFFCURVE",
"35 375 CURVE SMOOTH",
"35 138 OFFCURVE",
"107 -14 OFFCURVE",
"280 -14 CURVE SMOOTH",
"289 -14 OFFCURVE",
"297 -14 OFFCURVE",
"306 -13 CURVE",
"335 -78 OFFCURVE",
"389 -125 OFFCURVE",
"448 -153 CURVE"
);
},
{
closed = 1;
nodes = (
"190 512 OFFCURVE",
"198 635 OFFCURVE",
"280 635 CURVE SMOOTH",
"363 635 OFFCURVE",
"370 512 OFFCURVE",
"370 375 CURVE SMOOTH",
"370 238 OFFCURVE",
"363 112 OFFCURVE",
"280 112 CURVE SMOOTH",
"198 112 OFFCURVE",
"190 238 OFFCURVE",
"190 375 CURVE SMOOTH"
);
}
);
width = 560;
}
);
leftKerningGroup = O;
leftMetricsKey = O;
widthMetricsKey = O;
rightKerningGroup = O;
unicode = 0051;
},
{
color = 4;
glyphname = R;
lastChange = "2023-02-13 21:18:59 +0000";
layers = (
{
anchors = (
{
name = bottom;
position = "{273, 0}";
},
{
name = top;
position = "{273, 750}";
}
);
background = {
paths = (
{
closed = 0;
nodes = (
"372 352 LINE",
"256 301 LINE"
);
}
);
};
layerId = "849A9C4C-BF7C-40C5-8614-1FD725A2A379";
paths = (
{
closed = 1;
nodes = (
"204 0 LINE",
"204 278 LINE",
"267 278 LINE",
"401 -16 LINE",
"536 33 LINE",
"393 311 LINE",
"460 347 OFFCURVE",
"498 412 OFFCURVE",
"498 512 CURVE SMOOTH",
"498 684 OFFCURVE",
"394 750 OFFCURVE",
"228 750 CURVE SMOOTH",
"60 750 LINE",
"60 0 LINE"
);
},
{
closed = 1;
nodes = (
"204 631 LINE",
"239 631 LINE SMOOTH",
"312 631 OFFCURVE",
"352 599 OFFCURVE",
"352 512 CURVE SMOOTH",
"352 428 OFFCURVE",
"312 391 OFFCURVE",
"239 391 CURVE SMOOTH",
"204 391 LINE"
);
}
);
width = 542;
}
);
leftKerningGroup = H;
leftMetricsKey = H;
rightKerningGroup = R;
unicode = 0052;
},
{
color = 4;
glyphname = S;
lastChange = "2023-02-10 16:01:25 +0000";
layers = (
{
anchors = (
{
name = bottom;
position = "{262, 0}";
},
{
name = top;
position = "{263, 750}";
}
);
background = {
anchors = (
{
name = bottom;
position = "{262, -10}";
},
{
name = top;
position = "{263, 752}";
}
);
paths = (
{
closed = 1;
nodes = (
"395 -16 OFFCURVE",
"489 69 OFFCURVE",
"489 203 CURVE SMOOTH",
"489 295 OFFCURVE",
"441 360 OFFCURVE",
"357 410 CURVE SMOOTH",
"267 464 LINE SMOOTH",
"222 491 OFFCURVE",
"189 516 OFFCURVE",
"189 568 CURVE SMOOTH",
"189 613 OFFCURVE",
"221 646 OFFCURVE",
"263 646 CURVE SMOOTH",
"324 646 OFFCURVE",
"351 601 OFFCURVE",
"354 520 CURVE",
"482 548 LINE",
"476 699 OFFCURVE",
"396 764 OFFCURVE",
"263 764 CURVE SMOOTH",
"135 764 OFFCURVE",
"47 673 OFFCURVE",
"47 554 CURVE SMOOTH",
"47 456 OFFCURVE",
"94 391 OFFCURVE",
"172 345 CURVE SMOOTH",
"263 292 LINE SMOOTH",
"307 266 OFFCURVE",
"344 242 OFFCURVE",
"344 187 CURVE SMOOTH",
"344 136 OFFCURVE",
"314 102 OFFCURVE",
"263 102 CURVE SMOOTH",
"196 102 OFFCURVE",
"169 153 OFFCURVE",
"165 226 CURVE",
"36 212 LINE",
"41 55 OFFCURVE",
"131 -16 OFFCURVE",
"262 -16 CURVE SMOOTH"
);
}
);
};
layerId = "849A9C4C-BF7C-40C5-8614-1FD725A2A379";
paths = (
{
closed = 1;
nodes = (
"395 -15 OFFCURVE",
"489 60 OFFCURVE",
"489 203 CURVE SMOOTH",
"489 295 OFFCURVE",
"441 360 OFFCURVE",
"357 410 CURVE SMOOTH",
"267 464 LINE SMOOTH",
"222 491 OFFCURVE",
"191 516 OFFCURVE",
"191 565 CURVE SMOOTH",
"191 613 OFFCURVE",
"221 641 OFFCURVE",
"263 641 CURVE SMOOTH",
"324 641 OFFCURVE",
"351 601 OFFCURVE",
"353 520 CURVE",
"482 548 LINE",
"476 699 OFFCURVE",
"396 764 OFFCURVE",
"263 764 CURVE SMOOTH",
"135 764 OFFCURVE",
"47 681 OFFCURVE",
"47 554 CURVE SMOOTH",
"47 456 OFFCURVE",
"94 391 OFFCURVE",
"172 345 CURVE SMOOTH",
"263 292 LINE SMOOTH",
"307 266 OFFCURVE",
"342 242 OFFCURVE",
"342 187 CURVE SMOOTH",
"342 137 OFFCURVE",
"314 109 OFFCURVE",
"263 109 CURVE SMOOTH",
"196 109 OFFCURVE",
"169 154 OFFCURVE",
"167 226 CURVE",
"36 212 LINE",
"41 56 OFFCURVE",
"131 -15 OFFCURVE",
"262 -15 CURVE SMOOTH"
);
}
);
width = 513;
}
);
leftKerningGroup = S;
rightKerningGroup = S;
unicode = 0053;
},
{
color = 4;
glyphname = Germandbls;
lastChange = "2023-02-13 10:38:27 +0000";
layers = (
{
background = {
paths = (
{
closed = 1;
nodes = (
"552 750 LINE",
"337 750 LINE SMOOTH",
"184 750 OFFCURVE",
"60 677 OFFCURVE",
"60 476 CURVE SMOOTH",
"60 0 LINE",
"204 0 LINE",
"204 461 LINE SMOOTH",
"204 584 OFFCURVE",
"256 635 OFFCURVE",
"354 635 CURVE",
"552 628 LINE"
);
},
{
closed = 1;
nodes = (
"552 695 LINE",
"382 695 OFFCURVE",
"293 623 OFFCURVE",
"293 515 CURVE SMOOTH",
"293 432 OFFCURVE",
"338 381 OFFCURVE",
"405 338 CURVE SMOOTH",
"487 286 LINE SMOOTH",
"527 260 OFFCURVE",
"558 237 OFFCURVE",
"558 183 CURVE SMOOTH",
"558 134 OFFCURVE",
"530 106 OFFCURVE",
"479 106 CURVE SMOOTH",
"412 106 OFFCURVE",
"385 151 OFFCURVE",
"383 211 CURVE",
"252 197 LINE",
"257 56 OFFCURVE",
"347 -15 OFFCURVE",
"478 -15 CURVE SMOOTH",
"611 -15 OFFCURVE",
"705 60 OFFCURVE",
"705 203 CURVE SMOOTH",
"705 295 OFFCURVE",
"662 351 OFFCURVE",
"586 401 CURVE SMOOTH",
"505 454 LINE SMOOTH",
"465 480 OFFCURVE",
"437 505 OFFCURVE",
"437 543 CURVE SMOOTH",
"437 600 OFFCURVE",
"474 628 OFFCURVE",
"552 628 CURVE"
);
}
);
};
layerId = "849A9C4C-BF7C-40C5-8614-1FD725A2A379";
paths = (
{
closed = 1;
nodes = (
"552 750 LINE",
"337 750 LINE SMOOTH",
"184 750 OFFCURVE",
"60 677 OFFCURVE",
"60 476 CURVE SMOOTH",
"60 0 LINE",
"204 0 LINE",
"204 461 LINE SMOOTH",
"204 580 OFFCURVE",
"243 632 OFFCURVE",
"355 632 CURVE",
"311 601 OFFCURVE",
"293 553 OFFCURVE",
"293 510 CURVE SMOOTH",
"293 432 OFFCURVE",
"341 381 OFFCURVE",
"408 338 CURVE SMOOTH",
"490 286 LINE SMOOTH",
"530 260 OFFCURVE",
"558 237 OFFCURVE",
"558 183 CURVE SMOOTH",
"558 134 OFFCURVE",
"530 106 OFFCURVE",
"479 106 CURVE SMOOTH",
"412 106 OFFCURVE",
"385 151 OFFCURVE",
"383 211 CURVE",
"252 197 LINE",
"257 65 OFFCURVE",
"345 -15 OFFCURVE",
"476 -15 CURVE SMOOTH",
"609 -15 OFFCURVE",
"702 60 OFFCURVE",
"702 203 CURVE SMOOTH",
"702 295 OFFCURVE",
"657 351 OFFCURVE",
"581 401 CURVE SMOOTH",
"500 454 LINE SMOOTH",
"460 480 OFFCURVE",
"437 505 OFFCURVE",
"437 543 CURVE SMOOTH",
"437 600 OFFCURVE",
"474 628 OFFCURVE",
"562 628 CURVE"
);
}
);
width = 726;
}
);
leftKerningGroup = H;
leftMetricsKey = H;
rightKerningGroup = GERM;
rightMetricsKey = S;
unicode = 1E9E;
},
{
color = 4;
glyphname = Schwa;
lastChange = "2023-02-10 10:52:59 +0000";
layers = (
{
background = {
paths = (
{
closed = 1;
nodes = (
"1359 -16 OFFCURVE",
"1403 190 OFFCURVE",
"1403 383 CURVE SMOOTH",
"1403 628 OFFCURVE",
"1336 764 OFFCURVE",
"1167 764 CURVE SMOOTH",
"1043 764 OFFCURVE",
"970 688 OFFCURVE",
"947 553 CURVE",
"1081 523 LINE",
"1089 590 OFFCURVE",
"1114 641 OFFCURVE",
"1167 641 CURVE SMOOTH",
"1250 641 OFFCURVE",
"1256 505 OFFCURVE",
"1256 403 CURVE",
"944 403 LINE",
"942 382 OFFCURVE",
"941 360 OFFCURVE",
"941 338 CURVE SMOOTH",
"941 139 OFFCURVE",
"987 -16 OFFCURVE",
"1173 -16 CURVE SMOOTH"
);
},
{
closed = 1;
nodes = (
"1102 109 OFFCURVE",
"1087 183 OFFCURVE",
"1089 296 CURVE",
"1254 296 LINE",
"1252 187 OFFCURVE",
"1232 109 OFFCURVE",
"1173 109 CURVE SMOOTH"
);
},
{
closed = 1;
nodes = (
"460 -14 OFFCURVE",
"531 138 OFFCURVE",
"531 375 CURVE SMOOTH",
"531 612 OFFCURVE",
"460 764 OFFCURVE",
"286 764 CURVE SMOOTH",
"113 764 OFFCURVE",
"41 612 OFFCURVE",
"41 375 CURVE SMOOTH",
"41 138 OFFCURVE",
"113 -14 OFFCURVE",
"286 -14 CURVE SMOOTH"
);
},
{
closed = 1;
nodes = (
"204 115 OFFCURVE",
"196 238 OFFCURVE",
"196 375 CURVE SMOOTH",
"196 512 OFFCURVE",
"204 635 OFFCURVE",
"286 635 CURVE SMOOTH",
"369 635 OFFCURVE",
"376 512 OFFCURVE",
"376 375 CURVE SMOOTH",
"376 238 OFFCURVE",
"369 115 OFFCURVE",
"286 115 CURVE SMOOTH"
);
}
);
};
layerId = "849A9C4C-BF7C-40C5-8614-1FD725A2A379";
paths = (
{
closed = 1;
nodes = (
"484 -13 OFFCURVE",
"531 190 OFFCURVE",
"531 383 CURVE SMOOTH",
"531 628 OFFCURVE",
"460 764 OFFCURVE",
"281 764 CURVE SMOOTH",
"149 764 OFFCURVE",
"72 688 OFFCURVE",
"47 553 CURVE",
"186 523 LINE",
"195 590 OFFCURVE",
"223 641 OFFCURVE",
"281 641 CURVE SMOOTH",
"373 641 OFFCURVE",
"380 505 OFFCURVE",
"380 403 CURVE",
"44 403 LINE",
"42 382 OFFCURVE",
"41 360 OFFCURVE",
"41 338 CURVE SMOOTH",
"41 139 OFFCURVE",
"90 -13 OFFCURVE",
"287 -13 CURVE SMOOTH"
);
},
{
closed = 1;
nodes = (
"211 112 OFFCURVE",
"193 195 OFFCURVE",
"195 296 CURVE",
"378 296 LINE",
"376 195 OFFCURVE",
"359 112 OFFCURVE",
"285 112 CURVE SMOOTH"
);
}
);
width = 566;
}
);
leftKerningGroup = O;
rightKerningGroup = O;
rightMetricsKey = O;
unicode = 018F;
},
{
color = 3;
glyphname = T;
lastChange = "2023-02-14 14:27:18 +0000";
layers = (
{
anchors = (
{
name = bottom;
position = "{234, 0}";
},
{
name = center;
position = "{234, 375}";
},
{
name = top;
position = "{234, 750}";
}
);
background = {
anchors = (
{
name = bottom;
position = "{231, 0}";
},
{
name = center;
position = "{231, 375}";
},
{
name = top;
position = "{231, 750}";
}
);
paths = (
{
closed = 1;
nodes = (
"304 0 LINE",
"304 628 LINE",
"440 628 LINE",
"454 750 LINE",
"13 750 LINE",
"13 628 LINE",
"160 628 LINE",
"160 0 LINE"
);
}
);
};
layerId = "849A9C4C-BF7C-40C5-8614-1FD725A2A379";
paths = (
{
closed = 1;
nodes = (
"307 0 LINE",
"307 628 LINE",
"443 628 LINE",
"457 750 LINE",
"13 750 LINE",
"13 628 LINE",
"160 628 LINE",
"160 0 LINE"
);
}
);
width = 467;
}
);
leftKerningGroup = T;
rightKerningGroup = T;
unicode = 0054;
},
{
color = 3;
glyphname = U;
lastChange = "2023-02-10 15:55:51 +0000";
layers = (
{
anchors = (
{
name = bottom;
position = "{286, 0}";
},
{
name = ogonek;
position = "{368, 0}";
},
{
name = top;
position = "{286, 750}";
},
{
name = topright;
position = "{507, 650}";
}
);
background = {
anchors = (
{
name = bottom;
position = "{279, 0}";
},
{
name = ogonek;
position = "{448, 5}";
},
{
name = top;
position = "{281, 750}";
},
{
name = topright;
position = "{505, 480}";
}
);
paths = (
{
closed = 1;
nodes = (
"437 -14 OFFCURVE",
"507 97 OFFCURVE",
"507 243 CURVE SMOOTH",
"507 750 LINE",
"370 750 LINE",
"370 230 LINE SMOOTH",
"370 157 OFFCURVE",
"342 109 OFFCURVE",
"286 109 CURVE SMOOTH",
"230 109 OFFCURVE",
"202 157 OFFCURVE",
"202 230 CURVE SMOOTH",
"202 750 LINE",
"55 750 LINE",
"55 243 LINE SMOOTH",
"55 76 OFFCURVE",
"125 -14 OFFCURVE",
"284 -14 CURVE SMOOTH"
);
}
);
};
layerId = "849A9C4C-BF7C-40C5-8614-1FD725A2A379";
paths = (
{
closed = 1;
nodes = (
"437 -14 OFFCURVE",
"507 97 OFFCURVE",
"507 243 CURVE SMOOTH",
"507 750 LINE",
"370 750 LINE",
"370 230 LINE SMOOTH",
"370 157 OFFCURVE",
"346 109 OFFCURVE",
"286 109 CURVE SMOOTH",
"225 109 OFFCURVE",
"202 157 OFFCURVE",
"202 230 CURVE SMOOTH",
"202 750 LINE",
"55 750 LINE",
"55 243 LINE SMOOTH",
"55 76 OFFCURVE",
"125 -14 OFFCURVE",
"284 -14 CURVE SMOOTH"
);
}
);
width = 562;
}
);
leftKerningGroup = U;
rightKerningGroup = U;
unicode = 0055;
},
{
color = 3;
glyphname = V;
lastChange = "2023-02-13 21:33:30 +0000";
layers = (
{
anchors = (
{
name = bottom;
position = "{255, 0}";
},
{
name = top;
position = "{256, 750}";
}
);
background = {
paths = (
{
closed = 1;
nodes = (
"339 0 LINE",
"500 750 LINE",
"358 750 LINE",
"256 231 LINE",
"162 762 LINE",
"8 739 LINE",
"167 0 LINE"
);
}
);
};
layerId = "849A9C4C-BF7C-40C5-8614-1FD725A2A379";
paths = (
{
closed = 1;
nodes = (
"342 0 LINE",
"503 750 LINE",
"365 750 LINE",
"256 191 LINE",
"152 762 LINE",
"8 742 LINE",
"167 0 LINE"
);
}
);
width = 511;
}
);
leftKerningGroup = V;
rightKerningGroup = V;
unicode = 0056;
},
{
color = 4;
glyphname = W;
lastChange = "2023-02-13 14:07:54 +0000";
layers = (
{
anchors = (
{
name = bottom;
position = "{381, 0}";
},
{
name = top;
position = "{389, 750}";
}
);
background = {
paths = (
{
closed = 1;
nodes = (
"309 0 LINE",
"383 499 LINE",
"453 0 LINE",
"615 0 LINE",
"751 750 LINE",
"612 750 LINE",
"536 232 LINE",
"463 750 LINE",
"314 750 LINE",
"235 220 LINE",
"167 762 LINE",
"7 740 LINE",
"143 0 LINE"
);
}
);
};
layerId = "849A9C4C-BF7C-40C5-8614-1FD725A2A379";
paths = (
{
closed = 1;
nodes = (
"309 0 LINE",
"383 519 LINE",
"453 0 LINE",
"615 0 LINE",
"749 750 LINE",
"622 750 LINE",
"536 212 LINE",
"455 750 LINE",
"322 750 LINE",
"235 200 LINE",
"157 762 LINE",
"13 742 LINE",
"143 0 LINE"
);
}
);
width = 762;
}
);
leftKerningGroup = V;
rightKerningGroup = V;
rightMetricsKey = "=|";
unicode = 0057;
},
{
color = 3;
glyphname = X;
lastChange = "2023-02-13 21:23:51 +0000";
layers = (
{
anchors = (
{
name = bottom;
position = "{260, 0}";
},
{
name = top;
position = "{260, 750}";
}
);
background = {
paths = (
{
closed = 1;
nodes = (
"474 750 LINE",
"341 750 LINE",
"216 417 LINE",
"177 417 LINE",
"10 0 LINE",
"146 0 LINE",
"262 315 LINE",
"304 315 LINE"
);
},
{
closed = 1;
nodes = (
"164 762 LINE",
"19 725 LINE",
"175 327 LINE",
"204 327 LINE",
"336 -22 LINE",
"478 18 LINE",
"308 438 LINE",
"274 438 LINE"
);
}
);
};
layerId = "849A9C4C-BF7C-40C5-8614-1FD725A2A379";
paths = (
{
closed = 1;
nodes = (
"146 0 LINE",
"236 243 LINE",
"336 -22 LINE",
"478 18 LINE",
"330 383 LINE",
"474 750 LINE",
"341 750 LINE",
"250 508 LINE",
"164 762 LINE",
"19 725 LINE",
"158 370 LINE",
"10 0 LINE"
);
}
);
width = 488;
}
);
leftKerningGroup = X;
rightKerningGroup = X;
unicode = 0058;
},
{
color = 3;
glyphname = Y;
lastChange = "2023-02-13 21:33:41 +0000";
layers = (
{
anchors = (
{
name = bottom;
position = "{242, 0}";
},
{
name = top;
position = "{242, 750}";
},
{
name = topleft;
position = "{3, 750}";
}
);
background = {
anchors = (
{
name = bottom;
position = "{244, 0}";
},
{
name = top;
position = "{244, 750}";
},
{
name = topleft;
position = "{3, 750}";
}
);
paths = (
{
closed = 1;
nodes = (
"315 0 LINE",
"315 266 LINE",
"481 750 LINE",
"343 752 LINE",
"255 439 LINE",
"246 398 LINE",
"237 439 LINE",
"142 761 LINE",
"2 739 LINE",
"168 248 LINE",
"168 0 LINE"
);
}
);
};
layerId = "849A9C4C-BF7C-40C5-8614-1FD725A2A379";
paths = (
{
closed = 1;
nodes = (
"315 0 LINE",
"315 266 LINE",
"481 750 LINE",
"343 750 LINE",
"246 410 LINE",
"142 761 LINE",
"2 739 LINE",
"168 248 LINE",
"168 0 LINE"
);
}
);
width = 483;
}
);
leftKerningGroup = Y;
rightKerningGroup = Y;
unicode = 0059;
},
{
color = 3;
glyphname = Z;
lastChange = "2023-02-13 21:24:01 +0000";
layers = (
{
anchors = (
{
name = bottom;
position = "{225, 0}";
},
{
name = top;
position = "{243, 750}";
}
);
background = {
anchors = (
{
name = bottom;
position = "{225, 0}";
},
{
name = top;
position = "{243, 750}";
}
);
paths = (
{
closed = 1;
nodes = (
"430 0 LINE",
"445 122 LINE",
"181 122 LINE",
"442 651 LINE",
"430 750 LINE",
"35 750 LINE",
"34 632 LINE",
"281 632 LINE",
"20 103 LINE",
"32 0 LINE"
);
}
);
};
layerId = "849A9C4C-BF7C-40C5-8614-1FD725A2A379";
paths = (
{
closed = 1;
nodes = (
"430 0 LINE",
"445 122 LINE",
"181 122 LINE",
"442 651 LINE",
"442 750 LINE",
"50 750 LINE",
"35 628 LINE",
"279 628 LINE",
"20 103 LINE",
"20 0 LINE"
);
}
);
width = 465;
}
);
leftKerningGroup = Z;
rightKerningGroup = Z;
unicode = 005A;
},
{
color = 3;
glyphname = a;
lastChange = "2023-02-13 12:35:00 +0000";
layers = (
{
anchors = (
{
name = bottom;
position = "{237, 0}";
},
{
name = ogonek;
position = "{442, 0}";
},
{
name = top;
position = "{234, 560}";
}
);
background = {
anchors = (
{
name = bottom;
position = "{237, 0}";
},
{
name = ogonek;
position = "{506, -4}";
},
{
name = top;
position = "{234, 563}";
}
);
paths = (
{
closed = 1;
nodes = (
"140 336 OFFCURVE",
"34 280 OFFCURVE",
"34 148 CURVE SMOOTH",
"34 48 OFFCURVE",
"86 -12 OFFCURVE",
"166 -12 CURVE SMOOTH",
"239 -12 OFFCURVE",
"281 35 OFFCURVE",
"298 92 CURVE",
"282 160 LINE",
"282 124 OFFCURVE",
"260 99 OFFCURVE",
"227 99 CURVE SMOOTH",
"191 99 OFFCURVE",
"173 126 OFFCURVE",
"173 168 CURVE SMOOTH",
"173 222 OFFCURVE",
"213 261 OFFCURVE",
"282 261 CURVE SMOOTH",
"294 261 LINE",
"294 336 LINE",
"282 336 LINE SMOOTH"
);
},
{
closed = 1;
nodes = (
"291 54 OFFCURVE",
"296 28 OFFCURVE",
"306 0 CURVE",
"442 0 LINE",
"427 45 OFFCURVE",
"422 94 OFFCURVE",
"422 148 CURVE SMOOTH",
"422 372 LINE SMOOTH",
"422 498 OFFCURVE",
"363 570 OFFCURVE",
"232 570 CURVE SMOOTH",
"139 570 OFFCURVE",
"65 521 OFFCURVE",
"48 414 CURVE",
"172 387 LINE",
"177 428 OFFCURVE",
"193 463 OFFCURVE",
"228 463 CURVE SMOOTH",
"269 463 OFFCURVE",
"282 428 OFFCURVE",
"282 387 CURVE SMOOTH",
"282 86 LINE",
"291 86 LINE"
);
}
);
};
layerId = "849A9C4C-BF7C-40C5-8614-1FD725A2A379";
paths = (
{
closed = 1;
nodes = (
"140 336 OFFCURVE",
"34 280 OFFCURVE",
"34 148 CURVE SMOOTH",
"34 48 OFFCURVE",
"86 -12 OFFCURVE",
"166 -12 CURVE SMOOTH",
"231 -12 OFFCURVE",
"271 25 OFFCURVE",
"291 73 CURVE",
"292 47 OFFCURVE",
"297 24 OFFCURVE",
"306 0 CURVE",
"442 0 LINE",
"427 45 OFFCURVE",
"422 94 OFFCURVE",
"422 148 CURVE SMOOTH",
"422 372 LINE SMOOTH",
"422 498 OFFCURVE",
"363 570 OFFCURVE",
"232 570 CURVE SMOOTH",
"139 570 OFFCURVE",
"65 521 OFFCURVE",
"48 414 CURVE",
"172 387 LINE",
"177 428 OFFCURVE",
"193 463 OFFCURVE",
"228 463 CURVE SMOOTH",
"269 463 OFFCURVE",
"282 428 OFFCURVE",
"282 387 CURVE SMOOTH",
"282 336 LINE"
);
},
{
closed = 1;
nodes = (
"173 222 OFFCURVE",
"213 261 OFFCURVE",
"282 261 CURVE",
"282 160 LINE SMOOTH",
"282 124 OFFCURVE",
"260 99 OFFCURVE",
"227 99 CURVE SMOOTH",
"191 99 OFFCURVE",
"173 126 OFFCURVE",
"173 168 CURVE SMOOTH"
);
}
);
width = 467;
}
);
leftKerningGroup = a;
rightKerningGroup = n;
unicode = 0061;
},
{
color = 3;
glyphname = ae;
lastChange = "2023-02-13 12:35:10 +0000";
layers = (
{
anchors = (
{
name = bottom;
position = "{361, 0}";
},
{
name = top;
position = "{361, 560}";
}
);
background = {
paths = (
{
closed = 1;
nodes = (
"140 336 OFFCURVE",
"34 280 OFFCURVE",
"34 148 CURVE SMOOTH",
"34 48 OFFCURVE",
"86 -12 OFFCURVE",
"166 -12 CURVE SMOOTH",
"231 -12 OFFCURVE",
"271 25 OFFCURVE",
"291 73 CURVE",
"292 47 OFFCURVE",
"297 24 OFFCURVE",
"306 0 CURVE",
"442 0 LINE",
"427 45 OFFCURVE",
"422 94 OFFCURVE",
"422 148 CURVE SMOOTH",
"422 372 LINE SMOOTH",
"422 498 OFFCURVE",
"363 570 OFFCURVE",
"232 570 CURVE SMOOTH",
"139 570 OFFCURVE",
"65 521 OFFCURVE",
"48 414 CURVE",
"172 387 LINE",
"177 428 OFFCURVE",
"193 463 OFFCURVE",
"228 463 CURVE SMOOTH",
"269 463 OFFCURVE",
"282 428 OFFCURVE",
"282 387 CURVE SMOOTH",
"282 336 LINE"
);
},
{
closed = 1;
nodes = (
"173 222 OFFCURVE",
"213 261 OFFCURVE",
"282 261 CURVE",
"282 160 LINE SMOOTH",
"282 124 OFFCURVE",
"260 99 OFFCURVE",
"227 99 CURVE SMOOTH",
"191 99 OFFCURVE",
"173 126 OFFCURVE",
"173 168 CURVE SMOOTH"
);
}
);
};
layerId = "849A9C4C-BF7C-40C5-8614-1FD725A2A379";
paths = (
{
closed = 1;
nodes = (
"276 -13 OFFCURVE",
"336 50 OFFCURVE",
"346 134 CURVE",
"318 134 LINE",
"353 24 OFFCURVE",
"407 -13 OFFCURVE",
"497 -13 CURVE SMOOTH",
"597 -13 OFFCURVE",
"661 61 OFFCURVE",
"678 154 CURVE",
"558 179 LINE",
"552 138 OFFCURVE",
"536 93 OFFCURVE",
"494 93 CURVE SMOOTH",
"423 93 OFFCURVE",
"419 194 OFFCURVE",
"419 279 CURVE",
"397 245 LINE",
"679 245 LINE",
"681 274 OFFCURVE",
"682 305 OFFCURVE",
"682 332 CURVE SMOOTH",
"682 466 OFFCURVE",
"624 570 OFFCURVE",
"494 570 CURVE SMOOTH",
"423 570 OFFCURVE",
"367 535 OFFCURVE",
"360 494 CURVE",
"374 494 LINE",
"364 545 OFFCURVE",
"309 570 OFFCURVE",
"248 570 CURVE SMOOTH",
"174 570 OFFCURVE",
"79 538 OFFCURVE",
"63 418 CURVE",
"187 391 LINE",
"193 433 OFFCURVE",
"211 463 OFFCURVE",
"244 463 CURVE SMOOTH",
"284 463 OFFCURVE",
"294 421 OFFCURVE",
"294 383 CURVE SMOOTH",
"294 336 LINE",
"140 336 OFFCURVE",
"34 285 OFFCURVE",
"34 147 CURVE SMOOTH",
"34 45 OFFCURVE",
"99 -13 OFFCURVE",
"191 -13 CURVE SMOOTH"
);
},
{
closed = 1;
nodes = (
"194 98 OFFCURVE",
"173 120 OFFCURVE",
"173 164 CURVE SMOOTH",
"173 231 OFFCURVE",
"225 261 OFFCURVE",
"292 261 CURVE",
"292 172 LINE SMOOTH",
"292 117 OFFCURVE",
"261 98 OFFCURVE",
"228 98 CURVE SMOOTH"
);
},
{
closed = 1;
nodes = (
"418 393 OFFCURVE",
"440 466 OFFCURVE",
"490 466 CURVE SMOOTH",
"544 466 OFFCURVE",
"556 398 OFFCURVE",
"553 290 CURVE",
"575 324 LINE",
"397 324 LINE",
"419 290 LINE"
);
}
);
width = 712;
}
);
leftKerningGroup = a;
leftMetricsKey = a;
rightKerningGroup = o;
rightMetricsKey = e;
unicode = 00E6;
},
{
color = 3;
glyphname = b;
lastChange = "2023-02-13 11:29:57 +0000";
layers = (
{
anchors = (
{
name = bottom;
position = "{248, 0}";
},
{
name = top;
position = "{248, 560}";
}
);
background = {
paths = (
{
closed = 1;
nodes = (
"190 760 LINE",
"50 743 LINE",
"50 0 LINE",
"178 0 LINE",
"178 84 LINE",
"190 138 LINE"
);
},
{
closed = 1;
nodes = (
"206 91 OFFCURVE",
"190 153 OFFCURVE",
"190 237 CURVE",
"167 149 LINE",
"167 69 OFFCURVE",
"201 -13 OFFCURVE",
"296 -13 CURVE SMOOTH",
"418 -13 OFFCURVE",
"470 115 OFFCURVE",
"470 279 CURVE SMOOTH",
"470 459 OFFCURVE",
"418 570 OFFCURVE",
"303 570 CURVE SMOOTH",
"213 570 OFFCURVE",
"167 503 OFFCURVE",
"167 412 CURVE",
"190 322 LINE",
"190 408 OFFCURVE",
"206 466 OFFCURVE",
"257 466 CURVE SMOOTH",
"307 466 OFFCURVE",
"327 390 OFFCURVE",
"327 278 CURVE SMOOTH",
"327 167 OFFCURVE",
"307 91 OFFCURVE",
"254 91 CURVE SMOOTH"
);
}
);
};
layerId = "849A9C4C-BF7C-40C5-8614-1FD725A2A379";
paths = (
{
closed = 1;
nodes = (
"206 91 OFFCURVE",
"190 153 OFFCURVE",
"190 237 CURVE SMOOTH",
"190 322 LINE SMOOTH",
"190 408 OFFCURVE",
"206 466 OFFCURVE",
"257 466 CURVE SMOOTH",
"307 466 OFFCURVE",
"327 390 OFFCURVE",
"327 278 CURVE SMOOTH",
"327 167 OFFCURVE",
"307 91 OFFCURVE",
"254 91 CURVE SMOOTH"
);
},
{
closed = 1;
nodes = (
"178 0 LINE",
"178 75 LINE",
"195 25 OFFCURVE",
"231 -13 OFFCURVE",
"296 -13 CURVE SMOOTH",
"413 -13 OFFCURVE",
"470 115 OFFCURVE",
"470 279 CURVE SMOOTH",
"470 459 OFFCURVE",
"413 570 OFFCURVE",
"303 570 CURVE SMOOTH",
"250 570 OFFCURVE",
"212 547 OFFCURVE",
"190 509 CURVE",
"190 760 LINE",
"50 743 LINE",
"50 0 LINE"
);
}
);
width = 500;
}
);
leftKerningGroup = h;
leftMetricsKey = l;
rightKerningGroup = o;
rightMetricsKey = o;
unicode = 0062;
},
{
color = 3;
glyphname = c;
lastChange = "2023-02-13 13:37:44 +0000";
layers = (
{
anchors = (
{
name = bottom;
position = "{241, 0}";
},
{
name = top;
position = "{235, 560}";
}
);
background = {
anchors = (
{
name = bottom;
position = "{241, 0}";
},
{
name = top;
position = "{235, 563}";
}
);
paths = (
{
closed = 1;
nodes = (
"353 -13 OFFCURVE",
"422 76 OFFCURVE",
"434 182 CURVE",
"306 196 LINE",
"304 154 OFFCURVE",
"290 90 OFFCURVE",
"242 90 CURVE SMOOTH",
"191 90 OFFCURVE",
"173 163 OFFCURVE",
"173 278 CURVE SMOOTH",
"173 378 OFFCURVE",
"185 467 OFFCURVE",
"242 467 CURVE SMOOTH",
"288 467 OFFCURVE",
"300 405 OFFCURVE",
"304 353 CURVE",
"434 379 LINE",
"425 497 OFFCURVE",
"353 570 OFFCURVE",
"242 570 CURVE SMOOTH",
"111 570 OFFCURVE",
"30 457 OFFCURVE",
"30 278 CURVE SMOOTH",
"30 101 OFFCURVE",
"100 -13 OFFCURVE",
"242 -13 CURVE SMOOTH"
);
}
);
};
layerId = "849A9C4C-BF7C-40C5-8614-1FD725A2A379";
paths = (
{
closed = 1;
nodes = (
"353 -13 OFFCURVE",
"422 76 OFFCURVE",
"434 182 CURVE",
"306 196 LINE",
"304 154 OFFCURVE",
"290 90 OFFCURVE",
"242 90 CURVE SMOOTH",
"191 90 OFFCURVE",
"173 163 OFFCURVE",
"173 278 CURVE SMOOTH",
"173 378 OFFCURVE",
"185 467 OFFCURVE",
"242 467 CURVE SMOOTH",
"288 467 OFFCURVE",
"300 405 OFFCURVE",
"304 353 CURVE",
"434 379 LINE",
"425 497 OFFCURVE",
"353 570 OFFCURVE",
"242 570 CURVE SMOOTH",
"111 570 OFFCURVE",
"30 457 OFFCURVE",
"30 278 CURVE SMOOTH",
"30 101 OFFCURVE",
"100 -13 OFFCURVE",
"242 -13 CURVE SMOOTH"
);
}
);
width = 452;
}
);
leftKerningGroup = o;
leftMetricsKey = o;
rightKerningGroup = c;
unicode = 0063;
},
{
color = 3;
glyphname = d;
lastChange = "2023-02-09 13:52:02 +0000";
layers = (
{
anchors = (
{
name = bottom;
position = "{251, 0}";
},
{
name = center;
position = "{350, 644}";
},
{
name = top;
position = "{251, 560}";
},
{
name = topright;
position = "{500, 750}";
}
);
background = {
paths = (
{
closed = 1;
nodes = (
"310 138 LINE",
"322 137 LINE",
"322 -8 LINE",
"450 8 LINE",
"450 760 LINE",
"310 743 LINE"
);
},
{
closed = 1;
nodes = (
"294 466 OFFCURVE",
"310 404 OFFCURVE",
"310 320 CURVE",
"333 408 LINE",
"333 488 OFFCURVE",
"299 570 OFFCURVE",
"204 570 CURVE SMOOTH",
"82 570 OFFCURVE",
"30 442 OFFCURVE",
"30 278 CURVE SMOOTH",
"30 98 OFFCURVE",
"82 -13 OFFCURVE",
"197 -13 CURVE SMOOTH",
"287 -13 OFFCURVE",
"333 54 OFFCURVE",
"333 145 CURVE",
"310 235 LINE",
"310 149 OFFCURVE",
"294 91 OFFCURVE",
"243 91 CURVE SMOOTH",
"193 91 OFFCURVE",
"173 167 OFFCURVE",
"173 279 CURVE SMOOTH",
"173 390 OFFCURVE",
"193 466 OFFCURVE",
"246 466 CURVE SMOOTH"
);
}
);
};
layerId = "849A9C4C-BF7C-40C5-8614-1FD725A2A379";
paths = (
{
closed = 1;
nodes = (
"310 509 LINE",
"290 545 OFFCURVE",
"256 570 OFFCURVE",
"204 570 CURVE SMOOTH",
"87 570 OFFCURVE",
"30 442 OFFCURVE",
"30 278 CURVE SMOOTH",
"30 98 OFFCURVE",
"87 -13 OFFCURVE",
"197 -13 CURVE SMOOTH",
"262 -13 OFFCURVE",
"303 21 OFFCURVE",
"322 75 CURVE",
"322 0 LINE",
"450 0 LINE",
"450 760 LINE",
"310 743 LINE"
);
},
{
closed = 1;
nodes = (
"173 390 OFFCURVE",
"193 466 OFFCURVE",
"246 466 CURVE SMOOTH",
"294 466 OFFCURVE",
"310 404 OFFCURVE",
"310 320 CURVE SMOOTH",
"310 235 LINE SMOOTH",
"310 149 OFFCURVE",
"294 91 OFFCURVE",
"243 91 CURVE SMOOTH",
"193 91 OFFCURVE",
"173 167 OFFCURVE",
"173 279 CURVE SMOOTH"
);
}
);
width = 500;
}
);
leftKerningGroup = o;
leftMetricsKey = o;
rightKerningGroup = l;
rightMetricsKey = l;
unicode = 0064;
},
{
color = 4;
glyphname = eth;
lastChange = "2023-02-09 13:52:43 +0000";
layers = (
{
background = {
paths = (
{
closed = 1;
nodes = (
"331 399 LINE",
"331 478 OFFCURVE",
"285 571 OFFCURVE",
"204 571 CURVE SMOOTH",
"75 571 OFFCURVE",
"30 419 OFFCURVE",
"30 275 CURVE SMOOTH",
"30 95 OFFCURVE",
"105 -13 OFFCURVE",
"244 -13 CURVE SMOOTH",
"403 -13 OFFCURVE",
"458 138 OFFCURVE",
"458 319 CURVE SMOOTH",
"458 503 OFFCURVE",
"401 648 OFFCURVE",
"274 776 CURVE",
"145 730 LINE",
"268 615 OFFCURVE",
"316 490 OFFCURVE",
"316 388 CURVE SMOOTH",
"316 298 LINE",
"316 189 OFFCURVE",
"302 90 OFFCURVE",
"242 90 CURVE SMOOTH",
"183 90 OFFCURVE",
"173 183 OFFCURVE",
"173 290 CURVE SMOOTH",
"173 362 OFFCURVE",
"182 467 OFFCURVE",
"242 467 CURVE SMOOTH",
"288 467 OFFCURVE",
"316 421 OFFCURVE",
"316 299 CURVE"
);
},
{
closed = 1;
nodes = (
"121 585 LINE",
"447 711 LINE",
"422 776 LINE",
"96 651 LINE"
);
}
);
};
layerId = "849A9C4C-BF7C-40C5-8614-1FD725A2A379";
paths = (
{
closed = 1;
nodes = (
"316 298 LINE SMOOTH",
"316 189 OFFCURVE",
"302 90 OFFCURVE",
"242 90 CURVE SMOOTH",
"183 90 OFFCURVE",
"173 183 OFFCURVE",
"173 290 CURVE SMOOTH",
"173 362 OFFCURVE",
"182 467 OFFCURVE",
"242 467 CURVE SMOOTH",
"288 467 OFFCURVE",
"316 421 OFFCURVE",
"316 299 CURVE SMOOTH"
);
},
{
closed = 1;
nodes = (
"30 95 OFFCURVE",
"105 -13 OFFCURVE",
"244 -13 CURVE SMOOTH",
"403 -13 OFFCURVE",
"458 138 OFFCURVE",
"458 319 CURVE SMOOTH",
"458 457 OFFCURVE",
"426 573 OFFCURVE",
"357 676 CURVE",
"447 711 LINE",
"422 776 LINE",
"313 734 LINE",
"301 748 OFFCURVE",
"288 762 OFFCURVE",
"274 776 CURVE",
"145 730 LINE",
"160 716 OFFCURVE",
"175 701 OFFCURVE",
"188 686 CURVE",
"96 651 LINE",
"121 585 LINE",
"234 629 LINE",
"257 595 OFFCURVE",
"275 561 OFFCURVE",
"288 529 CURVE",
"267 554 OFFCURVE",
"239 571 OFFCURVE",
"204 571 CURVE SMOOTH",
"75 571 OFFCURVE",
"30 419 OFFCURVE",
"30 275 CURVE SMOOTH"
);
}
);
width = 488;
}
);
leftKerningGroup = o;
leftMetricsKey = o;
rightKerningGroup = o;
rightMetricsKey = o;
unicode = 00F0;
},
{
color = 3;
glyphname = e;
lastChange = "2023-02-09 13:51:27 +0000";
layers = (
{
anchors = (
{
name = bottom;
position = "{245, 0}";
},
{
name = ogonek;
position = "{312, 0}";
},
{
name = top;
position = "{229, 560}";
}
);
background = {
anchors = (
{
name = bottom;
position = "{245, 0}";
},
{
name = ogonek;
position = "{399, 5}";
},
{
name = top;
position = "{229, 563}";
}
);
paths = (
{
closed = 1;
nodes = (
"340 -13 OFFCURVE",
"411 50 OFFCURVE",
"430 154 CURVE",
"310 179 LINE",
"304 132 OFFCURVE",
"288 90 OFFCURVE",
"243 90 CURVE SMOOTH",
"174 90 OFFCURVE",
"171 198 OFFCURVE",
"171 279 CURVE",
"149 245 LINE",
"431 245 LINE",
"433 279 OFFCURVE",
"434 304 OFFCURVE",
"434 336 CURVE SMOOTH",
"434 469 OFFCURVE",
"376 570 OFFCURVE",
"240 570 CURVE SMOOTH",
"108 570 OFFCURVE",
"30 448 OFFCURVE",
"30 276 CURVE SMOOTH",
"30 113 OFFCURVE",
"90 -13 OFFCURVE",
"241 -13 CURVE SMOOTH"
);
},
{
closed = 1;
nodes = (
"171 367 OFFCURVE",
"180 469 OFFCURVE",
"243 469 CURVE SMOOTH",
"293 469 OFFCURVE",
"305 400 OFFCURVE",
"305 342 CURVE SMOOTH",
"305 290 LINE",
"327 324 LINE",
"149 324 LINE",
"171 290 LINE"
);
}
);
};
layerId = "849A9C4C-BF7C-40C5-8614-1FD725A2A379";
paths = (
{
closed = 1;
nodes = (
"340 -13 OFFCURVE",
"411 50 OFFCURVE",
"430 154 CURVE",
"310 179 LINE",
"304 132 OFFCURVE",
"288 90 OFFCURVE",
"243 90 CURVE SMOOTH",
"174 90 OFFCURVE",
"171 198 OFFCURVE",
"171 279 CURVE",
"149 245 LINE",
"431 245 LINE",
"433 279 OFFCURVE",
"434 304 OFFCURVE",
"434 336 CURVE SMOOTH",
"434 469 OFFCURVE",
"376 570 OFFCURVE",
"240 570 CURVE SMOOTH",
"108 570 OFFCURVE",
"30 448 OFFCURVE",
"30 276 CURVE SMOOTH",
"30 113 OFFCURVE",
"90 -13 OFFCURVE",
"241 -13 CURVE SMOOTH"
);
},
{
closed = 1;
nodes = (
"171 367 OFFCURVE",
"180 469 OFFCURVE",
"243 469 CURVE SMOOTH",
"293 469 OFFCURVE",
"305 400 OFFCURVE",
"305 342 CURVE SMOOTH",
"305 290 LINE",
"327 324 LINE",
"149 324 LINE",
"171 290 LINE"
);
}
);
width = 464;
}
);
leftKerningGroup = o;
leftMetricsKey = o;
rightKerningGroup = o;
unicode = 0065;
},
{
color = 4;
glyphname = f;
lastChange = "2023-02-14 14:21:37 +0000";
layers = (
{
anchors = (
{
name = bottom;
position = "{150, 0}";
},
{
name = top;
position = "{150, 750}";
}
);
background = {
paths = (
{
closed = 1;
nodes = (
"313 458 LINE",
"326 563 LINE",
"15 563 LINE",
"15 458 LINE"
);
},
{
closed = 1;
nodes = (
"220 0 LINE",
"220 563 LINE",
"220 573 LINE SMOOTH",
"220 632 OFFCURVE",
"233 662 OFFCURVE",
"274 662 CURVE SMOOTH",
"292 662 OFFCURVE",
"307 660 OFFCURVE",
"326 655 CURVE",
"333 753 LINE",
"298 764 OFFCURVE",
"264 771 OFFCURVE",
"221 771 CURVE SMOOTH",
"127 771 OFFCURVE",
"80 699 OFFCURVE",
"80 596 CURVE SMOOTH",
"80 0 LINE"
);
}
);
};
layerId = "849A9C4C-BF7C-40C5-8614-1FD725A2A379";
paths = (
{
closed = 1;
nodes = (
"220 0 LINE",
"220 455 LINE",
"313 455 LINE",
"326 560 LINE",
"220 560 LINE",
"220 583 LINE SMOOTH",
"220 627 OFFCURVE",
"245 655 OFFCURVE",
"283 655 CURVE SMOOTH",
"308 655 OFFCURVE",
"327 645 OFFCURVE",
"347 625 CURVE",
"414 708 LINE",
"383 746 OFFCURVE",
"330 762 OFFCURVE",
"282 762 CURVE SMOOTH",
"158 762 OFFCURVE",
"80 680 OFFCURVE",
"80 560 CURVE",
"15 560 LINE",
"15 455 LINE",
"80 455 LINE",
"80 0 LINE"
);
}
);
width = 340;
}
);
leftKerningGroup = f;
rightKerningGroup = f;
unicode = 0066;
},
{
color = 4;
glyphname = g;
lastChange = "2023-02-13 13:37:58 +0000";
layers = (
{
anchors = (
{
name = bottom;
position = "{268, 0}";
},
{
name = top;
position = "{249, 560}";
}
);
background = {
paths = (
{
closed = 1;
nodes = (
"372 -182 OFFCURVE",
"485 -128 OFFCURVE",
"485 -8 CURVE SMOOTH",
"485 82 OFFCURVE",
"423 133 OFFCURVE",
"337 140 CURVE SMOOTH",
"225 149 LINE SMOOTH",
"190 152 OFFCURVE",
"171 168 OFFCURVE",
"171 194 CURVE SMOOTH",
"171 216 OFFCURVE",
"194 233 OFFCURVE",
"225 234 CURVE",
"177 261 LINE",
"120 250 OFFCURVE",
"52 213 OFFCURVE",
"52 140 CURVE SMOOTH",
"52 72 OFFCURVE",
"96 34 OFFCURVE",
"175 28 CURVE SMOOTH",
"303 19 LINE SMOOTH",
"333 17 OFFCURVE",
"359 4 OFFCURVE",
"359 -24 CURVE SMOOTH",
"359 -66 OFFCURVE",
"316 -81 OFFCURVE",
"259 -81 CURVE SMOOTH",
"190 -81 OFFCURVE",
"142 -61 OFFCURVE",
"142 -15 CURVE SMOOTH",
"142 24 OFFCURVE",
"168 51 OFFCURVE",
"206 52 CURVE",
"151 62 LINE",
"81 57 OFFCURVE",
"25 17 OFFCURVE",
"25 -51 CURVE SMOOTH",
"25 -141 OFFCURVE",
"102 -182 OFFCURVE",
"239 -182 CURVE SMOOTH"
);
},
{
closed = 1;
nodes = (
"356 215 OFFCURVE",
"454 275 OFFCURVE",
"454 389 CURVE SMOOTH",
"454 501 OFFCURVE",
"356 570 OFFCURVE",
"248 570 CURVE SMOOTH",
"142 570 OFFCURVE",
"42 501 OFFCURVE",
"42 389 CURVE SMOOTH",
"42 275 OFFCURVE",
"142 215 OFFCURVE",
"248 215 CURVE SMOOTH"
);
},
{
closed = 1;
nodes = (
"208 297 OFFCURVE",
"186 333 OFFCURVE",
"186 390 CURVE SMOOTH",
"186 447 OFFCURVE",
"208 489 OFFCURVE",
"248 489 CURVE SMOOTH",
"290 489 OFFCURVE",
"310 447 OFFCURVE",
"310 389 CURVE SMOOTH",
"310 331 OFFCURVE",
"289 297 OFFCURVE",
"248 297 CURVE SMOOTH"
);
},
{
closed = 1;
nodes = (
"420 531 OFFCURVE",
"460 555 OFFCURVE",
"502 566 CURVE",
"465 680 LINE",
"399 660 OFFCURVE",
"355 581 OFFCURVE",
"354 500 CURVE",
"395 500 LINE"
);
}
);
};
layerId = "849A9C4C-BF7C-40C5-8614-1FD725A2A379";
paths = (
{
closed = 1;
nodes = (
"372 -182 OFFCURVE",
"485 -128 OFFCURVE",
"485 -8 CURVE SMOOTH",
"485 82 OFFCURVE",
"423 133 OFFCURVE",
"337 140 CURVE SMOOTH",
"225 149 LINE SMOOTH",
"190 152 OFFCURVE",
"171 168 OFFCURVE",
"171 194 CURVE SMOOTH",
"171 205 OFFCURVE",
"177 215 OFFCURVE",
"187 222 CURVE",
"206 217 OFFCURVE",
"227 215 OFFCURVE",
"248 215 CURVE SMOOTH",
"356 215 OFFCURVE",
"454 275 OFFCURVE",
"454 389 CURVE SMOOTH",
"454 439 OFFCURVE",
"435 480 OFFCURVE",
"404 510 CURVE",
"429 536 OFFCURVE",
"465 556 OFFCURVE",
"502 566 CURVE",
"465 680 LINE",
"411 664 OFFCURVE",
"372 608 OFFCURVE",
"359 543 CURVE",
"326 561 OFFCURVE",
"288 570 OFFCURVE",
"248 570 CURVE SMOOTH",
"142 570 OFFCURVE",
"42 501 OFFCURVE",
"42 389 CURVE SMOOTH",
"42 322 OFFCURVE",
"77 273 OFFCURVE",
"127 245 CURVE",
"87 226 OFFCURVE",
"52 192 OFFCURVE",
"52 140 CURVE SMOOTH",
"52 99 OFFCURVE",
"68 69 OFFCURVE",
"98 50 CURVE",
"55 33 OFFCURVE",
"25 -2 OFFCURVE",
"25 -51 CURVE SMOOTH",
"25 -141 OFFCURVE",
"102 -182 OFFCURVE",
"239 -182 CURVE SMOOTH"
);
},
{
closed = 1;
nodes = (
"142 3 OFFCURVE",
"148 18 OFFCURVE",
"157 30 CURVE",
"163 29 OFFCURVE",
"169 28 OFFCURVE",
"175 28 CURVE SMOOTH",
"303 19 LINE SMOOTH",
"333 17 OFFCURVE",
"359 4 OFFCURVE",
"359 -24 CURVE SMOOTH",
"359 -66 OFFCURVE",
"316 -81 OFFCURVE",
"259 -81 CURVE SMOOTH",
"190 -81 OFFCURVE",
"142 -61 OFFCURVE",
"142 -15 CURVE SMOOTH"
);
},
{
closed = 1;
nodes = (
"186 447 OFFCURVE",
"208 489 OFFCURVE",
"248 489 CURVE SMOOTH",
"290 489 OFFCURVE",
"310 447 OFFCURVE",
"310 389 CURVE SMOOTH",
"310 331 OFFCURVE",
"289 297 OFFCURVE",
"248 297 CURVE SMOOTH",
"208 297 OFFCURVE",
"186 333 OFFCURVE",
"186 390 CURVE SMOOTH"
);
}
);
width = 497;
}
);
leftKerningGroup = g;
rightKerningGroup = g;
unicode = 0067;
},
{
color = 3;
glyphname = h;
lastChange = "2023-02-09 13:53:37 +0000";
layers = (
{
anchors = (
{
name = bottom;
position = "{259, 0}";
},
{
name = center;
position = "{150, 644}";
},
{
name = top;
position = "{118, 750}";
}
);
background = {
paths = (
{
closed = 1;
nodes = (
"190 0 LINE",
"190 760 LINE",
"50 743 LINE",
"50 0 LINE"
);
},
{
closed = 1;
nodes = (
"190 287 LINE",
"190 382 OFFCURVE",
"222 454 OFFCURVE",
"269 454 CURVE SMOOTH",
"318 454 OFFCURVE",
"324 408 OFFCURVE",
"324 348 CURVE SMOOTH",
"324 0 LINE",
"464 0 LINE",
"464 404 LINE SMOOTH",
"464 521 OFFCURVE",
"413 573 OFFCURVE",
"334 573 CURVE SMOOTH",
"257 573 OFFCURVE",
"196 526 OFFCURVE",
"180 418 CURVE"
);
}
);
};
layerId = "849A9C4C-BF7C-40C5-8614-1FD725A2A379";
paths = (
{
closed = 1;
nodes = (
"190 0 LINE",
"190 287 LINE SMOOTH",
"190 382 OFFCURVE",
"222 454 OFFCURVE",
"269 454 CURVE SMOOTH",
"318 454 OFFCURVE",
"324 408 OFFCURVE",
"324 348 CURVE SMOOTH",
"324 0 LINE",
"464 0 LINE",
"464 404 LINE SMOOTH",
"464 521 OFFCURVE",
"413 573 OFFCURVE",
"334 573 CURVE SMOOTH",
"268 573 OFFCURVE",
"214 539 OFFCURVE",
"190 462 CURVE",
"190 760 LINE",
"50 743 LINE",
"50 0 LINE"
);
}
);
width = 509;
}
);
leftKerningGroup = h;
leftMetricsKey = n;
rightKerningGroup = n;
rightMetricsKey = n;
unicode = 0068;
},
{
color = 3;
glyphname = i;
lastChange = "2023-02-09 13:55:18 +0000";
layers = (
{
anchors = (
{
name = bottom;
position = "{117, 0}";
},
{
name = ogonek;
position = "{190, 0}";
},
{
name = top;
position = "{120, 560}";
}
);
background = {
anchors = (
{
name = bottom;
position = "{117, 0}";
},
{
name = ogonek;
position = "{270, 5}";
},
{
name = top;
position = "{120, 563}";
}
);
components = (
{
name = idotless;
transform = "{1, 0, 0, 1, -11, 0}";
}
);
paths = (
{
closed = 1;
nodes = (
"192 632 LINE",
"192 760 LINE",
"48 760 LINE",
"48 632 LINE"
);
}
);
};
layerId = "849A9C4C-BF7C-40C5-8614-1FD725A2A379";
paths = (
{
closed = 1;
nodes = (
"192 632 LINE",
"192 760 LINE",
"48 760 LINE",
"48 632 LINE"
);
},
{
closed = 1;
nodes = (
"190 0 LINE",
"190 567 LINE",
"50 550 LINE",
"50 0 LINE"
);
}
);
width = 240;
}
);
leftKerningGroup = h;
rightKerningGroup = l;
unicode = 0069;
},
{
color = 3;
glyphname = idotless;
lastChange = "2023-02-13 16:02:43 +0000";
layers = (
{
anchors = (
{
name = bottom;
position = "{120, 0}";
},
{
name = ogonek;
position = "{190, 0}";
},
{
name = top;
position = "{120, 560}";
}
);
background = {
anchors = (
{
name = bottom;
position = "{120, 0}";
},
{
name = ogonek;
position = "{120, 5}";
},
{
name = top;
position = "{120, 561}";
}
);
paths = (
{
closed = 1;
nodes = (
"190 0 LINE",
"190 567 LINE",
"50 550 LINE",
"50 0 LINE"
);
}
);
};
layerId = "849A9C4C-BF7C-40C5-8614-1FD725A2A379";
paths = (
{
closed = 1;
nodes = (
"190 0 LINE",
"190 567 LINE",
"50 550 LINE",
"50 0 LINE"
);
}
);
width = 240;
}
);
leftKerningGroup = n;
leftMetricsKey = n;
rightKerningGroup = u;
rightMetricsKey = "=|n";
unicode = 0131;
userData = {
com.fontlab.hintData = {
vhints = (
{
position = 124;
width = 288;
}
);
};
};
},
{
color = 3;
glyphname = j;
lastChange = "2023-02-14 14:19:40 +0000";
layers = (
{
background = {
components = (
{
name = t;
transform = "{-1, 0, 0, 1, 294, -141}";
}
);
};
layerId = "849A9C4C-BF7C-40C5-8614-1FD725A2A379";
paths = (
{
closed = 1;
nodes = (
"146 -180 OFFCURVE",
"202 -105 OFFCURVE",
"202 -7 CURVE SMOOTH",
"202 566 LINE",
"62 549 LINE",
"62 21 LINE SMOOTH",
"62 -37 OFFCURVE",
"51 -64 OFFCURVE",
"10 -64 CURVE SMOOTH",
"-4 -64 OFFCURVE",
"-14 -62 OFFCURVE",
"-25 -58 CURVE",
"-38 -166 LINE",
"-7 -176 OFFCURVE",
"21 -180 OFFCURVE",
"51 -180 CURVE SMOOTH"
);
},
{
closed = 1;
nodes = (
"204 632 LINE",
"204 761 LINE",
"59 761 LINE",
"59 632 LINE"
);
}
);
width = 252;
}
);
leftKerningGroup = h;
rightKerningGroup = l;
unicode = 006A;
},
{
color = 3;
glyphname = jdotless;
lastChange = "2023-02-09 13:57:33 +0000";
layers = (
{
anchors = (
{
name = top;
position = "{132, 560}";
}
);
background = {
anchors = (
{
name = bottom;
position = "{150, 0}";
},
{
name = top;
position = "{150, 563}";
}
);
paths = (
{
closed = 1;
nodes = (
"164 -168 OFFCURVE",
"220 -93 OFFCURVE",
"220 5 CURVE SMOOTH",
"220 566 LINE",
"80 553 LINE",
"80 34 LINE SMOOTH",
"80 -29 OFFCURVE",
"69 -56 OFFCURVE",
"26 -56 CURVE SMOOTH",
"14 -56 OFFCURVE",
"4 -54 OFFCURVE",
"-7 -50 CURVE",
"-20 -154 LINE",
"11 -164 OFFCURVE",
"39 -168 OFFCURVE",
"73 -168 CURVE SMOOTH"
);
}
);
};
layerId = "849A9C4C-BF7C-40C5-8614-1FD725A2A379";
paths = (
{
closed = 1;
nodes = (
"146 -180 OFFCURVE",
"202 -105 OFFCURVE",
"202 -7 CURVE SMOOTH",
"202 566 LINE",
"62 549 LINE",
"62 21 LINE SMOOTH",
"62 -37 OFFCURVE",
"51 -64 OFFCURVE",
"10 -64 CURVE SMOOTH",
"-4 -64 OFFCURVE",
"-14 -62 OFFCURVE",
"-25 -58 CURVE",
"-38 -166 LINE",
"-7 -176 OFFCURVE",
"21 -180 OFFCURVE",
"51 -180 CURVE SMOOTH"
);
}
);
width = 252;
}
);
leftKerningGroup = n;
rightKerningGroup = u;
unicode = 0237;
},
{
color = 3;
glyphname = k;
lastChange = "2023-02-13 13:40:19 +0000";
layers = (
{
anchors = (
{
name = bottom;
position = "{249, 0}";
},
{
name = top;
position = "{257, 750}";
}
);
background = {
paths = (
{
closed = 1;
nodes = (
"220 265 LINE",
"350 -16 LINE",
"474 25 LINE",
"319 373 LINE"
);
},
{
closed = 1;
nodes = (
"190 0 LINE",
"190 760 LINE",
"50 743 LINE",
"50 0 LINE"
);
},
{
closed = 1;
nodes = (
"322 560 LINE",
"190 350 LINE",
"190 164 LINE",
"288 314 LINE",
"301 306 LINE",
"463 560 LINE"
);
}
);
};
layerId = "849A9C4C-BF7C-40C5-8614-1FD725A2A379";
paths = (
{
closed = 1;
nodes = (
"190 0 LINE",
"190 164 LINE",
"235 233 LINE",
"350 -16 LINE",
"474 25 LINE",
"329 350 LINE",
"463 560 LINE",
"322 560 LINE",
"190 350 LINE",
"190 760 LINE",
"50 743 LINE",
"50 0 LINE"
);
}
);
width = 474;
}
);
leftKerningGroup = h;
leftMetricsKey = l;
rightKerningGroup = k;
unicode = 006B;
},
{
color = 3;
glyphname = kgreenlandic;
lastChange = "2023-02-13 13:38:10 +0000";
layers = (
{
background = {
paths = (
{
closed = 1;
nodes = (
"461 536 LINE",
"348 581 LINE",
"190 292 LINE",
"190 563 LINE",
"50 563 LINE",
"50 0 LINE",
"190 0 LINE",
"190 131 LINE",
"255 241 LINE",
"289 221 LINE"
);
},
{
closed = 1;
nodes = (
"356 -16 LINE",
"482 29 LINE",
"328 356 LINE",
"221 281 LINE"
);
}
);
};
layerId = "849A9C4C-BF7C-40C5-8614-1FD725A2A379";
paths = (
{
closed = 1;
nodes = (
"190 0 LINE",
"190 164 LINE",
"235 233 LINE",
"350 -16 LINE",
"474 25 LINE",
"329 350 LINE",
"463 560 LINE",
"322 560 LINE",
"190 350 LINE",
"190 568 LINE",
"50 551 LINE",
"50 0 LINE"
);
}
);
width = 474;
}
);
leftKerningGroup = n;
leftMetricsKey = n;
rightKerningGroup = k;
rightMetricsKey = k;
unicode = 0138;
},
{
color = 3;
glyphname = l;
lastChange = "2023-02-14 12:15:07 +0000";
layers = (
{
anchors = (
{
name = bottom;
position = "{119, 0}";
},
{
name = center;
position = "{119, 281}";
},
{
name = top;
position = "{120, 750}";
},
{
name = topright;
position = "{240, 750}";
}
);
background = {
anchors = (
{
name = bottom;
position = "{119, 0}";
},
{
name = center;
position = "{119, 281}";
},
{
name = top;
position = "{119, 753}";
},
{
name = topright;
position = "{241, 538}";
}
);
paths = (
{
closed = 1;
nodes = (
"190 0 LINE",
"190 768 LINE",
"50 751 LINE",
"50 0 LINE"
);
}
);
};
layerId = "849A9C4C-BF7C-40C5-8614-1FD725A2A379";
paths = (
{
closed = 1;
nodes = (
"190 0 LINE",
"190 760 LINE",
"50 743 LINE",
"50 0 LINE"
);
}
);
width = 240;
}
);
leftKerningGroup = h;
rightKerningGroup = l;
unicode = 006C;
},
{
color = 4;
glyphname = lslash;
lastChange = "2023-02-13 16:05:44 +0000";
layers = (
{
layerId = "849A9C4C-BF7C-40C5-8614-1FD725A2A379";
paths = (
{
closed = 1;
nodes = (
"240 0 LINE",
"240 760 LINE",
"100 743 LINE",
"100 0 LINE"
);
},
{
closed = 1;
nodes = (
"343 454 LINE",
"324 567 LINE",
"10 327 LINE",
"29 214 LINE"
);
}
);
width = 340;
}
);
leftKerningGroup = lslash;
rightKerningGroup = lslash;
unicode = 0142;
},
{
color = 4;
glyphname = m;
lastChange = "2023-02-09 13:56:47 +0000";
layers = (
{
anchors = (
{
name = bottom;
position = "{370, 0}";
},
{
name = top;
position = "{370, 560}";
}
);
background = {
paths = (
{
closed = 1;
nodes = (
"440 334 LINE",
"440 401 OFFCURVE",
"469 447 OFFCURVE",
"508 447 CURVE SMOOTH",
"541 447 OFFCURVE",
"550 424 OFFCURVE",
"550 387 CURVE SMOOTH",
"550 0 LINE",
"690 0 LINE",
"690 410 LINE SMOOTH",
"690 503 OFFCURVE",
"664 570 OFFCURVE",
"572 570 CURVE SMOOTH",
"497 570 OFFCURVE",
"448 513 OFFCURVE",
"427 431 CURVE"
);
},
{
closed = 1;
nodes = (
"440 495 OFFCURVE",
"402 570 OFFCURVE",
"323 570 CURVE SMOOTH",
"252 570 OFFCURVE",
"205 517 OFFCURVE",
"184 437 CURVE",
"190 323 LINE",
"190 401 OFFCURVE",
"219 447 OFFCURVE",
"262 447 CURVE SMOOTH",
"289 447 OFFCURVE",
"300 428 OFFCURVE",
"300 386 CURVE SMOOTH",
"300 0 LINE",
"440 0 LINE",
"440 421 LINE"
);
},
{
closed = 1;
nodes = (
"184 432 LINE",
"184 564 LINE",
"50 547 LINE",
"50 0 LINE",
"190 0 LINE",
"190 390 LINE"
);
}
);
};
layerId = "849A9C4C-BF7C-40C5-8614-1FD725A2A379";
paths = (
{
closed = 1;
nodes = (
"190 0 LINE",
"190 323 LINE SMOOTH",
"190 401 OFFCURVE",
"219 447 OFFCURVE",
"262 447 CURVE SMOOTH",
"289 447 OFFCURVE",
"300 428 OFFCURVE",
"300 386 CURVE SMOOTH",
"300 0 LINE",
"440 0 LINE",
"440 334 LINE SMOOTH",
"440 401 OFFCURVE",
"469 447 OFFCURVE",
"508 447 CURVE SMOOTH",
"541 447 OFFCURVE",
"550 424 OFFCURVE",
"550 387 CURVE SMOOTH",
"550 0 LINE",
"690 0 LINE",
"690 410 LINE SMOOTH",
"690 503 OFFCURVE",
"664 570 OFFCURVE",
"572 570 CURVE SMOOTH",
"506 570 OFFCURVE",
"461 526 OFFCURVE",
"436 461 CURVE",
"425 520 OFFCURVE",
"388 570 OFFCURVE",
"323 570 CURVE SMOOTH",
"252 570 OFFCURVE",
"205 517 OFFCURVE",
"184 437 CURVE",
"184 564 LINE",
"50 547 LINE",
"50 0 LINE"
);
}
);
width = 735;
}
);
leftKerningGroup = n;
leftMetricsKey = n;
rightKerningGroup = n;
rightMetricsKey = n;
unicode = 006D;
},
{
color = 3;
glyphname = n;
lastChange = "2023-02-13 13:35:56 +0000";
layers = (
{
anchors = (
{
name = bottom;
position = "{257, 0}";
},
{
name = top;
position = "{257, 560}";
}
);
background = {
anchors = (
{
name = bottom;
position = "{259, 0}";
},
{
name = top;
position = "{259, 563}";
}
);
components = (
{
name = n_arch;
transform = "{1, 0, 0, 1, 190, 0}";
}
);
paths = (
{
closed = 1;
nodes = (
"184 390 LINE",
"184 564 LINE",
"50 547 LINE",
"50 0 LINE",
"190 0 LINE",
"190 390 LINE"
);
}
);
};
layerId = "849A9C4C-BF7C-40C5-8614-1FD725A2A379";
paths = (
{
closed = 1;
nodes = (
"190 0 LINE",
"190 287 LINE SMOOTH",
"190 382 OFFCURVE",
"222 454 OFFCURVE",
"269 454 CURVE SMOOTH",
"318 454 OFFCURVE",
"324 408 OFFCURVE",
"324 348 CURVE SMOOTH",
"324 0 LINE",
"464 0 LINE",
"464 404 LINE SMOOTH",
"464 521 OFFCURVE",
"413 573 OFFCURVE",
"334 573 CURVE SMOOTH",
"262 573 OFFCURVE",
"205 532 OFFCURVE",
"184 440 CURVE",
"184 564 LINE",
"50 547 LINE",
"50 0 LINE"
);
}
);
width = 509;
}
);
leftKerningGroup = n;
rightKerningGroup = n;
unicode = 006E;
},
{
color = 4;
glyphname = eng;
lastChange = "2023-02-09 13:56:47 +0000";
layers = (
{
background = {
paths = (
{
closed = 1;
nodes = (
"190 0 LINE",
"190 287 LINE SMOOTH",
"190 382 OFFCURVE",
"222 454 OFFCURVE",
"269 454 CURVE SMOOTH",
"318 454 OFFCURVE",
"324 408 OFFCURVE",
"324 348 CURVE SMOOTH",
"324 0 LINE",
"464 0 LINE",
"464 404 LINE SMOOTH",
"464 521 OFFCURVE",
"413 573 OFFCURVE",
"334 573 CURVE SMOOTH",
"262 573 OFFCURVE",
"205 532 OFFCURVE",
"184 440 CURVE",
"184 564 LINE",
"50 547 LINE",
"50 0 LINE"
);
}
);
};
layerId = "849A9C4C-BF7C-40C5-8614-1FD725A2A379";
paths = (
{
closed = 1;
nodes = (
"262 573 OFFCURVE",
"205 532 OFFCURVE",
"184 440 CURVE",
"184 564 LINE",
"50 547 LINE",
"50 0 LINE",
"190 0 LINE",
"190 287 LINE SMOOTH",
"190 382 OFFCURVE",
"222 454 OFFCURVE",
"269 454 CURVE SMOOTH",
"318 454 OFFCURVE",
"324 408 OFFCURVE",
"324 347 CURVE SMOOTH",
"324 33 LINE SMOOTH",
"324 -25 OFFCURVE",
"313 -52 OFFCURVE",
"272 -52 CURVE SMOOTH",
"258 -52 OFFCURVE",
"248 -50 OFFCURVE",
"237 -46 CURVE",
"214 -154 LINE",
"245 -164 OFFCURVE",
"273 -168 OFFCURVE",
"303 -168 CURVE SMOOTH",
"406 -168 OFFCURVE",
"464 -96 OFFCURVE",
"464 0 CURVE SMOOTH",
"464 404 LINE SMOOTH",
"464 521 OFFCURVE",
"413 573 OFFCURVE",
"334 573 CURVE SMOOTH"
);
}
);
width = 509;
}
);
leftKerningGroup = n;
leftMetricsKey = n;
rightKerningGroup = n;
rightMetricsKey = n;
unicode = 014B;
},
{
color = 3;
glyphname = o;
lastChange = "2023-02-13 13:35:41 +0000";
layers = (
{
anchors = (
{
name = bottom;
position = "{242, 0}";
},
{
name = center;
position = "{243, 281}";
},
{
name = ogonek;
position = "{316, 0}";
},
{
name = top;
position = "{242, 560}";
},
{
name = topright;
position = "{369, 484}";
}
);
background = {
anchors = (
{
name = bottom;
position = "{242, 0}";
},
{
name = center;
position = "{243, 281}";
},
{
name = ogonek;
position = "{420, 5}";
},
{
name = top;
position = "{242, 563}";
},
{
name = topright;
position = "{478, 563}";
}
);
paths = (
{
closed = 1;
nodes = (
"377 -13 OFFCURVE",
"456 94 OFFCURVE",
"456 279 CURVE SMOOTH",
"456 456 OFFCURVE",
"377 570 OFFCURVE",
"242 570 CURVE SMOOTH",
"106 570 OFFCURVE",
"30 454 OFFCURVE",
"30 279 CURVE SMOOTH",
"30 95 OFFCURVE",
"107 -13 OFFCURVE",
"242 -13 CURVE SMOOTH"
);
},
{
closed = 1;
nodes = (
"183 90 OFFCURVE",
"173 183 OFFCURVE",
"173 279 CURVE SMOOTH",
"173 362 OFFCURVE",
"182 467 OFFCURVE",
"242 467 CURVE SMOOTH",
"302 467 OFFCURVE",
"313 361 OFFCURVE",
"313 279 CURVE SMOOTH",
"313 183 OFFCURVE",
"302 90 OFFCURVE",
"242 90 CURVE SMOOTH"
);
}
);
};
layerId = "849A9C4C-BF7C-40C5-8614-1FD725A2A379";
paths = (
{
closed = 1;
nodes = (
"377 -13 OFFCURVE",
"456 94 OFFCURVE",
"456 279 CURVE SMOOTH",
"456 456 OFFCURVE",
"377 570 OFFCURVE",
"242 570 CURVE SMOOTH",
"106 570 OFFCURVE",
"30 454 OFFCURVE",
"30 279 CURVE SMOOTH",
"30 95 OFFCURVE",
"107 -13 OFFCURVE",
"242 -13 CURVE SMOOTH"
);
},
{
closed = 1;
nodes = (
"183 90 OFFCURVE",
"173 183 OFFCURVE",
"173 279 CURVE SMOOTH",
"173 362 OFFCURVE",
"182 467 OFFCURVE",
"242 467 CURVE SMOOTH",
"302 467 OFFCURVE",
"313 361 OFFCURVE",
"313 279 CURVE SMOOTH",
"313 183 OFFCURVE",
"302 90 OFFCURVE",
"242 90 CURVE SMOOTH"
);
}
);
width = 486;
}
);
leftKerningGroup = o;
rightKerningGroup = o;
unicode = 006F;
},
{
color = 4;
glyphname = oslash;
lastChange = "2023-02-09 13:51:27 +0000";
layers = (
{
anchors = (
{
name = bottom;
position = "{247, 0}";
},
{
name = center;
position = "{248, 281}";
},
{
name = ogonek;
position = "{425, 5}";
},
{
name = top;
position = "{247, 560}";
},
{
name = topright;
position = "{483, 560}";
}
);
background = {
paths = (
{
closed = 1;
nodes = (
"483 517 LINE",
"421 569 LINE",
"349 479 LINE",
"354 475 LINE",
"95 147 LINE",
"93 149 LINE",
"12 47 LINE",
"75 -5 LINE",
"155 97 LINE",
"149 102 LINE",
"408 428 LINE",
"411 426 LINE"
);
},
{
closed = 1;
nodes = (
"385 -13 OFFCURVE",
"461 104 OFFCURVE",
"461 282 CURVE SMOOTH",
"461 442 OFFCURVE",
"385 570 OFFCURVE",
"247 570 CURVE SMOOTH",
"107 570 OFFCURVE",
"35 446 OFFCURVE",
"35 282 CURVE SMOOTH",
"35 108 OFFCURVE",
"112 -13 OFFCURVE",
"247 -13 CURVE SMOOTH"
);
},
{
closed = 1;
nodes = (
"188 90 OFFCURVE",
"178 183 OFFCURVE",
"178 279 CURVE SMOOTH",
"178 362 OFFCURVE",
"187 467 OFFCURVE",
"247 467 CURVE SMOOTH",
"307 467 OFFCURVE",
"318 361 OFFCURVE",
"318 279 CURVE SMOOTH",
"318 183 OFFCURVE",
"307 90 OFFCURVE",
"247 90 CURVE SMOOTH"
);
}
);
};
layerId = "849A9C4C-BF7C-40C5-8614-1FD725A2A379";
paths = (
{
closed = 1;
nodes = (
"385 -13 OFFCURVE",
"461 104 OFFCURVE",
"461 282 CURVE SMOOTH",
"461 344 OFFCURVE",
"450 401 OFFCURVE",
"428 447 CURVE",
"483 517 LINE",
"421 569 LINE",
"380 517 LINE",
"345 550 OFFCURVE",
"301 570 OFFCURVE",
"247 570 CURVE SMOOTH",
"107 570 OFFCURVE",
"35 446 OFFCURVE",
"35 282 CURVE SMOOTH",
"35 218 OFFCURVE",
"45 161 OFFCURVE",
"66 114 CURVE",
"12 47 LINE",
"75 -5 LINE",
"112 43 LINE",
"147 7 OFFCURVE",
"192 -13 OFFCURVE",
"247 -13 CURVE SMOOTH"
);
},
{
closed = 1;
nodes = (
"178 362 OFFCURVE",
"187 467 OFFCURVE",
"247 467 CURVE SMOOTH",
"275 467 OFFCURVE",
"293 444 OFFCURVE",
"303 410 CURVE",
"178 252 LINE",
"178 279 LINE SMOOTH"
);
},
{
closed = 1;
nodes = (
"317 314 LINE",
"318 302 OFFCURVE",
"318 290 OFFCURVE",
"318 279 CURVE SMOOTH",
"318 183 OFFCURVE",
"307 90 OFFCURVE",
"247 90 CURVE SMOOTH",
"216 90 OFFCURVE",
"199 115 OFFCURVE",
"189 153 CURVE"
);
}
);
width = 495;
}
);
leftKerningGroup = o;
rightKerningGroup = o;
unicode = 00F8;
},
{
color = 3;
glyphname = oe;
lastChange = "2023-02-09 13:51:27 +0000";
layers = (
{
anchors = (
{
name = bottom;
position = "{372, 0}";
},
{
name = top;
position = "{372, 560}";
}
);
background = {
paths = (
{
closed = 1;
nodes = (
"301 -13 OFFCURVE",
"346 16 OFFCURVE",
"379 57 CURVE",
"415 9 OFFCURVE",
"457 -13 OFFCURVE",
"526 -13 CURVE SMOOTH",
"612 -13 OFFCURVE",
"687 39 OFFCURVE",
"710 151 CURVE",
"592 177 LINE",
"585 139 OFFCURVE",
"570 93 OFFCURVE",
"528 93 CURVE SMOOTH",
"470 93 OFFCURVE",
"451 167 OFFCURVE",
"451 248 CURVE",
"711 248 LINE",
"713 279 OFFCURVE",
"714 297 OFFCURVE",
"714 334 CURVE SMOOTH",
"714 414 OFFCURVE",
"690 570 OFFCURVE",
"522 570 CURVE SMOOTH",
"459 570 OFFCURVE",
"405 536 OFFCURVE",
"382 491 CURVE",
"356 536 OFFCURVE",
"298 570 OFFCURVE",
"235 570 CURVE SMOOTH",
"103 570 OFFCURVE",
"30 451 OFFCURVE",
"30 280 CURVE SMOOTH",
"30 108 OFFCURVE",
"103 -13 OFFCURVE",
"237 -13 CURVE SMOOTH"
);
},
{
closed = 1;
nodes = (
"178 91 OFFCURVE",
"171 191 OFFCURVE",
"171 279 CURVE SMOOTH",
"171 359 OFFCURVE",
"178 465 OFFCURVE",
"240 465 CURVE SMOOTH",
"305 465 OFFCURVE",
"311 347 OFFCURVE",
"311 278 CURVE SMOOTH",
"311 210 OFFCURVE",
"308 91 OFFCURVE",
"240 91 CURVE SMOOTH"
);
},
{
closed = 1;
nodes = (
"455 405 OFFCURVE",
"479 464 OFFCURVE",
"522 464 CURVE SMOOTH",
"569 464 OFFCURVE",
"590 412 OFFCURVE",
"587 330 CURVE",
"453 330 LINE"
);
}
);
};
layerId = "849A9C4C-BF7C-40C5-8614-1FD725A2A379";
paths = (
{
closed = 1;
nodes = (
"301 -13 OFFCURVE",
"346 16 OFFCURVE",
"379 57 CURVE",
"415 9 OFFCURVE",
"457 -13 OFFCURVE",
"526 -13 CURVE SMOOTH",
"612 -13 OFFCURVE",
"687 39 OFFCURVE",
"710 151 CURVE",
"592 177 LINE",
"585 139 OFFCURVE",
"570 93 OFFCURVE",
"528 93 CURVE SMOOTH",
"470 93 OFFCURVE",
"451 167 OFFCURVE",
"451 248 CURVE",
"711 248 LINE",
"713 279 OFFCURVE",
"714 297 OFFCURVE",
"714 334 CURVE SMOOTH",
"714 414 OFFCURVE",
"690 570 OFFCURVE",
"522 570 CURVE SMOOTH",
"459 570 OFFCURVE",
"405 536 OFFCURVE",
"382 491 CURVE",
"356 536 OFFCURVE",
"298 570 OFFCURVE",
"235 570 CURVE SMOOTH",
"103 570 OFFCURVE",
"30 451 OFFCURVE",
"30 280 CURVE SMOOTH",
"30 108 OFFCURVE",
"103 -13 OFFCURVE",
"237 -13 CURVE SMOOTH"
);
},
{
closed = 1;
nodes = (
"178 91 OFFCURVE",
"171 191 OFFCURVE",
"171 279 CURVE SMOOTH",
"171 359 OFFCURVE",
"178 465 OFFCURVE",
"240 465 CURVE SMOOTH",
"305 465 OFFCURVE",
"311 347 OFFCURVE",
"311 278 CURVE SMOOTH",
"311 210 OFFCURVE",
"308 91 OFFCURVE",
"240 91 CURVE SMOOTH"
);
},
{
closed = 1;
nodes = (
"455 405 OFFCURVE",
"479 464 OFFCURVE",
"522 464 CURVE SMOOTH",
"569 464 OFFCURVE",
"590 412 OFFCURVE",
"587 330 CURVE",
"453 330 LINE"
);
}
);
width = 744;
}
);
leftKerningGroup = o;
leftMetricsKey = o;
rightKerningGroup = o;
rightMetricsKey = e;
unicode = 0153;
},
{
color = 3;
glyphname = p;
lastChange = "2023-02-09 14:00:09 +0000";
layers = (
{
anchors = (
{
name = top;
position = "{241, 560}";
}
);
background = {
paths = (
{
closed = 1;
nodes = (
"190 -157 LINE",
"190 426 LINE",
"183 426 LINE",
"183 568 LINE",
"50 551 LINE",
"50 -175 LINE"
);
},
{
closed = 1;
nodes = (
"206 91 OFFCURVE",
"190 153 OFFCURVE",
"190 237 CURVE",
"167 149 LINE",
"167 69 OFFCURVE",
"201 -13 OFFCURVE",
"296 -13 CURVE SMOOTH",
"413 -13 OFFCURVE",
"470 115 OFFCURVE",
"470 279 CURVE SMOOTH",
"470 459 OFFCURVE",
"413 570 OFFCURVE",
"303 570 CURVE SMOOTH",
"213 570 OFFCURVE",
"167 503 OFFCURVE",
"167 412 CURVE",
"190 322 LINE",
"190 408 OFFCURVE",
"206 466 OFFCURVE",
"257 466 CURVE SMOOTH",
"307 466 OFFCURVE",
"327 390 OFFCURVE",
"327 278 CURVE SMOOTH",
"327 167 OFFCURVE",
"307 91 OFFCURVE",
"254 91 CURVE SMOOTH"
);
}
);
};
layerId = "849A9C4C-BF7C-40C5-8614-1FD725A2A379";
paths = (
{
closed = 1;
nodes = (
"190 -157 LINE",
"190 48 LINE",
"210 12 OFFCURVE",
"244 -13 OFFCURVE",
"296 -13 CURVE SMOOTH",
"413 -13 OFFCURVE",
"470 115 OFFCURVE",
"470 279 CURVE SMOOTH",
"470 459 OFFCURVE",
"413 570 OFFCURVE",
"303 570 CURVE SMOOTH",
"244 570 OFFCURVE",
"204 541 OFFCURVE",
"183 495 CURVE",
"183 568 LINE",
"50 551 LINE",
"50 -175 LINE"
);
},
{
closed = 1;
nodes = (
"190 322 LINE SMOOTH",
"190 408 OFFCURVE",
"206 466 OFFCURVE",
"257 466 CURVE SMOOTH",
"307 466 OFFCURVE",
"327 390 OFFCURVE",
"327 278 CURVE SMOOTH",
"327 167 OFFCURVE",
"307 91 OFFCURVE",
"254 91 CURVE SMOOTH",
"206 91 OFFCURVE",
"190 153 OFFCURVE",
"190 237 CURVE SMOOTH"
);
}
);
width = 500;
}
);
leftKerningGroup = n;
leftMetricsKey = l;
rightKerningGroup = o;
rightMetricsKey = o;
unicode = 0070;
},
{
color = 3;
glyphname = thorn;
lastChange = "2023-02-09 13:53:37 +0000";
layers = (
{
background = {
paths = (
{
closed = 1;
nodes = (
"190 -158 LINE",
"190 759 LINE",
"50 741 LINE",
"50 -175 LINE"
);
},
{
closed = 1;
nodes = (
"206 91 OFFCURVE",
"190 153 OFFCURVE",
"190 237 CURVE",
"167 149 LINE",
"167 69 OFFCURVE",
"201 -13 OFFCURVE",
"296 -13 CURVE SMOOTH",
"413 -13 OFFCURVE",
"470 115 OFFCURVE",
"470 279 CURVE SMOOTH",
"470 459 OFFCURVE",
"413 570 OFFCURVE",
"303 570 CURVE SMOOTH",
"213 570 OFFCURVE",
"167 503 OFFCURVE",
"167 412 CURVE",
"190 322 LINE",
"190 408 OFFCURVE",
"206 466 OFFCURVE",
"257 466 CURVE SMOOTH",
"307 466 OFFCURVE",
"327 390 OFFCURVE",
"327 278 CURVE SMOOTH",
"327 167 OFFCURVE",
"307 91 OFFCURVE",
"254 91 CURVE SMOOTH"
);
}
);
};
layerId = "849A9C4C-BF7C-40C5-8614-1FD725A2A379";
paths = (
{
closed = 1;
nodes = (
"190 -158 LINE",
"190 48 LINE",
"210 12 OFFCURVE",
"244 -13 OFFCURVE",
"296 -13 CURVE SMOOTH",
"413 -13 OFFCURVE",
"470 115 OFFCURVE",
"470 279 CURVE SMOOTH",
"470 459 OFFCURVE",
"413 570 OFFCURVE",
"303 570 CURVE SMOOTH",
"250 570 OFFCURVE",
"212 547 OFFCURVE",
"190 509 CURVE",
"190 759 LINE",
"50 741 LINE",
"50 -175 LINE"
);
},
{
closed = 1;
nodes = (
"190 322 LINE SMOOTH",
"190 408 OFFCURVE",
"206 466 OFFCURVE",
"257 466 CURVE SMOOTH",
"307 466 OFFCURVE",
"327 390 OFFCURVE",
"327 278 CURVE SMOOTH",
"327 167 OFFCURVE",
"307 91 OFFCURVE",
"254 91 CURVE SMOOTH",
"206 91 OFFCURVE",
"190 153 OFFCURVE",
"190 237 CURVE SMOOTH"
);
}
);
width = 500;
}
);
leftKerningGroup = h;
leftMetricsKey = h;
rightKerningGroup = o;
rightMetricsKey = p;
unicode = 00FE;
},
{
color = 3;
glyphname = q;
lastChange = "2023-02-09 13:57:33 +0000";
layers = (
{
anchors = (
{
name = bottom;
position = "{264, 0}";
},
{
name = top;
position = "{264, 560}";
}
);
background = {
paths = (
{
closed = 1;
nodes = (
"450 563 LINE",
"320 563 LINE",
"320 423 LINE",
"310 423 LINE",
"310 -175 LINE",
"450 -158 LINE"
);
},
{
closed = 1;
nodes = (
"294 466 OFFCURVE",
"310 404 OFFCURVE",
"310 320 CURVE",
"333 408 LINE",
"333 488 OFFCURVE",
"299 570 OFFCURVE",
"204 570 CURVE SMOOTH",
"87 570 OFFCURVE",
"30 442 OFFCURVE",
"30 278 CURVE SMOOTH",
"30 98 OFFCURVE",
"87 -13 OFFCURVE",
"197 -13 CURVE SMOOTH",
"287 -13 OFFCURVE",
"333 54 OFFCURVE",
"333 145 CURVE",
"310 235 LINE",
"310 149 OFFCURVE",
"294 91 OFFCURVE",
"243 91 CURVE SMOOTH",
"193 91 OFFCURVE",
"173 167 OFFCURVE",
"173 279 CURVE SMOOTH",
"173 390 OFFCURVE",
"193 466 OFFCURVE",
"246 466 CURVE SMOOTH"
);
}
);
};
layerId = "849A9C4C-BF7C-40C5-8614-1FD725A2A379";
paths = (
{
closed = 1;
nodes = (
"450 563 LINE",
"320 563 LINE",
"320 487 LINE",
"303 534 OFFCURVE",
"267 570 OFFCURVE",
"204 570 CURVE SMOOTH",
"87 570 OFFCURVE",
"30 442 OFFCURVE",
"30 278 CURVE SMOOTH",
"30 98 OFFCURVE",
"87 -13 OFFCURVE",
"197 -13 CURVE SMOOTH",
"250 -13 OFFCURVE",
"288 10 OFFCURVE",
"310 48 CURVE",
"310 -175 LINE",
"450 -158 LINE"
);
},
{
closed = 1;
nodes = (
"173 390 OFFCURVE",
"193 466 OFFCURVE",
"246 466 CURVE SMOOTH",
"294 466 OFFCURVE",
"310 404 OFFCURVE",
"310 320 CURVE SMOOTH",
"310 235 LINE SMOOTH",
"310 149 OFFCURVE",
"294 91 OFFCURVE",
"243 91 CURVE SMOOTH",
"193 91 OFFCURVE",
"173 167 OFFCURVE",
"173 279 CURVE SMOOTH"
);
}
);
width = 500;
}
);
leftKerningGroup = o;
leftMetricsKey = o;
rightKerningGroup = u;
rightMetricsKey = l;
unicode = 0071;
},
{
color = 3;
glyphname = r;
lastChange = "2023-02-14 14:21:02 +0000";
layers = (
{
anchors = (
{
name = bottom;
position = "{120, 0}";
},
{
name = top;
position = "{212, 560}";
}
);
background = {
paths = (
{
closed = 1;
nodes = (
"184 401 LINE",
"184 563 LINE",
"50 547 LINE",
"50 0 LINE",
"190 0 LINE",
"190 401 LINE"
);
},
{
closed = 1;
nodes = (
"190 360 OFFCURVE",
"235 429 OFFCURVE",
"290 429 CURVE SMOOTH",
"313 429 OFFCURVE",
"325 424 OFFCURVE",
"343 414 CURVE",
"373 551 LINE",
"354 565 OFFCURVE",
"337 570 OFFCURVE",
"310 570 CURVE SMOOTH",
"246 570 OFFCURVE",
"189 496 OFFCURVE",
"180 395 CURVE",
"190 271 LINE"
);
}
);
};
layerId = "849A9C4C-BF7C-40C5-8614-1FD725A2A379";
paths = (
{
closed = 1;
nodes = (
"190 360 OFFCURVE",
"235 429 OFFCURVE",
"290 429 CURVE SMOOTH",
"313 429 OFFCURVE",
"325 424 OFFCURVE",
"343 414 CURVE",
"373 551 LINE",
"354 565 OFFCURVE",
"337 570 OFFCURVE",
"310 570 CURVE SMOOTH",
"252 570 OFFCURVE",
"200 510 OFFCURVE",
"184 424 CURVE",
"184 563 LINE",
"50 547 LINE",
"50 0 LINE",
"190 0 LINE",
"190 271 LINE SMOOTH"
);
}
);
width = 365;
}
);
leftKerningGroup = n;
leftMetricsKey = n;
rightKerningGroup = r;
unicode = 0072;
},
{
color = 3;
glyphname = s;
lastChange = "2023-02-13 13:38:35 +0000";
layers = (
{
anchors = (
{
name = bottom;
position = "{214, 0}";
},
{
name = top;
position = "{214, 560}";
}
);
background = {
paths = (
{
closed = 1;
nodes = (
"319 -15 OFFCURVE",
"401 55 OFFCURVE",
"401 155 CURVE SMOOTH",
"401 222 OFFCURVE",
"371 266 OFFCURVE",
"295 309 CURVE SMOOTH",
"219 353 LINE SMOOTH",
"181 375 OFFCURVE",
"160 386 OFFCURVE",
"160 419 CURVE SMOOTH",
"160 445 OFFCURVE",
"181 470 OFFCURVE",
"216 470 CURVE SMOOTH",
"250 470 OFFCURVE",
"273 443 OFFCURVE",
"275 393 CURVE",
"386 417 LINE",
"380 526 OFFCURVE",
"306 573 OFFCURVE",
"213 573 CURVE SMOOTH",
"106 573 OFFCURVE",
"30 500 OFFCURVE",
"30 408 CURVE SMOOTH",
"30 345 OFFCURVE",
"61 297 OFFCURVE",
"126 258 CURVE SMOOTH",
"207 211 LINE SMOOTH",
"250 186 OFFCURVE",
"270 175 OFFCURVE",
"270 138 CURVE SMOOTH",
"270 108 OFFCURVE",
"248 90 OFFCURVE",
"216 90 CURVE SMOOTH",
"167 90 OFFCURVE",
"141 125 OFFCURVE",
"137 172 CURVE",
"24 160 LINE",
"28 41 OFFCURVE",
"104 -15 OFFCURVE",
"217 -15 CURVE SMOOTH"
);
}
);
};
layerId = "849A9C4C-BF7C-40C5-8614-1FD725A2A379";
paths = (
{
closed = 1;
nodes = (
"319 -13 OFFCURVE",
"401 52 OFFCURVE",
"401 153 CURVE SMOOTH",
"401 222 OFFCURVE",
"371 265 OFFCURVE",
"295 309 CURVE SMOOTH",
"219 353 LINE SMOOTH",
"183 374 OFFCURVE",
"163 388 OFFCURVE",
"163 421 CURVE SMOOTH",
"163 449 OFFCURVE",
"184 470 OFFCURVE",
"214 470 CURVE SMOOTH",
"250 470 OFFCURVE",
"273 443 OFFCURVE",
"275 393 CURVE",
"390 417 LINE",
"382 526 OFFCURVE",
"306 573 OFFCURVE",
"213 573 CURVE SMOOTH",
"102 573 OFFCURVE",
"30 500 OFFCURVE",
"30 408 CURVE SMOOTH",
"30 345 OFFCURVE",
"60 296 OFFCURVE",
"126 258 CURVE SMOOTH",
"207 211 LINE SMOOTH",
"257 182 OFFCURVE",
"269 169 OFFCURVE",
"269 140 CURVE SMOOTH",
"269 108 OFFCURVE",
"247 92 OFFCURVE",
"216 92 CURVE SMOOTH",
"167 92 OFFCURVE",
"141 125 OFFCURVE",
"137 172 CURVE",
"20 160 LINE",
"28 45 OFFCURVE",
"104 -13 OFFCURVE",
"217 -13 CURVE SMOOTH"
);
}
);
width = 416;
}
);
leftKerningGroup = s;
rightKerningGroup = s;
unicode = 0073;
},
{
color = 3;
glyphname = germandbls;
lastChange = "2023-02-13 13:38:39 +0000";
layers = (
{
background = {
components = (
{
name = s;
transform = "{1, 0, 0, 1, 184, 0}";
}
);
};
layerId = "849A9C4C-BF7C-40C5-8614-1FD725A2A379";
paths = (
{
closed = 1;
nodes = (
"231 -8 LINE",
"249 -13 OFFCURVE",
"267 -15 OFFCURVE",
"289 -15 CURVE SMOOTH",
"425 -15 OFFCURVE",
"505 67 OFFCURVE",
"505 195 CURVE SMOOTH",
"505 291 OFFCURVE",
"462 348 OFFCURVE",
"386 384 CURVE",
"447 422 OFFCURVE",
"474 489 OFFCURVE",
"474 560 CURVE SMOOTH",
"474 687 OFFCURVE",
"395 766 OFFCURVE",
"266 766 CURVE SMOOTH",
"129 766 OFFCURVE",
"50 685 OFFCURVE",
"50 551 CURVE SMOOTH",
"50 -97 LINE",
"190 -80 LINE",
"190 568 LINE SMOOTH",
"190 618 OFFCURVE",
"215 651 OFFCURVE",
"263 651 CURVE SMOOTH",
"309 651 OFFCURVE",
"338 620 OFFCURVE",
"338 552 CURVE SMOOTH",
"338 489 OFFCURVE",
"309 435 OFFCURVE",
"239 428 CURVE",
"239 336 LINE",
"333 326 OFFCURVE",
"369 279 OFFCURVE",
"369 205 CURVE SMOOTH",
"369 145 OFFCURVE",
"344 99 OFFCURVE",
"272 99 CURVE SMOOTH",
"260 99 OFFCURVE",
"250 100 OFFCURVE",
"236 103 CURVE"
);
}
);
width = 532;
}
);
leftKerningGroup = h;
leftMetricsKey = l;
rightKerningGroup = germ;
unicode = 00DF;
},
{
color = 4;
glyphname = schwa;
lastChange = "2023-02-09 14:01:14 +0000";
layers = (
{
anchors = (
{
name = bottom;
position = "{237, -5}";
},
{
name = ogonek;
position = "{74, 553}";
},
{
name = top;
position = "{237, 555}";
}
);
background = {
paths = (
{
closed = 1;
nodes = (
"129 571 OFFCURVE",
"54 503 OFFCURVE",
"35 402 CURVE",
"158 379 LINE",
"164 422 OFFCURVE",
"184 467 OFFCURVE",
"233 467 CURVE SMOOTH",
"283 467 OFFCURVE",
"304 383 OFFCURVE",
"304 296 CURVE",
"37 296 LINE",
"34 277 OFFCURVE",
"33 248 OFFCURVE",
"33 215 CURVE SMOOTH",
"33 89 OFFCURVE",
"95 -12 OFFCURVE",
"228 -12 CURVE SMOOTH",
"361 -12 OFFCURVE",
"439 107 OFFCURVE",
"439 280 CURVE SMOOTH",
"439 462 OFFCURVE",
"371 571 OFFCURVE",
"228 571 CURVE SMOOTH"
);
},
{
closed = 1;
nodes = (
"303 150 OFFCURVE",
"281 92 OFFCURVE",
"230 92 CURVE SMOOTH",
"184 92 OFFCURVE",
"156 142 OFFCURVE",
"156 206 CURVE SMOOTH",
"156 209 OFFCURVE",
"156 214 OFFCURVE",
"157 220 CURVE",
"302 220 LINE"
);
}
);
};
layerId = "849A9C4C-BF7C-40C5-8614-1FD725A2A379";
paths = (
{
closed = 1;
nodes = (
"124 570 OFFCURVE",
"51 497 OFFCURVE",
"34 403 CURVE",
"154 378 LINE",
"160 425 OFFCURVE",
"176 464 OFFCURVE",
"221 464 CURVE SMOOTH",
"290 464 OFFCURVE",
"293 359 OFFCURVE",
"293 278 CURVE",
"315 312 LINE",
"40 312 LINE",
"33 278 OFFCURVE",
"30 253 OFFCURVE",
"30 221 CURVE SMOOTH",
"30 88 OFFCURVE",
"88 -13 OFFCURVE",
"224 -13 CURVE SMOOTH",
"356 -13 OFFCURVE",
"434 109 OFFCURVE",
"434 281 CURVE SMOOTH",
"434 444 OFFCURVE",
"374 570 OFFCURVE",
"223 570 CURVE SMOOTH"
);
},
{
closed = 1;
nodes = (
"293 190 OFFCURVE",
"284 88 OFFCURVE",
"221 88 CURVE SMOOTH",
"171 88 OFFCURVE",
"159 157 OFFCURVE",
"159 215 CURVE SMOOTH",
"159 267 LINE",
"137 233 LINE",
"315 233 LINE",
"293 267 LINE"
);
}
);
width = 464;
}
);
leftKerningGroup = o;
leftMetricsKey = "=|e";
rightKerningGroup = o;
rightMetricsKey = o;
unicode = 0259;
},
{
color = 3;
glyphname = t;
lastChange = "2023-02-13 13:41:57 +0000";
layers = (
{
anchors = (
{
name = bottom;
position = "{178, 0}";
},
{
name = center;
position = "{166, 281}";
},
{
name = top;
position = "{166, 560}";
},
{
name = topright;
position = "{268, 840}";
}
);
background = {
paths = (
{
closed = 1;
nodes = (
"261 -10 OFFCURVE",
"288 -4 OFFCURVE",
"312 7 CURVE",
"324 109 LINE",
"309 106 OFFCURVE",
"297 104 OFFCURVE",
"280 104 CURVE SMOOTH",
"241 104 OFFCURVE",
"218 127 OFFCURVE",
"218 178 CURVE SMOOTH",
"218 706 LINE",
"98 691 LINE",
"77 514 LINE",
"77 140 LINE SMOOTH",
"77 38 OFFCURVE",
"137 -10 OFFCURVE",
"225 -10 CURVE SMOOTH"
);
},
{
closed = 1;
nodes = (
"315 455 LINE",
"328 560 LINE",
"10 560 LINE",
"10 455 LINE"
);
}
);
};
layerId = "849A9C4C-BF7C-40C5-8614-1FD725A2A379";
paths = (
{
closed = 1;
nodes = (
"261 -10 OFFCURVE",
"288 -4 OFFCURVE",
"312 7 CURVE",
"324 109 LINE",
"309 106 OFFCURVE",
"297 104 OFFCURVE",
"280 104 CURVE SMOOTH",
"241 104 OFFCURVE",
"218 127 OFFCURVE",
"218 178 CURVE SMOOTH",
"218 455 LINE",
"315 455 LINE",
"328 560 LINE",
"218 560 LINE",
"218 706 LINE",
"98 691 LINE",
"82 560 LINE",
"10 560 LINE",
"10 455 LINE",
"77 455 LINE",
"77 140 LINE SMOOTH",
"77 38 OFFCURVE",
"137 -10 OFFCURVE",
"225 -10 CURVE SMOOTH"
);
}
);
width = 345;
}
);
leftKerningGroup = t;
rightKerningGroup = t;
unicode = 0074;
},
{
color = 4;
glyphname = u;
lastChange = "2023-02-13 12:36:56 +0000";
layers = (
{
anchors = (
{
name = bottom;
position = "{248, 0}";
},
{
name = ogonek;
position = "{454, 0}";
},
{
name = top;
position = "{250, 560}";
},
{
name = topright;
position = "{454, 484}";
}
);
background = {
paths = (
{
closed = 1;
nodes = (
"314 560 LINE",
"314 136 LINE",
"317 122 LINE",
"317 0 LINE",
"454 0 LINE",
"454 560 LINE"
);
},
{
closed = 1;
nodes = (
"314 273 LINE",
"314 178 OFFCURVE",
"283 106 OFFCURVE",
"238 106 CURVE SMOOTH",
"191 106 OFFCURVE",
"185 152 OFFCURVE",
"185 212 CURVE SMOOTH",
"185 560 LINE",
"45 560 LINE",
"45 156 LINE SMOOTH",
"45 39 OFFCURVE",
"95 -13 OFFCURVE",
"173 -13 CURVE SMOOTH",
"248 -13 OFFCURVE",
"308 34 OFFCURVE",
"324 142 CURVE"
);
}
);
};
layerId = "849A9C4C-BF7C-40C5-8614-1FD725A2A379";
paths = (
{
closed = 1;
nodes = (
"314 547 LINE",
"314 273 LINE SMOOTH",
"314 178 OFFCURVE",
"283 106 OFFCURVE",
"238 106 CURVE SMOOTH",
"191 106 OFFCURVE",
"185 152 OFFCURVE",
"185 212 CURVE SMOOTH",
"185 564 LINE",
"45 547 LINE",
"45 156 LINE SMOOTH",
"45 39 OFFCURVE",
"95 -13 OFFCURVE",
"173 -13 CURVE SMOOTH",
"240 -13 OFFCURVE",
"294 24 OFFCURVE",
"317 108 CURVE",
"317 0 LINE",
"454 0 LINE",
"454 564 LINE"
);
}
);
width = 504;
}
);
leftKerningGroup = u;
leftMetricsKey = "=|n";
rightKerningGroup = u;
rightMetricsKey = l;
unicode = 0075;
},
{
color = 3;
glyphname = v;
lastChange = "2023-02-13 13:44:25 +0000";
layers = (
{
anchors = (
{
name = bottom;
position = "{222, 0}";
},
{
name = top;
position = "{225, 560}";
}
);
background = {
anchors = (
{
name = bottom;
position = "{222, 0}";
},
{
name = top;
position = "{225, 563}";
}
);
paths = (
{
closed = 1;
nodes = (
"293 0 LINE",
"431 563 LINE",
"310 565 LINE",
"222 172 LINE",
"142 569 LINE",
"10 553 LINE",
"146 0 LINE"
);
}
);
};
layerId = "849A9C4C-BF7C-40C5-8614-1FD725A2A379";
paths = (
{
closed = 1;
nodes = (
"293 0 LINE",
"431 560 LINE",
"310 560 LINE",
"222 172 LINE",
"142 569 LINE",
"10 552 LINE",
"146 0 LINE"
);
}
);
width = 441;
}
);
leftKerningGroup = v;
rightKerningGroup = v;
unicode = 0076;
},
{
color = 3;
glyphname = w;
lastChange = "2023-02-09 14:01:44 +0000";
layers = (
{
anchors = (
{
name = bottom;
position = "{322, 0}";
},
{
name = top;
position = "{328, 560}";
}
);
background = {
paths = (
{
closed = 1;
nodes = (
"262 0 LINE",
"316 330 LINE",
"323 392 LINE",
"329 330 LINE",
"381 0 LINE",
"515 0 LINE",
"627 560 LINE",
"512 560 LINE",
"449 167 LINE",
"442 228 LINE",
"389 560 LINE",
"266 560 LINE",
"210 221 LINE",
"202 160 LINE",
"145 569 LINE",
"13 552 LINE",
"125 0 LINE"
);
}
);
};
layerId = "849A9C4C-BF7C-40C5-8614-1FD725A2A379";
paths = (
{
closed = 1;
nodes = (
"262 0 LINE",
"323 372 LINE",
"381 0 LINE",
"515 0 LINE",
"627 560 LINE",
"512 560 LINE",
"450 173 LINE",
"389 560 LINE",
"266 560 LINE",
"201 164 LINE",
"145 569 LINE",
"13 552 LINE",
"125 0 LINE"
);
}
);
width = 640;
}
);
leftKerningGroup = v;
leftMetricsKey = "=v+3";
rightKerningGroup = v;
rightMetricsKey = "=v+3";
unicode = 0077;
},
{
color = 3;
glyphname = x;
lastChange = "2023-02-13 13:44:31 +0000";
layers = (
{
anchors = (
{
name = bottom;
position = "{213, 0}";
},
{
name = top;
position = "{213, 560}";
}
);
background = {
paths = (
{
closed = 1;
nodes = (
"202 332 LINE",
"160 332 LINE",
"10 0 LINE",
"143 0 LINE",
"231 235 LINE",
"275 235 LINE",
"421 560 LINE",
"287 560 LINE"
);
},
{
closed = 1;
nodes = (
"155 232 LINE",
"193 232 LINE",
"291 -15 LINE",
"424 21 LINE",
"269 348 LINE",
"230 348 LINE",
"148 576 LINE",
"15 540 LINE"
);
}
);
};
layerId = "849A9C4C-BF7C-40C5-8614-1FD725A2A379";
paths = (
{
closed = 1;
nodes = (
"219 378 LINE",
"148 576 LINE",
"15 540 LINE",
"135 276 LINE",
"10 0 LINE",
"143 0 LINE",
"212 184 LINE",
"291 -15 LINE",
"424 21 LINE",
"298 287 LINE",
"421 560 LINE",
"287 560 LINE"
);
}
);
width = 434;
}
);
leftKerningGroup = x;
rightKerningGroup = x;
unicode = 0078;
},
{
color = 4;
glyphname = y;
lastChange = "2023-02-13 13:44:34 +0000";
layers = (
{
anchors = (
{
name = bottom;
position = "{359, 49}";
},
{
name = top;
position = "{213, 560}";
}
);
background = {
anchors = (
{
name = bottom;
position = "{1159, 49}";
},
{
name = top;
position = "{1013, 563}";
}
);
paths = (
{
closed = 1;
nodes = (
"145 572 LINE",
"4 553 LINE",
"151 35 LINE",
"151 -13 OFFCURVE",
"117 -51 OFFCURVE",
"68 -51 CURVE SMOOTH",
"52 -51 OFFCURVE",
"39 -49 OFFCURVE",
"24 -42 CURVE",
"0 -155 LINE",
"26 -165 OFFCURVE",
"45 -168 OFFCURVE",
"80 -168 CURVE SMOOTH",
"192 -168 OFFCURVE",
"254 -97 OFFCURVE",
"283 16 CURVE SMOOTH",
"423 564 LINE",
"293 566 LINE",
"232 241 LINE SMOOTH",
"227 217 OFFCURVE",
"223 192 OFFCURVE",
"219 166 CURVE",
"215 192 OFFCURVE",
"210 217 OFFCURVE",
"206 240 CURVE SMOOTH"
);
}
);
};
layerId = "849A9C4C-BF7C-40C5-8614-1FD725A2A379";
paths = (
{
closed = 1;
nodes = (
"142 569 LINE",
"10 552 LINE",
"169 -32 LINE",
"169 77 LINE",
"160 8 LINE SMOOTH",
"154 -40 OFFCURVE",
"129 -54 OFFCURVE",
"88 -54 CURVE SMOOTH",
"65 -54 OFFCURVE",
"45 -44 OFFCURVE",
"30 -33 CURVE",
"7 -143 LINE",
"32 -161 OFFCURVE",
"71 -168 OFFCURVE",
"106 -168 CURVE SMOOTH",
"198 -168 OFFCURVE",
"260 -124 OFFCURVE",
"288 -11 CURVE SMOOTH",
"431 560 LINE",
"310 560 LINE",
"226 172 LINE"
);
}
);
width = 441;
}
);
leftKerningGroup = y;
rightKerningGroup = v;
rightMetricsKey = v;
unicode = 0079;
},
{
color = 4;
glyphname = z;
lastChange = "2023-02-13 12:37:11 +0000";
layers = (
{
anchors = (
{
name = bottom;
position = "{188, 0}";
},
{
name = top;
position = "{203, 560}";
}
);
background = {
anchors = (
{
name = bottom;
position = "{188, 0}";
},
{
name = top;
position = "{203, 563}";
}
);
paths = (
{
closed = 1;
nodes = (
"369 0 LINE",
"382 111 LINE",
"174 111 LINE",
"375 479 LINE",
"365 563 LINE",
"20 563 LINE",
"20 453 LINE",
"219 453 LINE",
"10 88 LINE",
"21 0 LINE"
);
}
);
};
layerId = "849A9C4C-BF7C-40C5-8614-1FD725A2A379";
paths = (
{
closed = 1;
nodes = (
"357 0 LINE",
"374 110 LINE",
"160 110 LINE",
"368 476 LINE",
"368 560 LINE",
"31 560 LINE",
"14 450 LINE",
"222 450 LINE",
"13 88 LINE",
"13 0 LINE"
);
}
);
width = 392;
}
);
leftKerningGroup = z;
rightKerningGroup = z;
unicode = 007A;
},
{
glyphname = Aringacute;
lastChange = "2023-02-09 12:17:42 +0000";
layers = (
{
background = {
components = (
{
name = A;
},
{
name = ring;
transform = "{1, 0, 0, 1, 66, 187}";
}
);
paths = (
{
closed = 1;
nodes = (
"502 1112 LINE",
"399 1207 LINE",
"289 1008 LINE",
"321 981 LINE"
);
}
);
};
components = (
{
name = A;
},
{
name = ringcomb;
transform = "{1, 0, 0, 1, 12, 190}";
},
{
alignment = -1;
name = acutecomb;
transform = "{1, 0, 0, 1, 112, 365}";
}
);
layerId = "849A9C4C-BF7C-40C5-8614-1FD725A2A379";
width = 537;
}
);
leftKerningGroup = A;
rightKerningGroup = A;
unicode = 01FA;
},
{
glyphname = Hbar;
lastChange = "2023-02-10 10:52:13 +0000";
layers = (
{
background = {
components = (
{
name = H;
transform = "{1, 0, 0, 1, 2, 0}";
}
);
paths = (
{
closed = 1;
nodes = (
"562 567 LINE",
"573 656 LINE",
"15 656 LINE",
"15 567 LINE"
);
}
);
};
components = (
{
name = H;
transform = "{1, 0, 0, 1, 2, 0}";
}
);
layerId = "849A9C4C-BF7C-40C5-8614-1FD725A2A379";
paths = (
{
closed = 1;
nodes = (
"562 567 LINE",
"573 656 LINE",
"15 656 LINE",
"15 567 LINE"
);
}
);
width = 598;
}
);
leftKerningGroup = H;
rightKerningGroup = H;
unicode = 0126;
},
{
glyphname = Nhookleft;
lastChange = "2023-02-10 11:11:21 +0000";
layers = (
{
background = {
paths = (
{
closed = 1;
nodes = (
"533 5 LINE",
"533 750 LINE",
"403 750 LINE",
"403 301 LINE",
"193 755 LINE",
"60 739 LINE",
"60 0 LINE",
"190 0 LINE",
"190 465 LINE",
"407 -11 LINE"
);
}
);
};
layerId = "849A9C4C-BF7C-40C5-8614-1FD725A2A379";
paths = (
{
closed = 1;
nodes = (
"403 301 LINE",
"193 755 LINE",
"60 739 LINE",
"60 33 LINE SMOOTH",
"60 -25 OFFCURVE",
"49 -52 OFFCURVE",
"8 -52 CURVE SMOOTH",
"-6 -52 OFFCURVE",
"-16 -50 OFFCURVE",
"-27 -46 CURVE",
"-40 -151 LINE",
"-12 -161 OFFCURVE",
"16 -166 OFFCURVE",
"49 -166 CURVE SMOOTH",
"144 -166 OFFCURVE",
"190 -87 OFFCURVE",
"190 13 CURVE",
"190 465 LINE",
"407 -11 LINE",
"533 5 LINE",
"533 750 LINE",
"403 750 LINE"
);
}
);
width = 593;
}
);
leftKerningGroup = H;
widthMetricsKey = N;
rightKerningGroup = H;
rightMetricsKey = N;
unicode = 019D;
},
{
glyphname = Tbar;
lastChange = "2023-02-10 11:33:33 +0000";
layers = (
{
background = {
components = (
{
name = T;
}
);
paths = (
{
closed = 1;
nodes = (
"366 277 LINE",
"377 371 LINE",
"95 371 LINE",
"95 277 LINE"
);
}
);
};
components = (
{
name = T;
},
{
name = strokeshortcomb;
transform = "{1, 0, 0, 1, -16, 82}";
}
);
layerId = "849A9C4C-BF7C-40C5-8614-1FD725A2A379";
width = 467;
}
);
leftKerningGroup = T;
leftMetricsKey = T;
rightKerningGroup = T;
rightMetricsKey = T;
unicode = 0166;
},
{
color = 0;
export = 0;
glyphname = C.001;
lastChange = "2023-02-02 16:23:56 +0000";
layers = (
{
anchors = (
{
name = bottom;
position = "{269, 0}";
},
{
name = top;
position = "{261, 750}";
}
);
background = {
anchors = (
{
name = bottom;
position = "{269, 0}";
},
{
name = top;
position = "{261, 750}";
}
);
paths = (
{
closed = 1;
nodes = (
"401 -14 OFFCURVE",
"465 70 OFFCURVE",
"497 182 CURVE",
"375 208 LINE",
"361 159 OFFCURVE",
"340 111 OFFCURVE",
"282 111 CURVE SMOOTH",
"192 111 OFFCURVE",
"171 231 OFFCURVE",
"171 378 CURVE SMOOTH",
"171 507 OFFCURVE",
"192 639 OFFCURVE",
"283 639 CURVE SMOOTH",
"336 639 OFFCURVE",
"361 591 OFFCURVE",
"372 535 CURVE",
"501 563 LINE",
"473 685 OFFCURVE",
"407 764 OFFCURVE",
"277 764 CURVE SMOOTH",
"101 764 OFFCURVE",
"20 585 OFFCURVE",
"20 379 CURVE SMOOTH",
"20 158 OFFCURVE",
"93 -14 OFFCURVE",
"277 -14 CURVE SMOOTH"
);
}
);
};
layerId = "849A9C4C-BF7C-40C5-8614-1FD725A2A379";
paths = (
{
closed = 1;
nodes = (
"401 -14 OFFCURVE",
"465 70 OFFCURVE",
"497 182 CURVE",
"375 208 LINE",
"361 159 OFFCURVE",
"340 111 OFFCURVE",
"282 111 CURVE SMOOTH",
"192 111 OFFCURVE",
"171 231 OFFCURVE",
"171 378 CURVE SMOOTH",
"171 507 OFFCURVE",
"192 639 OFFCURVE",
"283 639 CURVE SMOOTH",
"336 639 OFFCURVE",
"361 591 OFFCURVE",
"372 535 CURVE",
"501 563 LINE",
"473 685 OFFCURVE",
"407 764 OFFCURVE",
"277 764 CURVE SMOOTH",
"101 764 OFFCURVE",
"20 585 OFFCURVE",
"20 379 CURVE SMOOTH",
"20 158 OFFCURVE",
"93 -14 OFFCURVE",
"277 -14 CURVE SMOOTH"
);
}
);
width = 522;
}
);
},
{
color = 0;
export = 0;
glyphname = H.001;
lastChange = "2023-02-02 16:23:56 +0000";
layers = (
{
anchors = (
{
name = bottom;
position = "{297, 0}";
},
{
name = center;
position = "{297, 375}";
},
{
name = top;
position = "{297, 750}";
},
{
name = topleft;
position = "{20, 750}";
}
);
background = {
anchors = (
{
name = bottom;
position = "{297, 0}";
},
{
name = center;
position = "{297, 375}";
},
{
name = top;
position = "{297, 750}";
},
{
name = topleft;
position = "{20, 750}";
}
);
paths = (
{
closed = 1;
nodes = (
"216 0 LINE",
"217 309 LINE",
"377 309 LINE",
"377 0 LINE",
"524 0 LINE",
"523 342 OFFCURVE",
"522 609 OFFCURVE",
"524 756 CURVE",
"475 750 OFFCURVE",
"425 746 OFFCURVE",
"377 744 CURVE",
"377 429 LINE",
"217 429 LINE",
"217 756 LINE",
"170 750 OFFCURVE",
"121 746 OFFCURVE",
"70 744 CURVE",
"70 496 OFFCURVE",
"69 248 OFFCURVE",
"69 0 CURVE"
);
}
);
};
layerId = "849A9C4C-BF7C-40C5-8614-1FD725A2A379";
paths = (
{
closed = 1;
nodes = (
"216 0 LINE",
"217 309 LINE",
"377 309 LINE",
"377 0 LINE",
"524 0 LINE",
"523 342 OFFCURVE",
"522 609 OFFCURVE",
"524 756 CURVE",
"475 750 OFFCURVE",
"425 746 OFFCURVE",
"377 744 CURVE",
"377 429 LINE",
"217 429 LINE",
"217 756 LINE",
"170 750 OFFCURVE",
"121 746 OFFCURVE",
"70 744 CURVE",
"70 496 OFFCURVE",
"69 248 OFFCURVE",
"69 0 CURVE"
);
}
);
width = 594;
}
);
},
{
color = 0;
export = 0;
glyphname = M.001;
lastChange = "2023-02-02 16:23:56 +0000";
layers = (
{
anchors = (
{
name = bottom;
position = "{397, 0}";
},
{
name = top;
position = "{397, 750}";
}
);
background = {
anchors = (
{
name = bottom;
position = "{397, 0}";
},
{
name = top;
position = "{397, 750}";
}
);
paths = (
{
closed = 1;
nodes = (
"724 0 LINE",
"724 751 LINE",
"528 750 LINE",
"402 285 LINE",
"274 756 LINE",
"70 731 LINE",
"70 0 LINE",
"202 1 LINE",
"202 566 LINE",
"347 0 LINE",
"437 0 LINE",
"575 563 LINE",
"575 0 LINE"
);
}
);
};
layerId = "849A9C4C-BF7C-40C5-8614-1FD725A2A379";
paths = (
{
closed = 1;
nodes = (
"724 0 LINE",
"724 751 LINE",
"528 750 LINE",
"402 285 LINE",
"274 756 LINE",
"70 731 LINE",
"70 0 LINE",
"202 1 LINE",
"202 566 LINE",
"347 0 LINE",
"437 0 LINE",
"575 563 LINE",
"575 0 LINE"
);
}
);
width = 794;
}
);
},
{
color = 0;
export = 0;
glyphname = M.002;
lastChange = "2023-02-02 16:23:56 +0000";
layers = (
{
anchors = (
{
name = bottom;
position = "{400, 0}";
},
{
name = top;
position = "{400, 750}";
}
);
background = {
anchors = (
{
name = bottom;
position = "{400, 0}";
},
{
name = top;
position = "{400, 750}";
}
);
paths = (
{
closed = 1;
nodes = (
"724 0 LINE",
"724 750 LINE",
"519 750 LINE",
"406 304 LINE",
"267 759 LINE",
"70 735 LINE",
"70 0 LINE",
"190 1 LINE",
"190 507 LINE",
"182 554 LINE",
"343 -3 LINE",
"442 9 LINE",
"584 554 LINE",
"577 509 LINE",
"577 0 LINE"
);
}
);
};
layerId = "849A9C4C-BF7C-40C5-8614-1FD725A2A379";
paths = (
{
closed = 1;
nodes = (
"724 0 LINE",
"724 750 LINE",
"519 750 LINE",
"406 304 LINE",
"267 759 LINE",
"70 735 LINE",
"70 0 LINE",
"190 1 LINE",
"190 507 LINE",
"182 554 LINE",
"343 -3 LINE",
"442 9 LINE",
"584 554 LINE",
"577 509 LINE",
"577 0 LINE"
);
}
);
width = 794;
}
);
},
{
color = 0;
export = 0;
glyphname = O.001;
lastChange = "2023-02-02 16:23:56 +0000";
layers = (
{
anchors = (
{
name = bottom;
position = "{305, 0}";
},
{
name = center;
position = "{305, 375}";
},
{
name = ogonek;
position = "{475, 5}";
},
{
name = top;
position = "{305, 750}";
},
{
name = topleft;
position = "{40, 750}";
},
{
name = topright;
position = "{522, 463}";
}
);
background = {
anchors = (
{
name = bottom;
position = "{305, 0}";
},
{
name = center;
position = "{305, 375}";
},
{
name = ogonek;
position = "{475, 5}";
},
{
name = top;
position = "{305, 750}";
},
{
name = topleft;
position = "{40, 750}";
},
{
name = topright;
position = "{522, 463}";
}
);
paths = (
{
closed = 1;
nodes = (
"468 -14 OFFCURVE",
"559 138 OFFCURVE",
"559 375 CURVE SMOOTH",
"559 612 OFFCURVE",
"468 764 OFFCURVE",
"300 764 CURVE SMOOTH",
"133 764 OFFCURVE",
"42 612 OFFCURVE",
"42 375 CURVE SMOOTH",
"42 138 OFFCURVE",
"133 -14 OFFCURVE",
"300 -14 CURVE SMOOTH"
);
},
{
closed = 1;
nodes = (
"222 114 OFFCURVE",
"194 190 OFFCURVE",
"194 375 CURVE SMOOTH",
"194 559 OFFCURVE",
"222 636 OFFCURVE",
"300 636 CURVE SMOOTH",
"379 636 OFFCURVE",
"407 560 OFFCURVE",
"407 375 CURVE SMOOTH",
"407 190 OFFCURVE",
"379 114 OFFCURVE",
"300 114 CURVE SMOOTH"
);
}
);
};
layerId = "849A9C4C-BF7C-40C5-8614-1FD725A2A379";
paths = (
{
closed = 1;
nodes = (
"468 -14 OFFCURVE",
"559 138 OFFCURVE",
"559 375 CURVE SMOOTH",
"559 612 OFFCURVE",
"468 764 OFFCURVE",
"300 764 CURVE SMOOTH",
"133 764 OFFCURVE",
"42 612 OFFCURVE",
"42 375 CURVE SMOOTH",
"42 138 OFFCURVE",
"133 -14 OFFCURVE",
"300 -14 CURVE SMOOTH"
);
},
{
closed = 1;
nodes = (
"222 114 OFFCURVE",
"194 190 OFFCURVE",
"194 375 CURVE SMOOTH",
"194 559 OFFCURVE",
"222 636 OFFCURVE",
"300 636 CURVE SMOOTH",
"379 636 OFFCURVE",
"407 560 OFFCURVE",
"407 375 CURVE SMOOTH",
"407 190 OFFCURVE",
"379 114 OFFCURVE",
"300 114 CURVE SMOOTH"
);
}
);
width = 599;
}
);
},
{
color = 0;
export = 0;
glyphname = Q.001;
lastChange = "2023-02-02 16:23:56 +0000";
layers = (
{
anchors = (
{
name = bottom;
position = "{275, 0}";
},
{
name = top;
position = "{275, 750}";
}
);
background = {
anchors = (
{
name = bottom;
position = "{275, 0}";
},
{
name = top;
position = "{275, 750}";
}
);
components = (
{
name = O;
}
);
paths = (
{
closed = 1;
nodes = (
"428 -97 LINE",
"381 -66 OFFCURVE",
"346 -20 OFFCURVE",
"345 52 CURVE",
"246 31 LINE",
"246 -54 OFFCURVE",
"271 -127 OFFCURVE",
"338 -176 CURVE"
);
}
);
};
components = (
{
name = O;
}
);
layerId = "849A9C4C-BF7C-40C5-8614-1FD725A2A379";
paths = (
{
closed = 1;
nodes = (
"428 -97 LINE",
"381 -66 OFFCURVE",
"346 -20 OFFCURVE",
"345 52 CURVE",
"246 31 LINE",
"246 -54 OFFCURVE",
"271 -127 OFFCURVE",
"338 -176 CURVE"
);
}
);
width = 549;
}
);
},
{
color = 0;
export = 0;
glyphname = B.ori;
lastChange = "2023-02-02 16:23:56 +0000";
layers = (
{
anchors = (
{
name = bottom;
position = "{276, 0}";
},
{
name = top;
position = "{276, 750}";
}
);
background = {
anchors = (
{
name = bottom;
position = "{276, 0}";
},
{
name = top;
position = "{276, 750}";
}
);
paths = (
{
closed = 1;
nodes = (
"190 0 LINE SMOOTH",
"348 0 OFFCURVE",
"521 35 OFFCURVE",
"521 210 CURVE SMOOTH",
"521 329 OFFCURVE",
"470 372 OFFCURVE",
"417 399 CURVE",
"467 424 OFFCURVE",
"498 484 OFFCURVE",
"498 557 CURVE SMOOTH",
"498 664 OFFCURVE",
"431 750 OFFCURVE",
"238 750 CURVE SMOOTH",
"70 750 LINE",
"70 0 LINE"
);
},
{
closed = 1;
nodes = (
"217 338 LINE",
"249 338 LINE SMOOTH",
"318 338 OFFCURVE",
"380 326 OFFCURVE",
"380 230 CURVE SMOOTH",
"380 186 OFFCURVE",
"351 117 OFFCURVE",
"244 117 CURVE SMOOTH",
"217 117 LINE"
);
},
{
closed = 1;
nodes = (
"212 633 LINE",
"241 633 LINE SMOOTH",
"306 633 OFFCURVE",
"362 617 OFFCURVE",
"362 542 CURVE SMOOTH",
"362 457 OFFCURVE",
"315 445 OFFCURVE",
"247 445 CURVE SMOOTH",
"212 445 LINE"
);
}
);
};
layerId = "849A9C4C-BF7C-40C5-8614-1FD725A2A379";
paths = (
{
closed = 1;
nodes = (
"190 0 LINE SMOOTH",
"348 0 OFFCURVE",
"521 35 OFFCURVE",
"521 210 CURVE SMOOTH",
"521 329 OFFCURVE",
"470 372 OFFCURVE",
"417 399 CURVE",
"467 424 OFFCURVE",
"498 484 OFFCURVE",
"498 557 CURVE SMOOTH",
"498 664 OFFCURVE",
"431 750 OFFCURVE",
"238 750 CURVE SMOOTH",
"70 750 LINE",
"70 0 LINE"
);
},
{
closed = 1;
nodes = (
"217 338 LINE",
"249 338 LINE SMOOTH",
"318 338 OFFCURVE",
"380 326 OFFCURVE",
"380 230 CURVE SMOOTH",
"380 186 OFFCURVE",
"351 117 OFFCURVE",
"244 117 CURVE SMOOTH",
"217 117 LINE"
);
},
{
closed = 1;
nodes = (
"212 633 LINE",
"241 633 LINE SMOOTH",
"306 633 OFFCURVE",
"362 617 OFFCURVE",
"362 542 CURVE SMOOTH",
"362 457 OFFCURVE",
"315 445 OFFCURVE",
"247 445 CURVE SMOOTH",
"212 445 LINE"
);
}
);
width = 551;
}
);
},
{
color = 0;
export = 0;
glyphname = C.ori;
lastChange = "2023-02-02 16:23:56 +0000";
layers = (
{
anchors = (
{
name = bottom;
position = "{269, 0}";
},
{
name = top;
position = "{261, 750}";
}
);
background = {
anchors = (
{
name = bottom;
position = "{269, 0}";
},
{
name = top;
position = "{261, 750}";
}
);
paths = (
{
closed = 1;
nodes = (
"418 -14 OFFCURVE",
"487 116 OFFCURVE",
"487 255 CURVE",
"362 267 LINE",
"357 202 OFFCURVE",
"344 104 OFFCURVE",
"283 104 CURVE SMOOTH",
"199 104 OFFCURVE",
"186 249 OFFCURVE",
"186 391 CURVE SMOOTH",
"186 501 OFFCURVE",
"199 646 OFFCURVE",
"269 646 CURVE SMOOTH",
"341 646 OFFCURVE",
"344 501 OFFCURVE",
"344 486 CURVE",
"486 493 LINE",
"486 625 OFFCURVE",
"409 764 OFFCURVE",
"277 764 CURVE SMOOTH",
"102 764 OFFCURVE",
"40 559 OFFCURVE",
"40 391 CURVE SMOOTH",
"40 201 OFFCURVE",
"85 -14 OFFCURVE",
"274 -14 CURVE SMOOTH"
);
}
);
};
layerId = "849A9C4C-BF7C-40C5-8614-1FD725A2A379";
paths = (
{
closed = 1;
nodes = (
"418 -14 OFFCURVE",
"487 116 OFFCURVE",
"487 255 CURVE",
"362 267 LINE",
"357 202 OFFCURVE",
"344 104 OFFCURVE",
"283 104 CURVE SMOOTH",
"199 104 OFFCURVE",
"186 249 OFFCURVE",
"186 391 CURVE SMOOTH",
"186 501 OFFCURVE",
"199 646 OFFCURVE",
"269 646 CURVE SMOOTH",
"341 646 OFFCURVE",
"344 501 OFFCURVE",
"344 486 CURVE",
"486 493 LINE",
"486 625 OFFCURVE",
"409 764 OFFCURVE",
"277 764 CURVE SMOOTH",
"102 764 OFFCURVE",
"40 559 OFFCURVE",
"40 391 CURVE SMOOTH",
"40 201 OFFCURVE",
"85 -14 OFFCURVE",
"274 -14 CURVE SMOOTH"
);
}
);
width = 522;
}
);
},
{
color = 0;
export = 0;
glyphname = E.ori;
lastChange = "2023-02-02 16:23:56 +0000";
layers = (
{
anchors = (
{
name = bottom;
position = "{242, 0}";
},
{
name = ogonek;
position = "{459, 0}";
},
{
name = top;
position = "{242, 750}";
},
{
name = topleft;
position = "{10, 750}";
}
);
background = {
anchors = (
{
name = bottom;
position = "{242, 0}";
},
{
name = ogonek;
position = "{459, 0}";
},
{
name = top;
position = "{242, 750}";
},
{
name = topleft;
position = "{10, 750}";
}
);
paths = (
{
closed = 1;
nodes = (
"459 117 LINE",
"217 117 LINE",
"217 328 LINE",
"374 328 LINE",
"375 454 LINE",
"217 454 LINE",
"217 633 LINE",
"439 633 LINE",
"451 750 LINE",
"70 750 LINE",
"70 0 LINE",
"447 0 LINE"
);
}
);
};
layerId = "849A9C4C-BF7C-40C5-8614-1FD725A2A379";
paths = (
{
closed = 1;
nodes = (
"459 117 LINE",
"217 117 LINE",
"217 328 LINE",
"374 328 LINE",
"375 454 LINE",
"217 454 LINE",
"217 633 LINE",
"439 633 LINE",
"451 750 LINE",
"70 750 LINE",
"70 0 LINE",
"447 0 LINE"
);
}
);
width = 483;
}
);
},
{
color = 0;
export = 0;
glyphname = F.ori;
lastChange = "2023-02-02 16:23:56 +0000";
layers = (
{
anchors = (
{
name = bottom;
position = "{230, 0}";
},
{
name = top;
position = "{230, 750}";
}
);
background = {
anchors = (
{
name = bottom;
position = "{230, 0}";
},
{
name = top;
position = "{230, 750}";
}
);
paths = (
{
closed = 1;
nodes = (
"217 312 LINE",
"374 312 LINE",
"374 436 LINE",
"217 436 LINE",
"217 632 LINE",
"439 632 LINE",
"451 750 LINE",
"70 750 LINE",
"70 -6 LINE",
"217 6 LINE"
);
}
);
};
layerId = "849A9C4C-BF7C-40C5-8614-1FD725A2A379";
paths = (
{
closed = 1;
nodes = (
"217 312 LINE",
"374 312 LINE",
"374 436 LINE",
"217 436 LINE",
"217 632 LINE",
"439 632 LINE",
"451 750 LINE",
"70 750 LINE",
"70 -6 LINE",
"217 6 LINE"
);
}
);
width = 460;
}
);
},
{
color = 0;
export = 0;
glyphname = G.ori;
lastChange = "2023-02-02 16:23:56 +0000";
layers = (
{
anchors = (
{
name = bottom;
position = "{276, 0}";
},
{
name = top;
position = "{276, 750}";
}
);
background = {
anchors = (
{
name = bottom;
position = "{276, 0}";
},
{
name = top;
position = "{276, 750}";
}
);
paths = (
{
closed = 1;
nodes = (
"379 -14 OFFCURVE",
"402 91 OFFCURVE",
"413 139 CURVE",
"437 40 OFFCURVE",
"446 6 OFFCURVE",
"447 0 CURVE",
"503 6 LINE",
"503 375 LINE",
"300 375 LINE",
"288 263 LINE",
"362 263 LINE",
"362 179 OFFCURVE",
"334 104 OFFCURVE",
"282 104 CURVE SMOOTH",
"186 104 OFFCURVE",
"186 263 OFFCURVE",
"186 370 CURVE SMOOTH",
"186 484 OFFCURVE",
"203 646 OFFCURVE",
"281 646 CURVE SMOOTH",
"345 646 OFFCURVE",
"358 573 OFFCURVE",
"361 496 CURVE",
"500 505 LINE",
"500 653 OFFCURVE",
"435 764 OFFCURVE",
"283 764 CURVE SMOOTH",
"103 764 OFFCURVE",
"40 551 OFFCURVE",
"40 378 CURVE SMOOTH",
"40 173 OFFCURVE",
"96 -14 OFFCURVE",
"254 -14 CURVE SMOOTH"
);
}
);
};
layerId = "849A9C4C-BF7C-40C5-8614-1FD725A2A379";
paths = (
{
closed = 1;
nodes = (
"379 -14 OFFCURVE",
"402 91 OFFCURVE",
"413 139 CURVE",
"437 40 OFFCURVE",
"446 6 OFFCURVE",
"447 0 CURVE",
"503 6 LINE",
"503 375 LINE",
"300 375 LINE",
"288 263 LINE",
"362 263 LINE",
"362 179 OFFCURVE",
"334 104 OFFCURVE",
"282 104 CURVE SMOOTH",
"186 104 OFFCURVE",
"186 263 OFFCURVE",
"186 370 CURVE SMOOTH",
"186 484 OFFCURVE",
"203 646 OFFCURVE",
"281 646 CURVE SMOOTH",
"345 646 OFFCURVE",
"358 573 OFFCURVE",
"361 496 CURVE",
"500 505 LINE",
"500 653 OFFCURVE",
"435 764 OFFCURVE",
"283 764 CURVE SMOOTH",
"103 764 OFFCURVE",
"40 551 OFFCURVE",
"40 378 CURVE SMOOTH",
"40 173 OFFCURVE",
"96 -14 OFFCURVE",
"254 -14 CURVE SMOOTH"
);
}
);
width = 553;
}
);
},
{
color = 0;
export = 0;
glyphname = Hbar.ori;
lastChange = "2023-02-02 16:23:56 +0000";
layers = (
{
background = {
paths = (
{
closed = 1;
nodes = (
"71 -6 LINE",
"217 6 LINE",
"217 312 LINE",
"358 312 LINE",
"358 -6 LINE",
"504 6 LINE",
"504 646 LINE",
"504 750 LINE",
"358 738 LINE",
"358 646 LINE",
"358 446 LINE",
"217 446 LINE",
"217 646 LINE",
"217 750 LINE",
"71 738 LINE",
"71 646 LINE"
);
},
{
closed = 1;
nodes = (
"556 567 LINE",
"556 656 LINE",
"13 656 LINE",
"13 567 LINE"
);
}
);
};
layerId = "849A9C4C-BF7C-40C5-8614-1FD725A2A379";
paths = (
{
closed = 1;
nodes = (
"71 -6 LINE",
"217 6 LINE",
"217 312 LINE",
"358 312 LINE",
"358 -6 LINE",
"504 6 LINE",
"504 646 LINE",
"504 750 LINE",
"358 738 LINE",
"358 646 LINE",
"358 446 LINE",
"217 446 LINE",
"217 646 LINE",
"217 750 LINE",
"71 738 LINE",
"71 646 LINE"
);
},
{
closed = 1;
nodes = (
"556 567 LINE",
"556 656 LINE",
"13 656 LINE",
"13 567 LINE"
);
}
);
width = 576;
}
);
},
{
color = 0;
export = 0;
glyphname = K.ori;
lastChange = "2023-02-02 16:23:56 +0000";
layers = (
{
anchors = (
{
name = bottom;
position = "{281, 0}";
},
{
name = top;
position = "{281, 750}";
}
);
background = {
anchors = (
{
name = bottom;
position = "{281, 0}";
},
{
name = top;
position = "{281, 750}";
}
);
paths = (
{
closed = 1;
nodes = (
"553 21 LINE",
"390 440 LINE",
"551 750 LINE",
"395 750 LINE",
"217 422 LINE",
"217 750 LINE",
"70 738 LINE",
"70 0 LINE",
"217 0 LINE",
"217 237 LINE",
"274 336 LINE",
"404 -13 LINE"
);
}
);
};
layerId = "849A9C4C-BF7C-40C5-8614-1FD725A2A379";
paths = (
{
closed = 1;
nodes = (
"553 21 LINE",
"390 440 LINE",
"551 750 LINE",
"395 750 LINE",
"217 422 LINE",
"217 750 LINE",
"70 738 LINE",
"70 0 LINE",
"217 0 LINE",
"217 237 LINE",
"274 336 LINE",
"404 -13 LINE"
);
}
);
width = 563;
}
);
},
{
color = 0;
export = 0;
glyphname = M.ori;
lastChange = "2023-02-02 16:23:56 +0000";
layers = (
{
anchors = (
{
name = bottom;
position = "{397, 0}";
},
{
name = top;
position = "{397, 750}";
}
);
background = {
anchors = (
{
name = bottom;
position = "{397, 0}";
},
{
name = top;
position = "{397, 750}";
}
);
paths = (
{
closed = 1;
nodes = (
"724 6 LINE",
"724 744 LINE",
"528 732 LINE",
"409 285 LINE",
"285 749 LINE",
"70 743 LINE",
"70 0 LINE",
"191 6 LINE",
"191 559 LINE",
"342 0 LINE",
"432 0 LINE",
"572 557 LINE",
"572 -6 LINE"
);
}
);
};
layerId = "849A9C4C-BF7C-40C5-8614-1FD725A2A379";
paths = (
{
closed = 1;
nodes = (
"724 6 LINE",
"724 744 LINE",
"528 732 LINE",
"409 285 LINE",
"285 749 LINE",
"70 743 LINE",
"70 0 LINE",
"191 6 LINE",
"191 559 LINE",
"342 0 LINE",
"432 0 LINE",
"572 557 LINE",
"572 -6 LINE"
);
}
);
width = 794;
}
);
},
{
color = 0;
export = 0;
glyphname = O.ori;
lastChange = "2023-02-02 16:23:56 +0000";
layers = (
{
anchors = (
{
name = bottom;
position = "{275, 0}";
},
{
name = center;
position = "{275, 375}";
},
{
name = ogonek;
position = "{445, 5}";
},
{
name = top;
position = "{275, 750}";
},
{
name = topleft;
position = "{10, 750}";
},
{
name = topright;
position = "{492, 463}";
}
);
background = {
anchors = (
{
name = bottom;
position = "{275, 0}";
},
{
name = center;
position = "{275, 375}";
},
{
name = ogonek;
position = "{445, 5}";
},
{
name = top;
position = "{275, 750}";
},
{
name = topleft;
position = "{10, 750}";
},
{
name = topright;
position = "{492, 463}";
}
);
paths = (
{
closed = 1;
nodes = (
"463 -14 OFFCURVE",
"507 192 OFFCURVE",
"507 383 CURVE SMOOTH",
"507 623 OFFCURVE",
"438 764 OFFCURVE",
"274 764 CURVE SMOOTH",
"104 764 OFFCURVE",
"42 613 OFFCURVE",
"42 379 CURVE SMOOTH",
"42 180 OFFCURVE",
"87 -14 OFFCURVE",
"272 -14 CURVE SMOOTH"
);
},
{
closed = 1;
nodes = (
"197 104 OFFCURVE",
"188 223 OFFCURVE",
"188 385 CURVE SMOOTH",
"188 490 OFFCURVE",
"192 646 OFFCURVE",
"274 646 CURVE SMOOTH",
"356 646 OFFCURVE",
"361 490 OFFCURVE",
"361 384 CURVE SMOOTH",
"361 222 OFFCURVE",
"351 104 OFFCURVE",
"274 104 CURVE SMOOTH"
);
}
);
};
layerId = "849A9C4C-BF7C-40C5-8614-1FD725A2A379";
paths = (
{
closed = 1;
nodes = (
"463 -14 OFFCURVE",
"507 192 OFFCURVE",
"507 383 CURVE SMOOTH",
"507 623 OFFCURVE",
"438 764 OFFCURVE",
"274 764 CURVE SMOOTH",
"104 764 OFFCURVE",
"42 613 OFFCURVE",
"42 379 CURVE SMOOTH",
"42 180 OFFCURVE",
"87 -14 OFFCURVE",
"272 -14 CURVE SMOOTH"
);
},
{
closed = 1;
nodes = (
"197 104 OFFCURVE",
"188 223 OFFCURVE",
"188 385 CURVE SMOOTH",
"188 490 OFFCURVE",
"192 646 OFFCURVE",
"274 646 CURVE SMOOTH",
"356 646 OFFCURVE",
"361 490 OFFCURVE",
"361 384 CURVE SMOOTH",
"361 222 OFFCURVE",
"351 104 OFFCURVE",
"274 104 CURVE SMOOTH"
);
}
);
width = 549;
}
);
},
{
color = 0;
export = 0;
glyphname = P.ori;
lastChange = "2023-02-02 16:23:56 +0000";
layers = (
{
anchors = (
{
name = bottom;
position = "{267, 0}";
},
{
name = top;
position = "{267, 750}";
}
);
background = {
anchors = (
{
name = bottom;
position = "{267, 0}";
},
{
name = top;
position = "{267, 750}";
}
);
paths = (
{
closed = 1;
nodes = (
"217 6 LINE",
"217 295 LINE",
"350 295 OFFCURVE",
"514 314 OFFCURVE",
"514 525 CURVE SMOOTH",
"514 718 OFFCURVE",
"407 750 OFFCURVE",
"219 750 CURVE SMOOTH",
"70 750 LINE",
"70 -6 LINE"
);
},
{
closed = 1;
nodes = (
"218 633 LINE",
"239 633 LINE SMOOTH",
"321 633 OFFCURVE",
"368 616 OFFCURVE",
"368 526 CURVE SMOOTH",
"368 434 OFFCURVE",
"311 414 OFFCURVE",
"243 414 CURVE SMOOTH",
"218 414 LINE"
);
}
);
};
layerId = "849A9C4C-BF7C-40C5-8614-1FD725A2A379";
paths = (
{
closed = 1;
nodes = (
"217 6 LINE",
"217 295 LINE",
"350 295 OFFCURVE",
"514 314 OFFCURVE",
"514 525 CURVE SMOOTH",
"514 718 OFFCURVE",
"407 750 OFFCURVE",
"219 750 CURVE SMOOTH",
"70 750 LINE",
"70 -6 LINE"
);
},
{
closed = 1;
nodes = (
"218 633 LINE",
"239 633 LINE SMOOTH",
"321 633 OFFCURVE",
"368 616 OFFCURVE",
"368 526 CURVE SMOOTH",
"368 434 OFFCURVE",
"311 414 OFFCURVE",
"243 414 CURVE SMOOTH",
"218 414 LINE"
);
}
);
width = 533;
}
);
},
{
color = 0;
export = 0;
glyphname = Thorn.ori;
lastChange = "2023-02-02 16:23:56 +0000";
layers = (
{
background = {
paths = (
{
closed = 1;
nodes = (
"215 -33 LINE",
"215 129 LINE",
"348 129 OFFCURVE",
"512 148 OFFCURVE",
"512 350 CURVE SMOOTH",
"512 551 OFFCURVE",
"356 568 OFFCURVE",
"216 570 CURVE",
"216 750 LINE",
"68 750 LINE",
"68 -45 LINE"
);
},
{
closed = 1;
nodes = (
"216 458 LINE",
"237 458 LINE SMOOTH",
"319 458 OFFCURVE",
"366 440 OFFCURVE",
"366 351 CURVE SMOOTH",
"366 259 OFFCURVE",
"309 238 OFFCURVE",
"241 238 CURVE SMOOTH",
"216 238 LINE"
);
}
);
};
layerId = "849A9C4C-BF7C-40C5-8614-1FD725A2A379";
paths = (
{
closed = 1;
nodes = (
"215 -33 LINE",
"215 129 LINE",
"348 129 OFFCURVE",
"512 148 OFFCURVE",
"512 350 CURVE SMOOTH",
"512 551 OFFCURVE",
"356 568 OFFCURVE",
"216 570 CURVE",
"216 750 LINE",
"68 750 LINE",
"68 -45 LINE"
);
},
{
closed = 1;
nodes = (
"216 458 LINE",
"237 458 LINE SMOOTH",
"319 458 OFFCURVE",
"366 440 OFFCURVE",
"366 351 CURVE SMOOTH",
"366 259 OFFCURVE",
"309 238 OFFCURVE",
"241 238 CURVE SMOOTH",
"216 238 LINE"
);
}
);
width = 528;
}
);
},
{
color = 0;
export = 0;
glyphname = R.ori;
lastChange = "2023-02-02 16:23:56 +0000";
layers = (
{
anchors = (
{
name = bottom;
position = "{283, 0}";
},
{
name = top;
position = "{283, 750}";
}
);
background = {
anchors = (
{
name = bottom;
position = "{283, 0}";
},
{
name = top;
position = "{283, 750}";
}
);
paths = (
{
closed = 1;
nodes = (
"551 26 LINE",
"483 188 LINE SMOOTH",
"450 268 OFFCURVE",
"416 350 OFFCURVE",
"416 351 CURVE",
"480 388 OFFCURVE",
"523 443 OFFCURVE",
"523 541 CURVE SMOOTH",
"523 688 OFFCURVE",
"413 750 OFFCURVE",
"248 750 CURVE",
"70 750 LINE",
"70 -6 LINE",
"216 6 LINE",
"216 329 LINE",
"273 329 LINE",
"407 -13 LINE"
);
},
{
closed = 1;
nodes = (
"216 633 LINE",
"285 633 LINE SMOOTH",
"337 633 OFFCURVE",
"377 610 OFFCURVE",
"377 540 CURVE SMOOTH",
"377 452 OFFCURVE",
"325 437 OFFCURVE",
"266 437 CURVE SMOOTH",
"216 437 LINE"
);
}
);
};
layerId = "849A9C4C-BF7C-40C5-8614-1FD725A2A379";
paths = (
{
closed = 1;
nodes = (
"551 26 LINE",
"483 188 LINE SMOOTH",
"450 268 OFFCURVE",
"416 350 OFFCURVE",
"416 351 CURVE",
"480 388 OFFCURVE",
"523 443 OFFCURVE",
"523 541 CURVE SMOOTH",
"523 688 OFFCURVE",
"413 750 OFFCURVE",
"248 750 CURVE",
"70 750 LINE",
"70 -6 LINE",
"216 6 LINE",
"216 329 LINE",
"273 329 LINE",
"407 -13 LINE"
);
},
{
closed = 1;
nodes = (
"216 633 LINE",
"285 633 LINE SMOOTH",
"337 633 OFFCURVE",
"377 610 OFFCURVE",
"377 540 CURVE SMOOTH",
"377 452 OFFCURVE",
"325 437 OFFCURVE",
"266 437 CURVE SMOOTH",
"216 437 LINE"
);
}
);
width = 565;
}
);
},
{
color = 0;
export = 0;
glyphname = S.ori;
lastChange = "2023-02-02 16:23:56 +0000";
layers = (
{
anchors = (
{
name = bottom;
position = "{267, 0}";
},
{
name = top;
position = "{267, 750}";
}
);
background = {
anchors = (
{
name = bottom;
position = "{267, 0}";
},
{
name = top;
position = "{267, 750}";
}
);
paths = (
{
closed = 1;
nodes = (
"313 -14 OFFCURVE",
"353 -4 OFFCURVE",
"390 16 CURVE SMOOTH",
"462 56 OFFCURVE",
"507 131 OFFCURVE",
"507 226 CURVE",
"502 309 OFFCURVE",
"455 375 OFFCURVE",
"366 426 CURVE SMOOTH",
"245 497 LINE SMOOTH",
"220 512 OFFCURVE",
"199 539 OFFCURVE",
"199 571 CURVE SMOOTH",
"199 615 OFFCURVE",
"223 646 OFFCURVE",
"267 646 CURVE SMOOTH",
"303 646 OFFCURVE",
"327 630 OFFCURVE",
"344 593 CURVE SMOOTH",
"353 574 OFFCURVE",
"358 562 OFFCURVE",
"361 557 CURVE",
"485 613 LINE",
"450 713 OFFCURVE",
"377 764 OFFCURVE",
"274 764 CURVE SMOOTH",
"230 764 OFFCURVE",
"191 755 OFFCURVE",
"156 736 CURVE SMOOTH",
"86 699 OFFCURVE",
"42 628 OFFCURVE",
"42 541 CURVE SMOOTH",
"42 460 OFFCURVE",
"91 393 OFFCURVE",
"167 350 CURVE SMOOTH",
"298 272 LINE",
"327 253 OFFCURVE",
"348 221 OFFCURVE",
"348 184 CURVE SMOOTH",
"348 144 OFFCURVE",
"316 104 OFFCURVE",
"281 104 CURVE SMOOTH",
"228 104 OFFCURVE",
"198 143 OFFCURVE",
"159 210 CURVE SMOOTH",
"147 230 LINE",
"23 172 LINE",
"62 59 OFFCURVE",
"147 -14 OFFCURVE",
"268 -14 CURVE SMOOTH"
);
}
);
};
layerId = "849A9C4C-BF7C-40C5-8614-1FD725A2A379";
paths = (
{
closed = 1;
nodes = (
"313 -14 OFFCURVE",
"353 -4 OFFCURVE",
"390 16 CURVE SMOOTH",
"462 56 OFFCURVE",
"507 131 OFFCURVE",
"507 226 CURVE",
"502 309 OFFCURVE",
"455 375 OFFCURVE",
"366 426 CURVE SMOOTH",
"245 497 LINE SMOOTH",
"220 512 OFFCURVE",
"199 539 OFFCURVE",
"199 571 CURVE SMOOTH",
"199 615 OFFCURVE",
"223 646 OFFCURVE",
"267 646 CURVE SMOOTH",
"303 646 OFFCURVE",
"327 630 OFFCURVE",
"344 593 CURVE SMOOTH",
"353 574 OFFCURVE",
"358 562 OFFCURVE",
"361 557 CURVE",
"485 613 LINE",
"450 713 OFFCURVE",
"377 764 OFFCURVE",
"274 764 CURVE SMOOTH",
"230 764 OFFCURVE",
"191 755 OFFCURVE",
"156 736 CURVE SMOOTH",
"86 699 OFFCURVE",
"42 628 OFFCURVE",
"42 541 CURVE SMOOTH",
"42 460 OFFCURVE",
"91 393 OFFCURVE",
"167 350 CURVE SMOOTH",
"298 272 LINE",
"327 253 OFFCURVE",
"348 221 OFFCURVE",
"348 184 CURVE SMOOTH",
"348 144 OFFCURVE",
"316 104 OFFCURVE",
"281 104 CURVE SMOOTH",
"228 104 OFFCURVE",
"198 143 OFFCURVE",
"159 210 CURVE SMOOTH",
"147 230 LINE",
"23 172 LINE",
"62 59 OFFCURVE",
"147 -14 OFFCURVE",
"268 -14 CURVE SMOOTH"
);
}
);
width = 533;
}
);
},
{
color = 0;
export = 0;
glyphname = V.ori;
lastChange = "2023-02-02 16:23:56 +0000";
layers = (
{
anchors = (
{
name = bottom;
position = "{267, 0}";
},
{
name = top;
position = "{267, 750}";
}
);
background = {
anchors = (
{
name = bottom;
position = "{267, 0}";
},
{
name = top;
position = "{267, 750}";
}
);
paths = (
{
closed = 1;
nodes = (
"346 0 LINE",
"526 750 LINE",
"385 744 LINE",
"281 232 LINE",
"182 750 LINE",
"8 744 LINE",
"185 0 LINE"
);
}
);
};
layerId = "849A9C4C-BF7C-40C5-8614-1FD725A2A379";
paths = (
{
closed = 1;
nodes = (
"346 0 LINE",
"526 750 LINE",
"385 744 LINE",
"281 232 LINE",
"182 750 LINE",
"8 744 LINE",
"185 0 LINE"
);
}
);
width = 533;
}
);
},
{
color = 0;
export = 0;
glyphname = W.ori;
lastChange = "2023-02-02 16:23:56 +0000";
layers = (
{
anchors = (
{
name = bottom;
position = "{387, 0}";
},
{
name = top;
position = "{387, 750}";
}
);
background = {
anchors = (
{
name = bottom;
position = "{387, 0}";
},
{
name = top;
position = "{387, 750}";
}
);
paths = (
{
closed = 1;
nodes = (
"300 0 LINE",
"381 458 LINE",
"460 0 LINE",
"605 0 LINE",
"766 750 LINE",
"631 744 LINE",
"536 296 LINE",
"457 750 LINE",
"337 744 LINE",
"252 301 LINE",
"173 750 LINE",
"13 744 LINE",
"166 0 LINE"
);
}
);
};
layerId = "849A9C4C-BF7C-40C5-8614-1FD725A2A379";
paths = (
{
closed = 1;
nodes = (
"300 0 LINE",
"381 458 LINE",
"460 0 LINE",
"605 0 LINE",
"766 750 LINE",
"631 744 LINE",
"536 296 LINE",
"457 750 LINE",
"337 744 LINE",
"252 301 LINE",
"173 750 LINE",
"13 744 LINE",
"166 0 LINE"
);
}
);
width = 774;
}
);
},
{
glyphname = aringacute;
lastChange = "2023-02-10 12:04:56 +0000";
layers = (
{
anchors = (
{
name = _top;
position = "{292, 728}";
},
{
name = top;
position = "{372, 1040}";
}
);
background = {
anchors = (
{
name = _top;
position = "{292, 728}";
},
{
name = top;
position = "{372, 1040}";
}
);
components = (
{
name = aring;
}
);
paths = (
{
closed = 1;
nodes = (
"490 919 LINE",
"387 1014 LINE",
"277 815 LINE",
"309 788 LINE"
);
}
);
};
components = (
{
name = a;
},
{
name = ringcomb;
transform = "{1, 0, 0, 1, -16, 0}";
},
{
name = acutecomb;
transform = "{1, 0, 0, 1, -16, 315}";
}
);
layerId = "849A9C4C-BF7C-40C5-8614-1FD725A2A379";
width = 467;
}
);
leftKerningGroup = a;
rightKerningGroup = n;
unicode = 01FB;
},
{
glyphname = eogonek;
lastChange = "2023-02-09 13:51:27 +0000";
layers = (
{
background = {
paths = (
{
closed = 1;
nodes = (
"229 -15 OFFCURVE",
"188 -55 OFFCURVE",
"188 -106 CURVE SMOOTH",
"188 -171 OFFCURVE",
"234 -210 OFFCURVE",
"299 -210 CURVE SMOOTH",
"356 -210 OFFCURVE",
"391 -181 OFFCURVE",
"421 -137 CURVE",
"383 -103 LINE",
"373 -115 OFFCURVE",
"359 -128 OFFCURVE",
"335 -128 CURVE SMOOTH",
"303 -128 OFFCURVE",
"285 -103 OFFCURVE",
"285 -71 CURVE SMOOTH",
"285 -36 OFFCURVE",
"301 -11 OFFCURVE",
"330 4 CURVE SMOOTH",
"399 38 OFFCURVE",
"424 97 OFFCURVE",
"433 152 CURVE",
"315 177 LINE",
"307 132 OFFCURVE",
"290 90 OFFCURVE",
"250 90 CURVE SMOOTH",
"195 90 OFFCURVE",
"177 162 OFFCURVE",
"175 248 CURVE",
"435 248 LINE",
"437 284 OFFCURVE",
"438 307 OFFCURVE",
"438 336 CURVE SMOOTH",
"438 469 OFFCURVE",
"380 570 OFFCURVE",
"244 570 CURVE SMOOTH",
"112 570 OFFCURVE",
"34 448 OFFCURVE",
"34 276 CURVE SMOOTH",
"34 23 OFFCURVE",
"169 -13 OFFCURVE",
"261 -11 CURVE",
"261 -5 LINE"
);
},
{
closed = 1;
nodes = (
"180 412 OFFCURVE",
"205 464 OFFCURVE",
"246 464 CURVE SMOOTH",
"290 464 OFFCURVE",
"311 416 OFFCURVE",
"311 352 CURVE SMOOTH",
"311 330 LINE",
"177 330 LINE"
);
}
);
};
components = (
{
name = e;
},
{
name = ogonekcomb;
transform = "{1, 0, 0, 1, 62, 0}";
}
);
layerId = "849A9C4C-BF7C-40C5-8614-1FD725A2A379";
width = 464;
}
);
leftKerningGroup = o;
rightKerningGroup = o;
unicode = 0119;
},
{
glyphname = gcommaaccent;
lastChange = "2023-02-09 13:53:04 +0000";
layers = (
{
background = {
components = (
{
name = g;
}
);
paths = (
{
closed = 1;
nodes = (
"219 914 OFFCURVE",
"181 859 OFFCURVE",
"181 795 CURVE SMOOTH",
"181 646 LINE",
"317 646 LINE",
"317 797 LINE",
"250 797 LINE",
"250 834 OFFCURVE",
"267 860 OFFCURVE",
"298 872 CURVE",
"272 935 LINE"
);
}
);
};
components = (
{
name = g;
},
{
name = commaturnedabovecomb;
transform = "{1, 0, 0, 1, -1, 0}";
}
);
layerId = "849A9C4C-BF7C-40C5-8614-1FD725A2A379";
width = 497;
}
);
leftKerningGroup = g;
rightKerningGroup = g;
unicode = 0123;
},
{
glyphname = hbar;
lastChange = "2023-02-09 14:02:52 +0000";
layers = (
{
background = {
components = (
{
name = h;
transform = "{1, 0, 0, 1, 1, 0}";
}
);
paths = (
{
closed = 1;
nodes = (
"302 603 LINE",
"312 693 LINE",
"-16 693 LINE",
"-16 603 LINE"
);
}
);
};
components = (
{
name = h;
},
{
name = strokeshortcomb;
transform = "{1, 0, 0, 1, -100, 351}";
}
);
layerId = "849A9C4C-BF7C-40C5-8614-1FD725A2A379";
width = 509;
}
);
leftKerningGroup = h;
rightKerningGroup = n;
unicode = 0127;
},
{
glyphname = ldot;
lastChange = "2023-02-09 13:53:37 +0000";
layers = (
{
background = {
components = (
{
name = l;
},
{
name = periodcentered;
transform = "{1, 0, 0, 1, -6, -25}";
}
);
paths = (
{
closed = 1;
nodes = (
"436 234 LINE",
"436 375 LINE",
"296 375 LINE",
"296 234 LINE"
);
}
);
};
components = (
{
name = l;
},
{
name = periodcentered.loclCAT;
transform = "{1, 0, 0, 1, -6, -17}";
}
);
layerId = "849A9C4C-BF7C-40C5-8614-1FD725A2A379";
width = 240;
}
);
leftKerningGroup = h;
rightKerningGroup = l;
unicode = 0140;
},
{
glyphname = napostrophe;
lastChange = "2023-02-09 14:03:15 +0000";
layers = (
{
background = {
components = (
{
name = n;
transform = "{1, 0, 0, 1, 118, 0}";
}
);
paths = (
{
closed = 1;
nodes = (
"92 482 OFFCURVE",
"130 537 OFFCURVE",
"130 601 CURVE SMOOTH",
"130 750 LINE",
"-6 750 LINE",
"-6 599 LINE",
"61 599 LINE",
"61 562 OFFCURVE",
"44 536 OFFCURVE",
"13 524 CURVE",
"39 461 LINE"
);
}
);
};
components = (
{
name = apostrophemod;
transform = "{1, 0, 0, 1, 0, 150}";
},
{
name = n;
}
);
layerId = "849A9C4C-BF7C-40C5-8614-1FD725A2A379";
width = 500;
}
);
leftKerningGroup = h;
rightKerningGroup = n;
unicode = 0149;
},
{
color = 3;
glyphname = nhookleft;
lastChange = "2023-02-09 13:56:47 +0000";
layers = (
{
anchors = (
{
name = top;
position = "{271, 560}";
}
);
background = {
anchors = (
{
name = bottom;
position = "{271, 0}";
},
{
name = top;
position = "{271, 563}";
}
);
components = (
{
name = n_arch;
transform = "{1, 0, 0, 1, 202, 0}";
}
);
paths = (
{
closed = 1;
nodes = (
"146 -168 OFFCURVE",
"202 -93 OFFCURVE",
"202 5 CURVE SMOOTH",
"202 390 LINE",
"196 390 LINE",
"196 564 LINE",
"62 547 LINE",
"62 33 LINE SMOOTH",
"62 -25 OFFCURVE",
"51 -52 OFFCURVE",
"10 -52 CURVE SMOOTH",
"-4 -52 OFFCURVE",
"-14 -50 OFFCURVE",
"-25 -46 CURVE",
"-38 -154 LINE",
"-7 -164 OFFCURVE",
"21 -168 OFFCURVE",
"51 -168 CURVE SMOOTH"
);
}
);
};
layerId = "849A9C4C-BF7C-40C5-8614-1FD725A2A379";
paths = (
{
closed = 1;
nodes = (
"146 -168 OFFCURVE",
"202 -93 OFFCURVE",
"202 5 CURVE SMOOTH",
"202 287 LINE SMOOTH",
"202 382 OFFCURVE",
"234 454 OFFCURVE",
"281 454 CURVE SMOOTH",
"330 454 OFFCURVE",
"336 408 OFFCURVE",
"336 348 CURVE SMOOTH",
"336 0 LINE",
"476 0 LINE",
"476 404 LINE SMOOTH",
"476 521 OFFCURVE",
"425 573 OFFCURVE",
"346 573 CURVE SMOOTH",
"274 573 OFFCURVE",
"217 532 OFFCURVE",
"196 440 CURVE",
"196 564 LINE",
"62 547 LINE",
"62 33 LINE SMOOTH",
"62 -25 OFFCURVE",
"51 -52 OFFCURVE",
"10 -52 CURVE SMOOTH",
"-4 -52 OFFCURVE",
"-14 -50 OFFCURVE",
"-25 -46 CURVE",
"-38 -154 LINE",
"-7 -164 OFFCURVE",
"21 -168 OFFCURVE",
"51 -168 CURVE SMOOTH"
);
}
);
width = 521;
}
);
leftKerningGroup = n;
leftMetricsKey = j;
rightKerningGroup = n;
rightMetricsKey = n;
unicode = 0272;
},
{
glyphname = tbar;
lastChange = "2023-02-09 14:01:27 +0000";
layers = (
{
background = {
components = (
{
name = t;
}
);
paths = (
{
closed = 1;
nodes = (
"327 274 LINE",
"339 368 LINE",
"11 368 LINE",
"11 274 LINE"
);
}
);
};
components = (
{
name = t;
},
{
name = strokeshortcomb;
transform = "{1, 0, 0, 1, -84, -12}";
}
);
layerId = "849A9C4C-BF7C-40C5-8614-1FD725A2A379";
width = 345;
}
);
leftKerningGroup = t;
rightKerningGroup = t;
unicode = 0167;
},
{
color = 4;
glyphname = g.ss01;
lastChange = "2023-02-09 13:57:33 +0000";
layers = (
{
anchors = (
{
name = top;
position = "{255, 563}";
}
);
background = {
paths = (
{
closed = 1;
nodes = (
"353 -192 OFFCURVE",
"450 -110 OFFCURVE",
"450 28 CURVE",
"450 553 LINE",
"320 553 LINE",
"320 415 LINE",
"310 415 LINE",
"310 25 LINE SMOOTH",
"310 -39 OFFCURVE",
"277 -74 OFFCURVE",
"209 -74 CURVE SMOOTH",
"157 -74 OFFCURVE",
"117 -63 OFFCURVE",
"67 -37 CURVE",
"41 -160 LINE",
"93 -183 OFFCURVE",
"141 -192 OFFCURVE",
"212 -192 CURVE SMOOTH"
);
},
{
closed = 1;
nodes = (
"294 466 OFFCURVE",
"310 404 OFFCURVE",
"310 320 CURVE",
"333 408 LINE",
"333 488 OFFCURVE",
"299 570 OFFCURVE",
"204 570 CURVE SMOOTH",
"87 570 OFFCURVE",
"30 442 OFFCURVE",
"30 278 CURVE SMOOTH",
"30 98 OFFCURVE",
"87 -13 OFFCURVE",
"197 -13 CURVE SMOOTH",
"287 -13 OFFCURVE",
"333 54 OFFCURVE",
"333 145 CURVE",
"310 235 LINE",
"310 149 OFFCURVE",
"294 91 OFFCURVE",
"243 91 CURVE SMOOTH",
"193 91 OFFCURVE",
"173 167 OFFCURVE",
"173 279 CURVE SMOOTH",
"173 390 OFFCURVE",
"193 466 OFFCURVE",
"246 466 CURVE SMOOTH"
);
}
);
};
layerId = "849A9C4C-BF7C-40C5-8614-1FD725A2A379";
paths = (
{
closed = 1;
nodes = (
"353 -180 OFFCURVE",
"450 -98 OFFCURVE",
"450 40 CURVE SMOOTH",
"450 553 LINE",
"320 553 LINE",
"320 483 LINE",
"303 537 OFFCURVE",
"267 570 OFFCURVE",
"204 570 CURVE SMOOTH",
"87 570 OFFCURVE",
"30 451 OFFCURVE",
"30 298 CURVE SMOOTH",
"30 130 OFFCURVE",
"87 27 OFFCURVE",
"197 27 CURVE SMOOTH",
"250 27 OFFCURVE",
"288 49 OFFCURVE",
"310 94 CURVE",
"310 37 LINE SMOOTH",
"310 -27 OFFCURVE",
"277 -62 OFFCURVE",
"209 -62 CURVE SMOOTH",
"157 -62 OFFCURVE",
"117 -51 OFFCURVE",
"67 -25 CURVE",
"41 -148 LINE",
"93 -171 OFFCURVE",
"141 -180 OFFCURVE",
"212 -180 CURVE SMOOTH"
);
},
{
closed = 1;
nodes = (
"173 398 OFFCURVE",
"193 466 OFFCURVE",
"246 466 CURVE SMOOTH",
"294 466 OFFCURVE",
"310 411 OFFCURVE",
"310 336 CURVE SMOOTH",
"310 260 LINE SMOOTH",
"310 183 OFFCURVE",
"294 131 OFFCURVE",
"243 131 CURVE SMOOTH",
"193 131 OFFCURVE",
"173 199 OFFCURVE",
"173 299 CURVE SMOOTH"
);
}
);
width = 500;
}
);
leftKerningGroup = o;
leftMetricsKey = o;
rightKerningGroup = u;
rightMetricsKey = u;
},
{
color = 0;
export = 0;
glyphname = germandbls.001;
lastChange = "2023-02-02 16:23:56 +0000";
layers = (
{
background = {
paths = (
{
closed = 1;
nodes = (
"202 -80 LINE",
"202 525 LINE SMOOTH",
"202 610 OFFCURVE",
"230 662 OFFCURVE",
"282 662 CURVE SMOOTH",
"330 662 OFFCURVE",
"355 622 OFFCURVE",
"355 568 CURVE SMOOTH",
"355 505 OFFCURVE",
"316 465 OFFCURVE",
"251 432 CURVE",
"251 363 OFFCURVE",
"286 304 OFFCURVE",
"340 270 CURVE SMOOTH",
"364 255 LINE SMOOTH",
"398 234 OFFCURVE",
"425 214 OFFCURVE",
"425 172 CURVE SMOOTH",
"425 126 OFFCURVE",
"394 99 OFFCURVE",
"357 99 CURVE SMOOTH",
"336 99 OFFCURVE",
"313 104 OFFCURVE",
"286 118 CURVE",
"247 14 LINE",
"280 -5 OFFCURVE",
"322 -14 OFFCURVE",
"368 -14 CURVE SMOOTH",
"467 -14 OFFCURVE",
"560 61 OFFCURVE",
"560 171 CURVE SMOOTH",
"560 244 OFFCURVE",
"523 294 OFFCURVE",
"471 328 CURVE SMOOTH",
"450 342 LINE SMOOTH",
"409 368 OFFCURVE",
"373 391 OFFCURVE",
"373 422 CURVE",
"442 446 OFFCURVE",
"498 510 OFFCURVE",
"498 585 CURVE SMOOTH",
"498 706 OFFCURVE",
"406 766 OFFCURVE",
"278 766 CURVE SMOOTH",
"120 766 OFFCURVE",
"62 656 OFFCURVE",
"62 514 CURVE SMOOTH",
"62 -97 LINE"
);
}
);
};
layerId = "849A9C4C-BF7C-40C5-8614-1FD725A2A379";
paths = (
{
closed = 1;
nodes = (
"202 -80 LINE",
"202 525 LINE SMOOTH",
"202 610 OFFCURVE",
"230 662 OFFCURVE",
"282 662 CURVE SMOOTH",
"330 662 OFFCURVE",
"355 622 OFFCURVE",
"355 568 CURVE SMOOTH",
"355 505 OFFCURVE",
"316 465 OFFCURVE",
"251 432 CURVE",
"251 363 OFFCURVE",
"286 304 OFFCURVE",
"340 270 CURVE SMOOTH",
"364 255 LINE SMOOTH",
"398 234 OFFCURVE",
"425 214 OFFCURVE",
"425 172 CURVE SMOOTH",
"425 126 OFFCURVE",
"394 99 OFFCURVE",
"357 99 CURVE SMOOTH",
"336 99 OFFCURVE",
"313 104 OFFCURVE",
"286 118 CURVE",
"247 14 LINE",
"280 -5 OFFCURVE",
"322 -14 OFFCURVE",
"368 -14 CURVE SMOOTH",
"467 -14 OFFCURVE",
"560 61 OFFCURVE",
"560 171 CURVE SMOOTH",
"560 244 OFFCURVE",
"523 294 OFFCURVE",
"471 328 CURVE SMOOTH",
"450 342 LINE SMOOTH",
"409 368 OFFCURVE",
"373 391 OFFCURVE",
"373 422 CURVE",
"442 446 OFFCURVE",
"498 510 OFFCURVE",
"498 585 CURVE SMOOTH",
"498 706 OFFCURVE",
"406 766 OFFCURVE",
"278 766 CURVE SMOOTH",
"120 766 OFFCURVE",
"62 656 OFFCURVE",
"62 514 CURVE SMOOTH",
"62 -97 LINE"
);
}
);
width = 571;
}
);
leftKerningGroup = straight;
rightKerningGroup = small;
},
{
color = 4;
glyphname = f_f;
lastChange = "2023-02-09 14:04:35 +0000";
layers = (
{
anchors = (
{
name = caret_1;
position = "{310, 0}";
}
);
background = {
paths = (
{
closed = 1;
nodes = (
"220 0 LINE",
"220 583 LINE SMOOTH",
"220 627 OFFCURVE",
"245 655 OFFCURVE",
"283 655 CURVE SMOOTH",
"308 655 OFFCURVE",
"327 645 OFFCURVE",
"347 625 CURVE",
"414 708 LINE",
"383 746 OFFCURVE",
"330 762 OFFCURVE",
"282 762 CURVE SMOOTH",
"158 762 OFFCURVE",
"80 680 OFFCURVE",
"80 560 CURVE SMOOTH",
"80 0 LINE"
);
},
{
closed = 1;
nodes = (
"313 455 LINE",
"326 560 LINE",
"15 560 LINE",
"15 455 LINE"
);
},
{
closed = 1;
nodes = (
"540 0 LINE",
"540 583 LINE SMOOTH",
"540 627 OFFCURVE",
"565 655 OFFCURVE",
"603 655 CURVE SMOOTH",
"628 655 OFFCURVE",
"647 645 OFFCURVE",
"667 625 CURVE",
"734 708 LINE",
"703 746 OFFCURVE",
"650 762 OFFCURVE",
"602 762 CURVE SMOOTH",
"478 762 OFFCURVE",
"400 680 OFFCURVE",
"400 560 CURVE SMOOTH",
"400 0 LINE"
);
},
{
closed = 1;
nodes = (
"633 455 LINE",
"646 560 LINE",
"235 560 LINE",
"235 455 LINE"
);
}
);
};
layerId = "849A9C4C-BF7C-40C5-8614-1FD725A2A379";
paths = (
{
closed = 1;
nodes = (
"220 0 LINE",
"220 455 LINE",
"400 455 LINE",
"400 0 LINE",
"540 0 LINE",
"540 455 LINE",
"633 455 LINE",
"646 560 LINE",
"540 560 LINE",
"540 583 LINE SMOOTH",
"540 627 OFFCURVE",
"565 655 OFFCURVE",
"603 655 CURVE SMOOTH",
"628 655 OFFCURVE",
"647 645 OFFCURVE",
"667 625 CURVE",
"734 708 LINE",
"703 746 OFFCURVE",
"650 762 OFFCURVE",
"602 762 CURVE SMOOTH",
"478 762 OFFCURVE",
"400 680 OFFCURVE",
"400 560 CURVE",
"220 560 LINE",
"220 583 LINE SMOOTH",
"220 627 OFFCURVE",
"245 655 OFFCURVE",
"283 655 CURVE SMOOTH",
"308 655 OFFCURVE",
"327 645 OFFCURVE",
"347 625 CURVE",
"414 708 LINE",
"383 746 OFFCURVE",
"330 762 OFFCURVE",
"282 762 CURVE SMOOTH",
"158 762 OFFCURVE",
"80 680 OFFCURVE",
"80 560 CURVE",
"15 560 LINE",
"15 455 LINE",
"80 455 LINE",
"80 0 LINE"
);
}
);
width = 660;
}
);
leftKerningGroup = f;
leftMetricsKey = f;
rightKerningGroup = f;
rightMetricsKey = f;
},
{
color = 4;
glyphname = f_f_i;
lastChange = "2023-02-09 14:04:43 +0000";
layers = (
{
anchors = (
{
name = caret_1;
position = "{303.333, 0}";
},
{
name = caret_2;
position = "{630, 0}";
}
);
background = {
anchors = (
{
name = bottom;
position = "{804, 0}";
},
{
name = caret_1;
position = "{312, 0}";
},
{
name = caret_2;
position = "{653, 0}";
},
{
name = ogonek;
position = "{958, 5}";
},
{
name = top;
position = "{808, 563}";
}
);
paths = (
{
closed = 1;
nodes = (
"555 0 LINE",
"555 563 LINE",
"555 603 LINE SMOOTH",
"555 662 OFFCURVE",
"568 690 OFFCURVE",
"609 690 CURVE SMOOTH",
"627 690 OFFCURVE",
"642 687 OFFCURVE",
"655 680 CURVE",
"668 778 LINE",
"635 793 OFFCURVE",
"600 801 OFFCURVE",
"556 801 CURVE SMOOTH",
"462 801 OFFCURVE",
"415 729 OFFCURVE",
"415 626 CURVE SMOOTH",
"415 0 LINE"
);
},
{
closed = 1;
nodes = (
"877 632 LINE",
"877 761 LINE",
"733 761 LINE",
"733 632 LINE"
);
},
{
closed = 1;
nodes = (
"875 0 LINE",
"875 563 LINE",
"735 563 LINE",
"735 0 LINE"
);
},
{
closed = 1;
nodes = (
"33 563 LINE",
"20 458 LINE",
"870 458 LINE",
"870 563 LINE"
);
},
{
closed = 1;
nodes = (
"233 0 LINE",
"233 598 LINE SMOOTH",
"233 652 OFFCURVE",
"252 680 OFFCURVE",
"294 680 CURVE SMOOTH",
"321 680 OFFCURVE",
"342 676 OFFCURVE",
"364 669 CURVE",
"384 765 LINE",
"349 782 OFFCURVE",
"300 791 OFFCURVE",
"256 791 CURVE SMOOTH",
"140 791 OFFCURVE",
"93 719 OFFCURVE",
"93 616 CURVE SMOOTH",
"93 0 LINE"
);
}
);
};
layerId = "849A9C4C-BF7C-40C5-8614-1FD725A2A379";
paths = (
{
closed = 1;
nodes = (
"220 0 LINE",
"220 455 LINE",
"400 455 LINE",
"400 0 LINE",
"540 0 LINE",
"540 455 LINE",
"720 455 LINE",
"720 0 LINE",
"860 0 LINE",
"860 560 LINE",
"540 560 LINE",
"540 583 LINE SMOOTH",
"540 627 OFFCURVE",
"565 655 OFFCURVE",
"603 655 CURVE SMOOTH",
"628 655 OFFCURVE",
"647 645 OFFCURVE",
"667 625 CURVE",
"734 708 LINE",
"703 746 OFFCURVE",
"650 762 OFFCURVE",
"602 762 CURVE SMOOTH",
"478 762 OFFCURVE",
"400 680 OFFCURVE",
"400 560 CURVE",
"220 560 LINE",
"220 583 LINE SMOOTH",
"220 627 OFFCURVE",
"245 655 OFFCURVE",
"283 655 CURVE SMOOTH",
"308 655 OFFCURVE",
"327 645 OFFCURVE",
"347 625 CURVE",
"414 708 LINE",
"383 746 OFFCURVE",
"330 762 OFFCURVE",
"282 762 CURVE SMOOTH",
"158 762 OFFCURVE",
"80 680 OFFCURVE",
"80 560 CURVE",
"15 560 LINE",
"15 455 LINE",
"80 455 LINE",
"80 0 LINE"
);
}
);
width = 910;
}
);
leftKerningGroup = f;
rightKerningGroup = u;
rightMetricsKey = u;
},
{
color = 6;
glyphname = f_f_l;
lastChange = "2023-02-13 11:23:37 +0000";
layers = (
{
anchors = (
{
name = caret_1;
position = "{303.333, 0}";
},
{
name = caret_2;
position = "{630, 0}";
}
);
background = {
components = (
{
name = l;
transform = "{1, 0, 0, 1, 653, 0}";
}
);
paths = (
{
closed = 1;
nodes = (
"542 0 LINE",
"542 563 LINE",
"542 583 LINE SMOOTH",
"542 635 OFFCURVE",
"558 663 OFFCURVE",
"600 663 CURVE SMOOTH",
"632 663 OFFCURVE",
"649 659 OFFCURVE",
"672 652 CURVE",
"672 750 LINE",
"637 766 OFFCURVE",
"600 776 OFFCURVE",
"546 776 CURVE SMOOTH",
"449 776 OFFCURVE",
"402 704 OFFCURVE",
"402 601 CURVE SMOOTH",
"402 0 LINE"
);
},
{
closed = 1;
nodes = (
"220 0 LINE",
"220 598 LINE SMOOTH",
"220 652 OFFCURVE",
"239 680 OFFCURVE",
"281 680 CURVE SMOOTH",
"308 680 OFFCURVE",
"329 676 OFFCURVE",
"351 669 CURVE",
"371 765 LINE",
"336 782 OFFCURVE",
"287 791 OFFCURVE",
"243 791 CURVE SMOOTH",
"127 791 OFFCURVE",
"80 719 OFFCURVE",
"80 616 CURVE SMOOTH",
"80 0 LINE"
);
},
{
closed = 1;
nodes = (
"15 563 LINE",
"15 458 LINE",
"636 458 LINE",
"649 563 LINE"
);
}
);
};
components = (
{
name = f_f;
},
{
name = l;
transform = "{1, 0, 0, 1, 650, 0}";
}
);
layerId = "849A9C4C-BF7C-40C5-8614-1FD725A2A379";
width = 890;
}
);
leftKerningGroup = f;
leftMetricsKey = f;
rightKerningGroup = l;
rightMetricsKey = l;
},
{
color = 4;
glyphname = fi;
lastChange = "2023-02-09 14:04:43 +0000";
layers = (
{
anchors = (
{
name = caret_1;
position = "{303.333, 0}";
},
{
name = ogonek_2;
position = "{530, 0}";
},
{
name = top_1;
position = "{150, 750}";
}
);
background = {
anchors = (
{
name = bottom;
position = "{461, 0}";
},
{
name = caret_1;
position = "{281, 0}";
},
{
name = ogonek;
position = "{615, 5}";
},
{
name = top;
position = "{465, 563}";
}
);
paths = (
{
closed = 1;
nodes = (
"544 632 LINE",
"544 761 LINE",
"400 761 LINE",
"400 632 LINE"
);
},
{
closed = 1;
nodes = (
"527 458 LINE",
"527 563 LINE",
"28 563 LINE",
"15 458 LINE"
);
},
{
closed = 1;
nodes = (
"542 0 LINE",
"542 563 LINE",
"402 563 LINE",
"402 0 LINE"
);
},
{
closed = 1;
nodes = (
"220 0 LINE",
"220 563 LINE",
"220 573 LINE SMOOTH",
"220 632 OFFCURVE",
"233 662 OFFCURVE",
"274 662 CURVE SMOOTH",
"292 662 OFFCURVE",
"307 660 OFFCURVE",
"326 655 CURVE",
"333 753 LINE",
"298 764 OFFCURVE",
"264 771 OFFCURVE",
"221 771 CURVE SMOOTH",
"127 771 OFFCURVE",
"80 699 OFFCURVE",
"80 596 CURVE SMOOTH",
"80 0 LINE"
);
}
);
};
layerId = "849A9C4C-BF7C-40C5-8614-1FD725A2A379";
paths = (
{
closed = 1;
nodes = (
"220 0 LINE",
"220 455 LINE",
"380 455 LINE",
"380 0 LINE",
"520 0 LINE",
"520 560 LINE",
"220 560 LINE",
"220 583 LINE SMOOTH",
"220 627 OFFCURVE",
"245 655 OFFCURVE",
"283 655 CURVE SMOOTH",
"308 655 OFFCURVE",
"327 645 OFFCURVE",
"347 625 CURVE",
"414 708 LINE",
"383 746 OFFCURVE",
"330 762 OFFCURVE",
"282 762 CURVE SMOOTH",
"158 762 OFFCURVE",
"80 680 OFFCURVE",
"80 560 CURVE",
"15 560 LINE",
"15 455 LINE",
"80 455 LINE",
"80 0 LINE"
);
}
);
width = 568;
}
);
leftKerningGroup = f;
leftMetricsKey = f;
rightKerningGroup = u;
rightMetricsKey = i;
unicode = FB01;
},
{
color = 6;
glyphname = fl;
lastChange = "2023-02-13 11:23:37 +0000";
layers = (
{
anchors = (
{
name = caret_1;
position = "{303.333, 0}";
}
);
background = {
anchors = (
{
name = bottom;
position = "{167, 0}";
},
{
name = center;
position = "{467, 281}";
},
{
name = top;
position = "{167, 563}";
},
{
name = topright;
position = "{589, 563}";
}
);
paths = (
{
closed = 1;
nodes = (
"537 0 LINE",
"537 767 LINE",
"397 750 LINE",
"397 0 LINE"
);
},
{
closed = 1;
nodes = (
"224 0 LINE",
"224 578 LINE SMOOTH",
"224 632 OFFCURVE",
"243 660 OFFCURVE",
"285 660 CURVE SMOOTH",
"309 660 OFFCURVE",
"328 657 OFFCURVE",
"350 650 CURVE",
"350 750 LINE",
"312 765 OFFCURVE",
"278 771 OFFCURVE",
"236 771 CURVE SMOOTH",
"114 771 OFFCURVE",
"84 678 OFFCURVE",
"84 596 CURVE SMOOTH",
"84 0 LINE"
);
},
{
closed = 1;
nodes = (
"313 458 LINE",
"326 563 LINE",
"15 563 LINE",
"15 458 LINE"
);
}
);
};
components = (
{
name = f;
},
{
name = l;
transform = "{1, 0, 0, 1, 330, 0}";
}
);
layerId = "849A9C4C-BF7C-40C5-8614-1FD725A2A379";
width = 570;
}
);
leftKerningGroup = f;
leftMetricsKey = f;
rightKerningGroup = l;
rightMetricsKey = l;
unicode = FB02;
},
{
color = 0;
export = 0;
glyphname = d_bowl;
lastChange = "2023-02-02 16:23:56 +0000";
layers = (
{
background = {
paths = (
{
closed = 1;
nodes = (
"345 -13 OFFCURVE",
"424 94 OFFCURVE",
"424 279 CURVE SMOOTH",
"424 456 OFFCURVE",
"345 570 OFFCURVE",
"210 570 CURVE SMOOTH",
"74 570 OFFCURVE",
"-2 454 OFFCURVE",
"-2 279 CURVE SMOOTH",
"-2 95 OFFCURVE",
"75 -13 OFFCURVE",
"210 -13 CURVE SMOOTH"
);
},
{
closed = 1;
nodes = (
"151 90 OFFCURVE",
"141 183 OFFCURVE",
"141 279 CURVE SMOOTH",
"141 362 OFFCURVE",
"150 467 OFFCURVE",
"210 467 CURVE SMOOTH",
"270 467 OFFCURVE",
"281 361 OFFCURVE",
"281 279 CURVE SMOOTH",
"281 183 OFFCURVE",
"270 90 OFFCURVE",
"210 90 CURVE SMOOTH"
);
}
);
};
layerId = "849A9C4C-BF7C-40C5-8614-1FD725A2A379";
paths = (
{
closed = 1;
nodes = (
"262 466 OFFCURVE",
"278 404 OFFCURVE",
"278 320 CURVE",
"301 408 LINE",
"301 488 OFFCURVE",
"267 570 OFFCURVE",
"172 570 CURVE SMOOTH",
"55 570 OFFCURVE",
"-2 442 OFFCURVE",
"-2 278 CURVE SMOOTH",
"-2 98 OFFCURVE",
"55 -13 OFFCURVE",
"165 -13 CURVE SMOOTH",
"255 -13 OFFCURVE",
"301 54 OFFCURVE",
"301 145 CURVE",
"278 235 LINE",
"278 149 OFFCURVE",
"262 91 OFFCURVE",
"211 91 CURVE SMOOTH",
"161 91 OFFCURVE",
"141 167 OFFCURVE",
"141 279 CURVE SMOOTH",
"141 390 OFFCURVE",
"161 466 OFFCURVE",
"214 466 CURVE SMOOTH"
);
}
);
width = 278;
}
);
},
{
color = 0;
export = 0;
glyphname = n_arch;
lastChange = "2023-02-02 16:23:56 +0000";
layers = (
{
background = {
paths = (
{
closed = 1;
nodes = (
"0 287 LINE",
"0 382 OFFCURVE",
"32 454 OFFCURVE",
"79 454 CURVE SMOOTH",
"128 454 OFFCURVE",
"134 408 OFFCURVE",
"134 348 CURVE SMOOTH",
"134 0 LINE",
"274 0 LINE",
"274 404 LINE SMOOTH",
"274 521 OFFCURVE",
"223 573 OFFCURVE",
"144 573 CURVE SMOOTH",
"67 573 OFFCURVE",
"6 526 OFFCURVE",
"-10 418 CURVE"
);
}
);
};
layerId = "849A9C4C-BF7C-40C5-8614-1FD725A2A379";
paths = (
{
closed = 1;
nodes = (
"0 287 LINE",
"0 382 OFFCURVE",
"32 454 OFFCURVE",
"79 454 CURVE SMOOTH",
"128 454 OFFCURVE",
"134 408 OFFCURVE",
"134 348 CURVE SMOOTH",
"134 0 LINE",
"274 0 LINE",
"274 404 LINE SMOOTH",
"274 521 OFFCURVE",
"223 573 OFFCURVE",
"144 573 CURVE SMOOTH",
"67 573 OFFCURVE",
"6 526 OFFCURVE",
"-10 418 CURVE"
);
}
);
width = 274;
}
);
},
{
glyphname = ordfeminine;
lastChange = "2023-02-09 14:04:55 +0000";
layers = (
{
background = {
anchors = (
{
name = bottom;
position = "{187.464, 332}";
},
{
name = ogonek;
position = "{386.454, 328.996}";
},
{
name = top;
position = "{194.222, 754.762}";
}
);
paths = (
{
closed = 1;
nodes = (
"114 600 OFFCURVE",
"23 561 OFFCURVE",
"23 448 CURVE SMOOTH",
"23 372 OFFCURVE",
"65 324 OFFCURVE",
"131.145 324.491 CURVE SMOOTH",
"184 325 OFFCURVE",
"222 356 OFFCURVE",
"230 403 CURVE",
"218 453 LINE",
"218.251 429.618 OFFCURVE",
"199 407 OFFCURVE",
"173 407 CURVE SMOOTH",
"148 407 OFFCURVE",
"130 425 OFFCURVE",
"130 463 CURVE SMOOTH",
"130 507 OFFCURVE",
"164 540 OFFCURVE",
"218 540 CURVE",
"218 600 LINE"
);
},
{
closed = 1;
nodes = (
"225.009 372.549 OFFCURVE",
"228.013 353.025 OFFCURVE",
"235.522 332 CURVE",
"346 332 LINE",
"334 366 OFFCURVE",
"331 395 OFFCURVE",
"331 436 CURVE SMOOTH",
"331 606 LINE SMOOTH",
"331 706 OFFCURVE",
"287 768 OFFCURVE",
"185 768 CURVE SMOOTH",
"94 768 OFFCURVE",
"45 717 OFFCURVE",
"38 643 CURVE",
"144 625 LINE",
"146 655 OFFCURVE",
"154 682 OFFCURVE",
"181 682 CURVE SMOOTH",
"212 682 OFFCURVE",
"218.251 649.634 OFFCURVE",
"218.251 617.345 CURVE SMOOTH",
"218.251 396.578 LINE",
"225.009 396.578 LINE"
);
}
);
};
layerId = "849A9C4C-BF7C-40C5-8614-1FD725A2A379";
paths = (
{
closed = 1;
nodes = (
"114 600 OFFCURVE",
"23 561 OFFCURVE",
"23 448 CURVE SMOOTH",
"23 372 OFFCURVE",
"65 324 OFFCURVE",
"131 324 CURVE SMOOTH",
"184 324 OFFCURVE",
"222 356 OFFCURVE",
"230 403 CURVE",
"218 453 LINE",
"218 430 OFFCURVE",
"199 407 OFFCURVE",
"173 407 CURVE SMOOTH",
"148 407 OFFCURVE",
"130 425 OFFCURVE",
"130 463 CURVE SMOOTH",
"130 507 OFFCURVE",
"164 540 OFFCURVE",
"218 540 CURVE",
"218 600 LINE"
);
},
{
closed = 1;
nodes = (
"225 373 OFFCURVE",
"228 353 OFFCURVE",
"236 332 CURVE",
"346 332 LINE",
"334 366 OFFCURVE",
"331 395 OFFCURVE",
"331 436 CURVE SMOOTH",
"331 606 LINE SMOOTH",
"331 706 OFFCURVE",
"287 768 OFFCURVE",
"185 768 CURVE SMOOTH",
"94 768 OFFCURVE",
"45 717 OFFCURVE",
"38 643 CURVE",
"144 625 LINE",
"146 655 OFFCURVE",
"154 682 OFFCURVE",
"181 682 CURVE SMOOTH",
"212 682 OFFCURVE",
"218 650 OFFCURVE",
"218 617 CURVE SMOOTH",
"218 397 LINE",
"225 397 LINE"
);
}
);
width = 378;
}
);
leftKerningGroup = ord;
rightKerningGroup = ord;
unicode = 00AA;
},
{
color = 4;
glyphname = ordmasculine;
lastChange = "2023-02-09 14:04:55 +0000";
layers = (
{
background = {
anchors = (
{
name = bottom;
position = "{203, 331}";
},
{
name = center;
position = "{207, 544}";
},
{
name = ogonek;
position = "{339, 335}";
},
{
name = top;
position = "{207, 759}";
},
{
name = topright;
position = "{382, 759}";
}
);
paths = (
{
closed = 1;
nodes = (
"314 325 OFFCURVE",
"384 407 OFFCURVE",
"384 547 CURVE SMOOTH",
"384 679 OFFCURVE",
"314 766 OFFCURVE",
"206 766 CURVE SMOOTH",
"98 766 OFFCURVE",
"30 677 OFFCURVE",
"30 547 CURVE SMOOTH",
"30 408 OFFCURVE",
"98 325 OFFCURVE",
"206 325 CURVE SMOOTH"
);
},
{
closed = 1;
nodes = (
"164 407 OFFCURVE",
"148 465 OFFCURVE",
"148 545 CURVE SMOOTH",
"148 615 OFFCURVE",
"164 679 OFFCURVE",
"206 679 CURVE SMOOTH",
"251 679 OFFCURVE",
"267 615 OFFCURVE",
"267 545 CURVE SMOOTH",
"267 465 OFFCURVE",
"251 407 OFFCURVE",
"206 407 CURVE SMOOTH"
);
}
);
};
layerId = "849A9C4C-BF7C-40C5-8614-1FD725A2A379";
paths = (
{
closed = 1;
nodes = (
"318 325 OFFCURVE",
"384 406 OFFCURVE",
"384 546 CURVE SMOOTH",
"384 680 OFFCURVE",
"318 766 OFFCURVE",
"206 766 CURVE SMOOTH",
"93 766 OFFCURVE",
"30 678 OFFCURVE",
"30 546 CURVE SMOOTH",
"30 407 OFFCURVE",
"94 325 OFFCURVE",
"206 325 CURVE SMOOTH"
);
},
{
closed = 1;
nodes = (
"157 416 OFFCURVE",
"149 480 OFFCURVE",
"149 546 CURVE SMOOTH",
"149 603 OFFCURVE",
"156 675 OFFCURVE",
"206 675 CURVE SMOOTH",
"256 675 OFFCURVE",
"265 602 OFFCURVE",
"265 546 CURVE SMOOTH",
"265 480 OFFCURVE",
"256 416 OFFCURVE",
"206 416 CURVE SMOOTH"
);
}
);
width = 414;
}
);
leftKerningGroup = ord;
rightKerningGroup = ord;
unicode = 00BA;
},
{
color = 4;
glyphname = Delta;
lastChange = "2023-02-08 12:36:06 +0000";
layers = (
{
background = {
paths = (
{
closed = 1;
nodes = (
"262 644 LINE",
"387 0 LINE",
"518 0 LINE",
"366 762 LINE",
"153 736 LINE",
"15 0 LINE",
"146 0 LINE"
);
},
{
closed = 1;
nodes = (
"128 0 LINE",
"425 0 LINE",
"425 122 LINE",
"128 122 LINE"
);
}
);
};
layerId = "849A9C4C-BF7C-40C5-8614-1FD725A2A379";
paths = (
{
closed = 1;
nodes = (
"518 0 LINE",
"366 762 LINE",
"153 736 LINE",
"15 0 LINE"
);
},
{
closed = 1;
nodes = (
"262 644 LINE",
"363 122 LINE",
"168 122 LINE"
);
}
);
width = 533;
}
);
leftMetricsKey = A;
rightMetricsKey = A;
unicode = 0394;
},
{
glyphname = Omega;
lastChange = "2023-02-02 16:23:56 +0000";
layers = (
{
background = {
paths = (
{
closed = 1;
nodes = (
"494 225 OFFCURVE",
"536 338 OFFCURVE",
"536 465 CURVE SMOOTH",
"536 622 OFFCURVE",
"460 764 OFFCURVE",
"292 764 CURVE SMOOTH",
"125 764 OFFCURVE",
"48 622 OFFCURVE",
"48 465 CURVE SMOOTH",
"48 338 OFFCURVE",
"91 226 OFFCURVE",
"150 120 CURVE",
"40 120 LINE",
"55 0 LINE",
"249 0 LINE",
"260 92 LINE",
"212 225 OFFCURVE",
"203 346 OFFCURVE",
"203 444 CURVE SMOOTH",
"203 542 OFFCURVE",
"214 641 OFFCURVE",
"292 641 CURVE SMOOTH",
"371 641 OFFCURVE",
"381 542 OFFCURVE",
"381 444 CURVE SMOOTH",
"381 346 OFFCURVE",
"373 223 OFFCURVE",
"324 91 CURVE",
"335 0 LINE",
"529 0 LINE",
"544 120 LINE",
"435 120 LINE"
);
}
);
};
layerId = "849A9C4C-BF7C-40C5-8614-1FD725A2A379";
paths = (
{
closed = 1;
nodes = (
"494 225 OFFCURVE",
"536 338 OFFCURVE",
"536 465 CURVE SMOOTH",
"536 622 OFFCURVE",
"460 764 OFFCURVE",
"292 764 CURVE SMOOTH",
"125 764 OFFCURVE",
"48 622 OFFCURVE",
"48 465 CURVE SMOOTH",
"48 338 OFFCURVE",
"91 226 OFFCURVE",
"150 120 CURVE",
"40 120 LINE",
"55 0 LINE",
"249 0 LINE",
"260 92 LINE",
"212 225 OFFCURVE",
"203 346 OFFCURVE",
"203 444 CURVE SMOOTH",
"203 542 OFFCURVE",
"214 641 OFFCURVE",
"292 641 CURVE SMOOTH",
"371 641 OFFCURVE",
"381 542 OFFCURVE",
"381 444 CURVE SMOOTH",
"381 346 OFFCURVE",
"373 223 OFFCURVE",
"324 91 CURVE",
"335 0 LINE",
"529 0 LINE",
"544 120 LINE",
"435 120 LINE"
);
}
);
width = 584;
}
);
unicode = 03A9;
},
{
color = 4;
glyphname = mu;
lastChange = "2023-02-08 12:38:11 +0000";
layers = (
{
background = {
paths = (
{
closed = 1;
nodes = (
"319 547 LINE",
"319 273 LINE SMOOTH",
"319 178 OFFCURVE",
"288 106 OFFCURVE",
"243 106 CURVE SMOOTH",
"196 106 OFFCURVE",
"190 152 OFFCURVE",
"190 212 CURVE SMOOTH",
"190 564 LINE",
"50 547 LINE",
"50 156 LINE SMOOTH",
"50 39 OFFCURVE",
"100 -13 OFFCURVE",
"178 -13 CURVE SMOOTH",
"245 -13 OFFCURVE",
"299 24 OFFCURVE",
"322 108 CURVE",
"322 0 LINE",
"459 0 LINE",
"459 564 LINE"
);
}
);
};
layerId = "849A9C4C-BF7C-40C5-8614-1FD725A2A379";
paths = (
{
closed = 1;
nodes = (
"190 -164 LINE",
"190 19 LINE",
"204 -1 OFFCURVE",
"225 -5 OFFCURVE",
"241 -5 CURVE SMOOTH",
"285 -5 OFFCURVE",
"310 31 OFFCURVE",
"322 68 CURVE",
"322 0 LINE",
"459 0 LINE",
"459 564 LINE",
"319 547 LINE",
"319 273 LINE SMOOTH",
"319 178 OFFCURVE",
"288 106 OFFCURVE",
"243 106 CURVE SMOOTH",
"196 106 OFFCURVE",
"190 149 OFFCURVE",
"190 212 CURVE SMOOTH",
"190 564 LINE",
"50 547 LINE",
"50 -181 LINE"
);
}
);
width = 509;
}
);
leftMetricsKey = n;
rightMetricsKey = u;
unicode = 03BC;
},
{
color = 4;
glyphname = pi;
lastChange = "2023-02-08 12:39:52 +0000";
layers = (
{
background = {
paths = (
{
closed = 1;
nodes = (
"42 445 LINE",
"552 445 LINE",
"566 563 LINE",
"42 563 LINE"
);
},
{
closed = 1;
nodes = (
"523 -9 OFFCURVE",
"537 -7 OFFCURVE",
"562 1 CURVE",
"574 97 LINE",
"565 94 OFFCURVE",
"554 92 OFFCURVE",
"543 92 CURVE SMOOTH",
"504 92 OFFCURVE",
"479 115 OFFCURVE",
"479 163 CURVE SMOOTH",
"479 514 LINE",
"345 514 LINE",
"345 152 LINE SMOOTH",
"345 45 OFFCURVE",
"410 -9 OFFCURVE",
"489 -9 CURVE SMOOTH"
);
},
{
closed = 1;
nodes = (
"243 0 LINE",
"243 515 LINE",
"107 515 LINE",
"107 0 LINE"
);
}
);
};
layerId = "849A9C4C-BF7C-40C5-8614-1FD725A2A379";
paths = (
{
closed = 1;
nodes = (
"42 442 LINE",
"107 442 LINE",
"107 0 LINE",
"243 0 LINE",
"243 442 LINE",
"345 442 LINE",
"345 152 LINE SMOOTH",
"345 45 OFFCURVE",
"410 -9 OFFCURVE",
"489 -9 CURVE SMOOTH",
"523 -9 OFFCURVE",
"537 -7 OFFCURVE",
"562 1 CURVE",
"574 97 LINE",
"565 94 OFFCURVE",
"554 92 OFFCURVE",
"543 92 CURVE SMOOTH",
"504 92 OFFCURVE",
"479 115 OFFCURVE",
"479 163 CURVE SMOOTH",
"479 442 LINE",
"552 442 LINE",
"566 560 LINE",
"42 560 LINE"
);
}
);
width = 600;
}
);
unicode = 03C0;
},
{
glyphname = zero;
lastChange = "2023-02-14 11:49:33 +0000";
layers = (
{
anchors = (
{
name = center;
position = "{272, 383}";
}
);
background = {
anchors = (
{
name = center;
position = "{272, 383}";
}
);
paths = (
{
closed = 1;
nodes = (
"461 -14 OFFCURVE",
"500 193 OFFCURVE",
"500 375 CURVE SMOOTH",
"500 562 OFFCURVE",
"461 764 OFFCURVE",
"270 764 CURVE SMOOTH",
"79 764 OFFCURVE",
"40 561 OFFCURVE",
"40 375 CURVE SMOOTH",
"40 192 OFFCURVE",
"79 -14 OFFCURVE",
"270 -14 CURVE SMOOTH"
);
},
{
closed = 1;
nodes = (
"202 102 OFFCURVE",
"188 216 OFFCURVE",
"188 375 CURVE SMOOTH",
"188 530 OFFCURVE",
"202 648 OFFCURVE",
"270 648 CURVE SMOOTH",
"338 648 OFFCURVE",
"352 531 OFFCURVE",
"352 375 CURVE SMOOTH",
"352 217 OFFCURVE",
"338 102 OFFCURVE",
"270 102 CURVE SMOOTH"
);
}
);
};
layerId = "849A9C4C-BF7C-40C5-8614-1FD725A2A379";
paths = (
{
closed = 1;
nodes = (
"461 -14 OFFCURVE",
"500 193 OFFCURVE",
"500 375 CURVE SMOOTH",
"500 562 OFFCURVE",
"461 764 OFFCURVE",
"270 764 CURVE SMOOTH",
"79 764 OFFCURVE",
"40 561 OFFCURVE",
"40 375 CURVE SMOOTH",
"40 192 OFFCURVE",
"79 -14 OFFCURVE",
"270 -14 CURVE SMOOTH"
);
},
{
closed = 1;
nodes = (
"202 102 OFFCURVE",
"188 216 OFFCURVE",
"188 375 CURVE SMOOTH",
"188 530 OFFCURVE",
"202 648 OFFCURVE",
"270 648 CURVE SMOOTH",
"338 648 OFFCURVE",
"352 531 OFFCURVE",
"352 375 CURVE SMOOTH",
"352 217 OFFCURVE",
"338 102 OFFCURVE",
"270 102 CURVE SMOOTH"
);
}
);
width = 540;
}
);
leftKerningGroup = zero;
rightKerningGroup = zero;
unicode = 0030;
},
{
glyphname = one;
lastChange = "2023-02-14 11:55:51 +0000";
layers = (
{
background = {
paths = (
{
closed = 1;
nodes = (
"284 0 LINE",
"284 749 LINE",
"213 758 LINE",
"164 705 OFFCURVE",
"114 683 OFFCURVE",
"20 668 CURVE",
"44 556 LINE",
"83 558 OFFCURVE",
"114 563 OFFCURVE",
"147 574 CURVE",
"147 0 LINE"
);
}
);
};
layerId = "849A9C4C-BF7C-40C5-8614-1FD725A2A379";
paths = (
{
closed = 1;
nodes = (
"284 0 LINE",
"284 749 LINE",
"213 758 LINE",
"164 705 OFFCURVE",
"114 683 OFFCURVE",
"20 668 CURVE",
"44 556 LINE",
"83 558 OFFCURVE",
"114 563 OFFCURVE",
"147 574 CURVE",
"147 0 LINE"
);
}
);
width = 344;
}
);
leftKerningGroup = one;
rightKerningGroup = H;
unicode = 0031;
},
{
glyphname = two;
lastChange = "2023-02-14 11:49:41 +0000";
layers = (
{
background = {
paths = (
{
closed = 1;
nodes = (
"457 0 LINE",
"472 118 LINE",
"207 118 LINE",
"353 238 OFFCURVE",
"453 373 OFFCURVE",
"453 531 CURVE SMOOTH",
"453 666 OFFCURVE",
"386 764 OFFCURVE",
"250 764 CURVE SMOOTH",
"103 764 OFFCURVE",
"40 666 OFFCURVE",
"40 512 CURVE",
"162 486 LINE",
"162 580 OFFCURVE",
"181 644 OFFCURVE",
"236 644 CURVE SMOOTH",
"291 644 OFFCURVE",
"306 581 OFFCURVE",
"306 515 CURVE SMOOTH",
"306 373 OFFCURVE",
"188 225 OFFCURVE",
"50 108 CURVE",
"64 0 LINE"
);
}
);
};
layerId = "849A9C4C-BF7C-40C5-8614-1FD725A2A379";
paths = (
{
closed = 1;
nodes = (
"457 0 LINE",
"472 118 LINE",
"207 118 LINE",
"353 238 OFFCURVE",
"453 373 OFFCURVE",
"453 531 CURVE SMOOTH",
"453 666 OFFCURVE",
"386 764 OFFCURVE",
"250 764 CURVE SMOOTH",
"103 764 OFFCURVE",
"40 666 OFFCURVE",
"40 512 CURVE",
"162 486 LINE",
"162 580 OFFCURVE",
"181 644 OFFCURVE",
"236 644 CURVE SMOOTH",
"291 644 OFFCURVE",
"306 581 OFFCURVE",
"306 515 CURVE SMOOTH",
"306 373 OFFCURVE",
"188 225 OFFCURVE",
"50 108 CURVE",
"64 0 LINE"
);
}
);
width = 492;
}
);
leftKerningGroup = two;
rightKerningGroup = two;
unicode = 0032;
},
{
color = 4;
glyphname = three;
lastChange = "2023-02-14 11:49:48 +0000";
layers = (
{
background = {
paths = (
{
closed = 1;
nodes = (
"386 -14 OFFCURVE",
"468 86 OFFCURVE",
"468 207 CURVE SMOOTH",
"468 304 OFFCURVE",
"410 376 OFFCURVE",
"290 395 CURVE",
"288 368 LINE",
"412 387 OFFCURVE",
"458 463 OFFCURVE",
"458 555 CURVE SMOOTH",
"458 696 OFFCURVE",
"367 764 OFFCURVE",
"249 764 CURVE SMOOTH",
"128 764 OFFCURVE",
"54 692 OFFCURVE",
"44 558 CURVE",
"162 531 LINE",
"166 598 OFFCURVE",
"192 647 OFFCURVE",
"243 647 CURVE SMOOTH",
"288 647 OFFCURVE",
"318 611 OFFCURVE",
"318 551 CURVE SMOOTH",
"318 467 OFFCURVE",
"270 419 OFFCURVE",
"184 419 CURVE",
"184 331 LINE",
"266 330 OFFCURVE",
"331 292 OFFCURVE",
"331 210 CURVE SMOOTH",
"331 155 OFFCURVE",
"310 104 OFFCURVE",
"243 104 CURVE SMOOTH",
"188 104 OFFCURVE",
"158 152 OFFCURVE",
"156 217 CURVE",
"37 192 LINE",
"40 63 OFFCURVE",
"127 -14 OFFCURVE",
"245 -14 CURVE SMOOTH"
);
}
);
};
layerId = "849A9C4C-BF7C-40C5-8614-1FD725A2A379";
paths = (
{
closed = 1;
nodes = (
"386 -14 OFFCURVE",
"468 86 OFFCURVE",
"468 207 CURVE SMOOTH",
"468 304 OFFCURVE",
"410 376 OFFCURVE",
"290 395 CURVE",
"288 368 LINE",
"412 387 OFFCURVE",
"458 463 OFFCURVE",
"458 555 CURVE SMOOTH",
"458 696 OFFCURVE",
"367 764 OFFCURVE",
"249 764 CURVE SMOOTH",
"128 764 OFFCURVE",
"54 692 OFFCURVE",
"44 558 CURVE",
"162 531 LINE",
"166 598 OFFCURVE",
"192 647 OFFCURVE",
"243 647 CURVE SMOOTH",
"288 647 OFFCURVE",
"318 611 OFFCURVE",
"318 551 CURVE SMOOTH",
"318 467 OFFCURVE",
"270 419 OFFCURVE",
"184 419 CURVE",
"184 331 LINE",
"266 330 OFFCURVE",
"331 292 OFFCURVE",
"331 210 CURVE SMOOTH",
"331 155 OFFCURVE",
"310 104 OFFCURVE",
"243 104 CURVE SMOOTH",
"188 104 OFFCURVE",
"158 152 OFFCURVE",
"156 217 CURVE",
"37 192 LINE",
"40 63 OFFCURVE",
"127 -14 OFFCURVE",
"245 -14 CURVE SMOOTH"
);
}
);
width = 492;
}
);
leftKerningGroup = Three;
rightKerningGroup = B;
unicode = 0033;
},
{
glyphname = four;
lastChange = "2023-02-14 11:39:25 +0000";
layers = (
{
background = {
paths = (
{
closed = 1;
nodes = (
"419 0 LINE",
"419 163 LINE",
"501 163 LINE",
"513 275 LINE",
"418 275 LINE",
"418 750 LINE",
"279 750 LINE",
"213 599 OFFCURVE",
"124 424 OFFCURVE",
"20 252 CURVE",
"34 163 LINE",
"282 163 LINE",
"282 0 LINE"
);
},
{
closed = 1;
nodes = (
"193 375 OFFCURVE",
"246 481 OFFCURVE",
"284 574 CURVE",
"284 275 LINE",
"133 275 LINE"
);
}
);
};
layerId = "849A9C4C-BF7C-40C5-8614-1FD725A2A379";
paths = (
{
closed = 1;
nodes = (
"419 0 LINE",
"419 163 LINE",
"501 163 LINE",
"513 275 LINE",
"418 275 LINE",
"418 750 LINE",
"279 750 LINE",
"213 599 OFFCURVE",
"124 424 OFFCURVE",
"20 252 CURVE",
"34 163 LINE",
"282 163 LINE",
"282 0 LINE"
);
},
{
closed = 1;
nodes = (
"193 375 OFFCURVE",
"246 481 OFFCURVE",
"284 574 CURVE",
"284 275 LINE",
"133 275 LINE"
);
}
);
width = 513;
}
);
leftKerningGroup = four;
rightKerningGroup = four;
unicode = 0034;
},
{
glyphname = five;
lastChange = "2023-02-14 11:28:39 +0000";
layers = (
{
background = {
paths = (
{
closed = 1;
nodes = (
"405 -14 OFFCURVE",
"487 99 OFFCURVE",
"487 257 CURVE SMOOTH",
"487 393 OFFCURVE",
"411 489 OFFCURVE",
"302 489 CURVE SMOOTH",
"246 489 OFFCURVE",
"207 466 OFFCURVE",
"186 439 CURVE",
"201 623 LINE",
"443 623 LINE",
"458 750 LINE",
"98 750 LINE",
"65 350 LINE",
"177 326 LINE",
"195 354 OFFCURVE",
"222 378 OFFCURVE",
"259 378 CURVE SMOOTH",
"322 378 OFFCURVE",
"345 316 OFFCURVE",
"345 246 CURVE SMOOTH",
"345 175 OFFCURVE",
"323 103 OFFCURVE",
"256 103 CURVE SMOOTH",
"204 103 OFFCURVE",
"172 154 OFFCURVE",
"171 216 CURVE",
"50 190 LINE",
"56 52 OFFCURVE",
"149 -14 OFFCURVE",
"264 -14 CURVE SMOOTH"
);
}
);
};
layerId = "849A9C4C-BF7C-40C5-8614-1FD725A2A379";
paths = (
{
closed = 1;
nodes = (
"405 -14 OFFCURVE",
"487 99 OFFCURVE",
"487 257 CURVE SMOOTH",
"487 393 OFFCURVE",
"411 489 OFFCURVE",
"302 489 CURVE SMOOTH",
"246 489 OFFCURVE",
"207 466 OFFCURVE",
"186 439 CURVE",
"201 623 LINE",
"443 623 LINE",
"458 750 LINE",
"98 750 LINE",
"65 350 LINE",
"177 326 LINE",
"195 354 OFFCURVE",
"222 378 OFFCURVE",
"259 378 CURVE SMOOTH",
"322 378 OFFCURVE",
"345 316 OFFCURVE",
"345 246 CURVE SMOOTH",
"345 175 OFFCURVE",
"323 103 OFFCURVE",
"256 103 CURVE SMOOTH",
"204 103 OFFCURVE",
"172 154 OFFCURVE",
"171 216 CURVE",
"50 190 LINE",
"56 52 OFFCURVE",
"149 -14 OFFCURVE",
"264 -14 CURVE SMOOTH"
);
}
);
width = 517;
}
);
leftKerningGroup = five;
rightKerningGroup = five;
unicode = 0035;
},
{
glyphname = six;
lastChange = "2023-02-14 10:55:19 +0000";
layers = (
{
background = {
paths = (
{
closed = 1;
nodes = (
"412 -14 OFFCURVE",
"493 101 OFFCURVE",
"493 245 CURVE SMOOTH",
"493 387 OFFCURVE",
"424 474 OFFCURVE",
"300 474 CURVE SMOOTH",
"250 474 OFFCURVE",
"206 446 OFFCURVE",
"179 401 CURVE",
"179 534 OFFCURVE",
"201 649 OFFCURVE",
"275 649 CURVE SMOOTH",
"328 649 OFFCURVE",
"348 595 OFFCURVE",
"358 533 CURVE",
"480 560 LINE",
"463 689 OFFCURVE",
"401 764 OFFCURVE",
"275 764 CURVE SMOOTH",
"99 764 OFFCURVE",
"40 602 OFFCURVE",
"40 369 CURVE SMOOTH",
"40 135 OFFCURVE",
"99 -14 OFFCURVE",
"278 -14 CURVE SMOOTH"
);
},
{
closed = 1;
nodes = (
"206 101 OFFCURVE",
"185 159 OFFCURVE",
"185 245 CURVE SMOOTH",
"185 313 OFFCURVE",
"212 366 OFFCURVE",
"270 366 CURVE SMOOTH",
"328 366 OFFCURVE",
"351 313 OFFCURVE",
"351 245 CURVE SMOOTH",
"351 159 OFFCURVE",
"327 101 OFFCURVE",
"277 101 CURVE SMOOTH"
);
}
);
};
layerId = "849A9C4C-BF7C-40C5-8614-1FD725A2A379";
paths = (
{
closed = 1;
nodes = (
"412 -14 OFFCURVE",
"493 101 OFFCURVE",
"493 245 CURVE SMOOTH",
"493 387 OFFCURVE",
"424 474 OFFCURVE",
"300 474 CURVE SMOOTH",
"250 474 OFFCURVE",
"206 446 OFFCURVE",
"179 401 CURVE",
"179 534 OFFCURVE",
"201 649 OFFCURVE",
"275 649 CURVE SMOOTH",
"328 649 OFFCURVE",
"348 595 OFFCURVE",
"358 533 CURVE",
"480 560 LINE",
"463 689 OFFCURVE",
"401 764 OFFCURVE",
"275 764 CURVE SMOOTH",
"99 764 OFFCURVE",
"40 602 OFFCURVE",
"40 369 CURVE SMOOTH",
"40 135 OFFCURVE",
"99 -14 OFFCURVE",
"278 -14 CURVE SMOOTH"
);
},
{
closed = 1;
nodes = (
"206 101 OFFCURVE",
"185 159 OFFCURVE",
"185 245 CURVE SMOOTH",
"185 313 OFFCURVE",
"212 366 OFFCURVE",
"270 366 CURVE SMOOTH",
"328 366 OFFCURVE",
"351 313 OFFCURVE",
"351 245 CURVE SMOOTH",
"351 159 OFFCURVE",
"327 101 OFFCURVE",
"277 101 CURVE SMOOTH"
);
}
);
width = 528;
}
);
leftKerningGroup = zero;
rightKerningGroup = six;
unicode = 0036;
},
{
glyphname = seven;
lastChange = "2023-02-14 11:56:00 +0000";
layers = (
{
background = {
paths = (
{
closed = 1;
nodes = (
"268 0 LINE",
"269 260 OFFCURVE",
"324 466 OFFCURVE",
"453 648 CURVE",
"431 750 LINE",
"20 750 LINE",
"20 634 LINE",
"323 634 LINE",
"205 466 OFFCURVE",
"126 271 OFFCURVE",
"119 0 CURVE"
);
}
);
};
layerId = "849A9C4C-BF7C-40C5-8614-1FD725A2A379";
paths = (
{
closed = 1;
nodes = (
"268 0 LINE",
"269 260 OFFCURVE",
"324 466 OFFCURVE",
"453 648 CURVE",
"431 750 LINE",
"20 750 LINE",
"20 634 LINE",
"323 634 LINE",
"205 466 OFFCURVE",
"126 271 OFFCURVE",
"119 0 CURVE"
);
}
);
width = 468;
}
);
leftKerningGroup = seven;
rightKerningGroup = seven;
unicode = 0037;
},
{
color = 4;
glyphname = eight;
lastChange = "2023-02-14 11:06:48 +0000";
layers = (
{
background = {
paths = (
{
closed = 1;
nodes = (
"404 -14 OFFCURVE",
"501 75 OFFCURVE",
"501 196 CURVE SMOOTH",
"501 301 OFFCURVE",
"447 363 OFFCURVE",
"355 411 CURVE",
"345 384 LINE",
"427 427 OFFCURVE",
"479 488 OFFCURVE",
"479 573 CURVE SMOOTH",
"479 689 OFFCURVE",
"392 764 OFFCURVE",
"276 764 CURVE SMOOTH",
"157 764 OFFCURVE",
"58 683 OFFCURVE",
"58 564 CURVE SMOOTH",
"58 475 OFFCURVE",
"99 409 OFFCURVE",
"180 369 CURVE",
"190 397 LINE",
"109 359 OFFCURVE",
"39 292 OFFCURVE",
"39 203 CURVE SMOOTH",
"39 52 OFFCURVE",
"149 -14 OFFCURVE",
"267 -14 CURVE SMOOTH"
);
},
{
closed = 1;
nodes = (
"212 104 OFFCURVE",
"178 148 OFFCURVE",
"178 200 CURVE SMOOTH",
"178 261 OFFCURVE",
"211 306 OFFCURVE",
"264 340 CURVE",
"224 340 LINE",
"306 307 OFFCURVE",
"358 261 OFFCURVE",
"358 196 CURVE SMOOTH",
"358 149 OFFCURVE",
"327 104 OFFCURVE",
"273 104 CURVE SMOOTH"
);
},
{
closed = 1;
nodes = (
"311 435 LINE",
"235 469 OFFCURVE",
"195 506 OFFCURVE",
"195 564 CURVE SMOOTH",
"195 616 OFFCURVE",
"230 650 OFFCURVE",
"275 650 CURVE SMOOTH",
"324 650 OFFCURVE",
"356 616 OFFCURVE",
"356 563 CURVE SMOOTH",
"356 516 OFFCURVE",
"336 479 OFFCURVE",
"273 435 CURVE"
);
}
);
};
layerId = "849A9C4C-BF7C-40C5-8614-1FD725A2A379";
paths = (
{
closed = 1;
nodes = (
"404 -14 OFFCURVE",
"501 75 OFFCURVE",
"501 196 CURVE SMOOTH",
"501 301 OFFCURVE",
"447 363 OFFCURVE",
"355 411 CURVE",
"345 384 LINE",
"427 427 OFFCURVE",
"479 488 OFFCURVE",
"479 573 CURVE SMOOTH",
"479 689 OFFCURVE",
"392 764 OFFCURVE",
"276 764 CURVE SMOOTH",
"157 764 OFFCURVE",
"58 683 OFFCURVE",
"58 564 CURVE SMOOTH",
"58 475 OFFCURVE",
"99 409 OFFCURVE",
"180 369 CURVE",
"190 397 LINE",
"109 359 OFFCURVE",
"39 292 OFFCURVE",
"39 203 CURVE SMOOTH",
"39 52 OFFCURVE",
"149 -14 OFFCURVE",
"267 -14 CURVE SMOOTH"
);
},
{
closed = 1;
nodes = (
"212 104 OFFCURVE",
"178 148 OFFCURVE",
"178 200 CURVE SMOOTH",
"178 261 OFFCURVE",
"211 306 OFFCURVE",
"264 340 CURVE",
"224 340 LINE",
"306 307 OFFCURVE",
"358 261 OFFCURVE",
"358 196 CURVE SMOOTH",
"358 149 OFFCURVE",
"327 104 OFFCURVE",
"273 104 CURVE SMOOTH"
);
},
{
closed = 1;
nodes = (
"311 435 LINE",
"235 469 OFFCURVE",
"195 506 OFFCURVE",
"195 564 CURVE SMOOTH",
"195 616 OFFCURVE",
"230 650 OFFCURVE",
"275 650 CURVE SMOOTH",
"324 650 OFFCURVE",
"356 616 OFFCURVE",
"356 563 CURVE SMOOTH",
"356 516 OFFCURVE",
"336 479 OFFCURVE",
"273 435 CURVE"
);
}
);
width = 539;
}
);
leftKerningGroup = eight;
rightKerningGroup = eight;
unicode = 0038;
},
{
glyphname = nine;
lastChange = "2023-02-14 11:27:17 +0000";
layers = (
{
background = {
paths = (
{
closed = 1;
nodes = (
"108 765 OFFCURVE",
"35 658 OFFCURVE",
"35 507 CURVE SMOOTH",
"35 375 OFFCURVE",
"104 277 OFFCURVE",
"227 277 CURVE SMOOTH",
"286 277 OFFCURVE",
"330 300 OFFCURVE",
"356 346 CURVE",
"356 238 OFFCURVE",
"347 103 OFFCURVE",
"261 103 CURVE SMOOTH",
"201 103 OFFCURVE",
"177 153 OFFCURVE",
"168 211 CURVE",
"44 185 LINE",
"62 63 OFFCURVE",
"135 -13 OFFCURVE",
"253 -13 CURVE SMOOTH",
"451 -13 OFFCURVE",
"491 171 OFFCURVE",
"491 389 CURVE SMOOTH",
"491 637 OFFCURVE",
"421 765 OFFCURVE",
"254 765 CURVE SMOOTH"
);
},
{
closed = 1;
nodes = (
"320 650 OFFCURVE",
"345 588 OFFCURVE",
"345 515 CURVE SMOOTH",
"345 431 OFFCURVE",
"314 380 OFFCURVE",
"262 380 CURVE SMOOTH",
"204 380 OFFCURVE",
"176 431 OFFCURVE",
"176 515 CURVE SMOOTH",
"176 589 OFFCURVE",
"199 650 OFFCURVE",
"259 650 CURVE SMOOTH"
);
}
);
};
layerId = "849A9C4C-BF7C-40C5-8614-1FD725A2A379";
paths = (
{
closed = 1;
nodes = (
"108 765 OFFCURVE",
"35 658 OFFCURVE",
"35 507 CURVE SMOOTH",
"35 375 OFFCURVE",
"104 277 OFFCURVE",
"227 277 CURVE SMOOTH",
"286 277 OFFCURVE",
"330 300 OFFCURVE",
"356 346 CURVE",
"356 238 OFFCURVE",
"347 103 OFFCURVE",
"261 103 CURVE SMOOTH",
"201 103 OFFCURVE",
"177 153 OFFCURVE",
"168 211 CURVE",
"44 185 LINE",
"62 63 OFFCURVE",
"135 -13 OFFCURVE",
"253 -13 CURVE SMOOTH",
"451 -13 OFFCURVE",
"491 171 OFFCURVE",
"491 389 CURVE SMOOTH",
"491 637 OFFCURVE",
"421 765 OFFCURVE",
"254 765 CURVE SMOOTH"
);
},
{
closed = 1;
nodes = (
"320 650 OFFCURVE",
"345 588 OFFCURVE",
"345 515 CURVE SMOOTH",
"345 431 OFFCURVE",
"314 380 OFFCURVE",
"262 380 CURVE SMOOTH",
"204 380 OFFCURVE",
"176 431 OFFCURVE",
"176 515 CURVE SMOOTH",
"176 589 OFFCURVE",
"199 650 OFFCURVE",
"259 650 CURVE SMOOTH"
);
}
);
width = 531;
}
);
leftKerningGroup = nine;
rightKerningGroup = zero;
unicode = 0039;
},
{
glyphname = zero.zero;
lastChange = "2023-02-10 11:49:50 +0000";
layers = (
{
anchors = (
{
name = center;
position = "{273, 383}";
}
);
background = {
paths = (
{
closed = 1;
nodes = (
"188 136 LINE",
"203 151 LINE",
"417 611 LINE",
"436 627 LINE",
"359 630 LINE",
"340 605 LINE",
"125 144 LINE",
"101 121 LINE"
);
},
{
closed = 1;
nodes = (
"461 -14 OFFCURVE",
"500 193 OFFCURVE",
"500 375 CURVE SMOOTH",
"500 562 OFFCURVE",
"461 764 OFFCURVE",
"270 764 CURVE SMOOTH",
"79 764 OFFCURVE",
"40 561 OFFCURVE",
"40 375 CURVE SMOOTH",
"40 192 OFFCURVE",
"79 -14 OFFCURVE",
"270 -14 CURVE SMOOTH"
);
},
{
closed = 1;
nodes = (
"197 102 OFFCURVE",
"182 216 OFFCURVE",
"182 375 CURVE SMOOTH",
"182 530 OFFCURVE",
"197 648 OFFCURVE",
"270 648 CURVE SMOOTH",
"343 648 OFFCURVE",
"358 531 OFFCURVE",
"358 375 CURVE SMOOTH",
"358 217 OFFCURVE",
"343 102 OFFCURVE",
"270 102 CURVE SMOOTH"
);
}
);
};
layerId = "849A9C4C-BF7C-40C5-8614-1FD725A2A379";
paths = (
{
closed = 1;
nodes = (
"461 -14 OFFCURVE",
"500 193 OFFCURVE",
"500 375 CURVE SMOOTH",
"500 562 OFFCURVE",
"461 764 OFFCURVE",
"270 764 CURVE SMOOTH",
"79 764 OFFCURVE",
"40 561 OFFCURVE",
"40 375 CURVE SMOOTH",
"40 192 OFFCURVE",
"79 -14 OFFCURVE",
"270 -14 CURVE SMOOTH"
);
},
{
closed = 1;
nodes = (
"182 530 OFFCURVE",
"197 648 OFFCURVE",
"270 648 CURVE SMOOTH",
"300 648 OFFCURVE",
"321 628 OFFCURVE",
"334 593 CURVE",
"185 273 LINE",
"183 304 OFFCURVE",
"182 338 OFFCURVE",
"182 375 CURVE SMOOTH"
);
},
{
closed = 1;
nodes = (
"355 478 LINE",
"357 446 OFFCURVE",
"358 412 OFFCURVE",
"358 375 CURVE SMOOTH",
"358 217 OFFCURVE",
"343 102 OFFCURVE",
"270 102 CURVE SMOOTH",
"239 102 OFFCURVE",
"219 122 OFFCURVE",
"206 157 CURVE"
);
}
);
width = 540;
}
);
leftKerningGroup = zero;
leftMetricsKey = zero;
rightKerningGroup = zero;
rightMetricsKey = zero;
},
{
glyphname = zero.osf;
lastChange = "2023-02-14 11:39:36 +0000";
layers = (
{
background = {
paths = (
{
closed = 1;
nodes = (
"391 -13 OFFCURVE",
"462 105 OFFCURVE",
"462 281 CURVE SMOOTH",
"462 449 OFFCURVE",
"391 570 OFFCURVE",
"245 570 CURVE SMOOTH",
"97 570 OFFCURVE",
"30 447 OFFCURVE",
"30 281 CURVE SMOOTH",
"30 106 OFFCURVE",
"98 -13 OFFCURVE",
"245 -13 CURVE SMOOTH"
);
},
{
closed = 1;
nodes = (
"183 88 OFFCURVE",
"166 171 OFFCURVE",
"166 278 CURVE SMOOTH",
"166 376 OFFCURVE",
"182 463 OFFCURVE",
"245 463 CURVE SMOOTH",
"308 463 OFFCURVE",
"326 375 OFFCURVE",
"326 278 CURVE SMOOTH",
"326 171 OFFCURVE",
"308 88 OFFCURVE",
"245 88 CURVE SMOOTH"
);
}
);
};
layerId = "849A9C4C-BF7C-40C5-8614-1FD725A2A379";
paths = (
{
closed = 1;
nodes = (
"391 -13 OFFCURVE",
"462 105 OFFCURVE",
"462 281 CURVE SMOOTH",
"462 449 OFFCURVE",
"391 570 OFFCURVE",
"245 570 CURVE SMOOTH",
"97 570 OFFCURVE",
"30 447 OFFCURVE",
"30 281 CURVE SMOOTH",
"30 106 OFFCURVE",
"98 -13 OFFCURVE",
"245 -13 CURVE SMOOTH"
);
},
{
closed = 1;
nodes = (
"183 88 OFFCURVE",
"166 171 OFFCURVE",
"166 278 CURVE SMOOTH",
"166 376 OFFCURVE",
"182 463 OFFCURVE",
"245 463 CURVE SMOOTH",
"308 463 OFFCURVE",
"326 375 OFFCURVE",
"326 278 CURVE SMOOTH",
"326 171 OFFCURVE",
"308 88 OFFCURVE",
"245 88 CURVE SMOOTH"
);
}
);
width = 492;
}
);
leftKerningGroup = o;
leftMetricsKey = o;
rightKerningGroup = o;
rightMetricsKey = o;
},
{
glyphname = one.osf;
lastChange = "2023-02-14 11:50:06 +0000";
layers = (
{
background = {
paths = (
{
closed = 1;
nodes = (
"288 0 LINE",
"288 563 LINE",
"216 572 LINE",
"173 529 OFFCURVE",
"111 500 OFFCURVE",
"30 491 CURVE",
"53 381 LINE",
"91 382 OFFCURVE",
"123 388 OFFCURVE",
"154 399 CURVE",
"154 0 LINE"
);
}
);
};
layerId = "849A9C4C-BF7C-40C5-8614-1FD725A2A379";
paths = (
{
closed = 1;
nodes = (
"288 0 LINE",
"288 563 LINE",
"216 572 LINE",
"173 529 OFFCURVE",
"111 500 OFFCURVE",
"30 491 CURVE",
"53 381 LINE",
"91 382 OFFCURVE",
"123 388 OFFCURVE",
"154 399 CURVE",
"154 0 LINE"
);
}
);
width = 348;
}
);
rightKerningGroup = u;
},
{
glyphname = two.osf;
lastChange = "2023-02-14 11:50:08 +0000";
layers = (
{
background = {
paths = (
{
closed = 1;
nodes = (
"440 0 LINE",
"455 118 LINE",
"239 118 LINE",
"347 184 OFFCURVE",
"432 274 OFFCURVE",
"432 391 CURVE SMOOTH",
"432 506 OFFCURVE",
"363 572 OFFCURVE",
"247 572 CURVE SMOOTH",
"123 572 OFFCURVE",
"53 488 OFFCURVE",
"50 373 CURVE",
"166 349 LINE",
"168 400 OFFCURVE",
"182 462 OFFCURVE",
"234 462 CURVE SMOOTH",
"276 462 OFFCURVE",
"298 433 OFFCURVE",
"298 384 CURVE SMOOTH",
"298 284 OFFCURVE",
"174 165 OFFCURVE",
"59 86 CURVE",
"68 0 LINE"
);
}
);
};
layerId = "849A9C4C-BF7C-40C5-8614-1FD725A2A379";
paths = (
{
closed = 1;
nodes = (
"440 0 LINE",
"455 118 LINE",
"239 118 LINE",
"347 184 OFFCURVE",
"432 274 OFFCURVE",
"432 391 CURVE SMOOTH",
"432 506 OFFCURVE",
"363 572 OFFCURVE",
"247 572 CURVE SMOOTH",
"123 572 OFFCURVE",
"53 488 OFFCURVE",
"50 373 CURVE",
"166 349 LINE",
"168 400 OFFCURVE",
"182 462 OFFCURVE",
"234 462 CURVE SMOOTH",
"276 462 OFFCURVE",
"298 433 OFFCURVE",
"298 384 CURVE SMOOTH",
"298 284 OFFCURVE",
"174 165 OFFCURVE",
"59 86 CURVE",
"68 0 LINE"
);
}
);
width = 482;
}
);
},
{
color = 4;
glyphname = three.osf;
lastChange = "2023-02-14 11:50:11 +0000";
layers = (
{
background = {
paths = (
{
closed = 1;
nodes = (
"50 2 LINE",
"63 -111 OFFCURVE",
"138 -174 OFFCURVE",
"249 -174 CURVE SMOOTH",
"376 -174 OFFCURVE",
"466 -80 OFFCURVE",
"466 41 CURVE SMOOTH",
"466 147 OFFCURVE",
"409 218 OFFCURVE",
"293 227 CURVE",
"288 198 LINE",
"407 229 OFFCURVE",
"452 295 OFFCURVE",
"452 377 CURVE SMOOTH",
"452 494 OFFCURVE",
"387 572 OFFCURVE",
"253 572 CURVE SMOOTH",
"140 572 OFFCURVE",
"61 503 OFFCURVE",
"56 387 CURVE",
"174 363 LINE",
"177 424 OFFCURVE",
"200 463 OFFCURVE",
"245 463 CURVE SMOOTH",
"292 463 OFFCURVE",
"313 428 OFFCURVE",
"313 377 CURVE SMOOTH",
"313 313 OFFCURVE",
"266 248 OFFCURVE",
"190 248 CURVE",
"190 166 LINE",
"280 165 OFFCURVE",
"327 121 OFFCURVE",
"327 38 CURVE SMOOTH",
"327 -16 OFFCURVE",
"301 -64 OFFCURVE",
"253 -64 CURVE SMOOTH",
"198 -64 OFFCURVE",
"173 -28 OFFCURVE",
"168 28 CURVE"
);
}
);
};
layerId = "849A9C4C-BF7C-40C5-8614-1FD725A2A379";
paths = (
{
closed = 1;
nodes = (
"50 2 LINE",
"63 -111 OFFCURVE",
"138 -174 OFFCURVE",
"249 -174 CURVE SMOOTH",
"376 -174 OFFCURVE",
"466 -80 OFFCURVE",
"466 41 CURVE SMOOTH",
"466 147 OFFCURVE",
"409 218 OFFCURVE",
"293 227 CURVE",
"288 198 LINE",
"407 229 OFFCURVE",
"452 295 OFFCURVE",
"452 377 CURVE SMOOTH",
"452 494 OFFCURVE",
"387 572 OFFCURVE",
"253 572 CURVE SMOOTH",
"140 572 OFFCURVE",
"61 503 OFFCURVE",
"56 387 CURVE",
"174 363 LINE",
"177 424 OFFCURVE",
"200 463 OFFCURVE",
"245 463 CURVE SMOOTH",
"292 463 OFFCURVE",
"313 428 OFFCURVE",
"313 377 CURVE SMOOTH",
"313 313 OFFCURVE",
"266 248 OFFCURVE",
"190 248 CURVE",
"190 166 LINE",
"280 165 OFFCURVE",
"327 121 OFFCURVE",
"327 38 CURVE SMOOTH",
"327 -16 OFFCURVE",
"301 -64 OFFCURVE",
"253 -64 CURVE SMOOTH",
"198 -64 OFFCURVE",
"173 -28 OFFCURVE",
"168 28 CURVE"
);
}
);
width = 506;
}
);
},
{
glyphname = four.osf;
lastChange = "2023-02-14 11:50:19 +0000";
layers = (
{
background = {
paths = (
{
closed = 1;
nodes = (
"310 243 LINE",
"310 106 LINE",
"183 106 LINE",
"265 234 OFFCURVE",
"339 395 OFFCURVE",
"346 564 CURVE",
"214 564 LINE",
"201 383 OFFCURVE",
"133 238 OFFCURVE",
"40 84 CURVE",
"50 0 LINE",
"310 0 LINE",
"310 -173 LINE",
"445 -157 LINE",
"445 0 LINE",
"517 0 LINE",
"527 106 LINE",
"444 106 LINE",
"444 260 LINE"
);
}
);
};
layerId = "849A9C4C-BF7C-40C5-8614-1FD725A2A379";
paths = (
{
closed = 1;
nodes = (
"310 243 LINE",
"310 106 LINE",
"183 106 LINE",
"265 234 OFFCURVE",
"339 395 OFFCURVE",
"346 560 CURVE",
"214 560 LINE",
"201 383 OFFCURVE",
"133 238 OFFCURVE",
"40 84 CURVE",
"50 0 LINE",
"310 0 LINE",
"310 -173 LINE",
"445 -157 LINE",
"445 0 LINE",
"517 0 LINE",
"527 106 LINE",
"444 106 LINE",
"444 260 LINE"
);
}
);
width = 527;
}
);
},
{
glyphname = five.osf;
lastChange = "2023-02-14 11:39:59 +0000";
layers = (
{
background = {
paths = (
{
closed = 1;
nodes = (
"374 -175 OFFCURVE",
"475 -86 OFFCURVE",
"475 80 CURVE SMOOTH",
"475 219 OFFCURVE",
"406 307 OFFCURVE",
"293 307 CURVE SMOOTH",
"243 307 OFFCURVE",
"209 290 OFFCURVE",
"181 260 CURVE",
"195 441 LINE",
"425 441 LINE",
"440 563 LINE",
"91 563 LINE",
"61 177 LINE",
"175 144 LINE",
"188 179 OFFCURVE",
"217 205 OFFCURVE",
"255 205 CURVE SMOOTH",
"322 205 OFFCURVE",
"344 137 OFFCURVE",
"344 68 CURVE SMOOTH",
"344 -14 OFFCURVE",
"310 -66 OFFCURVE",
"256 -66 CURVE SMOOTH",
"202 -66 OFFCURVE",
"175 -34 OFFCURVE",
"167 26 CURVE",
"50 1 LINE",
"61 -117 OFFCURVE",
"145 -175 OFFCURVE",
"251 -175 CURVE SMOOTH"
);
}
);
};
layerId = "849A9C4C-BF7C-40C5-8614-1FD725A2A379";
paths = (
{
closed = 1;
nodes = (
"374 -175 OFFCURVE",
"475 -86 OFFCURVE",
"475 80 CURVE SMOOTH",
"475 219 OFFCURVE",
"406 307 OFFCURVE",
"293 307 CURVE SMOOTH",
"243 307 OFFCURVE",
"209 290 OFFCURVE",
"181 260 CURVE",
"195 438 LINE",
"425 438 LINE",
"440 560 LINE",
"91 560 LINE",
"61 177 LINE",
"175 144 LINE",
"188 179 OFFCURVE",
"217 205 OFFCURVE",
"255 205 CURVE SMOOTH",
"322 205 OFFCURVE",
"344 137 OFFCURVE",
"344 68 CURVE SMOOTH",
"344 -14 OFFCURVE",
"310 -66 OFFCURVE",
"256 -66 CURVE SMOOTH",
"202 -66 OFFCURVE",
"175 -34 OFFCURVE",
"167 26 CURVE",
"50 1 LINE",
"61 -117 OFFCURVE",
"145 -175 OFFCURVE",
"251 -175 CURVE SMOOTH"
);
}
);
width = 505;
}
);
},
{
glyphname = six.osf;
lastChange = "2023-02-13 22:18:23 +0000";
layers = (
{
background = {
paths = (
{
closed = 1;
nodes = (
"415 -14 OFFCURVE",
"496 95 OFFCURVE",
"496 235 CURVE SMOOTH",
"496 381 OFFCURVE",
"416 455 OFFCURVE",
"305 455 CURVE SMOOTH",
"246 455 OFFCURVE",
"205 423 OFFCURVE",
"181 378 CURVE",
"187 511 OFFCURVE",
"206 624 OFFCURVE",
"285 624 CURVE SMOOTH",
"338 624 OFFCURVE",
"361 591 OFFCURVE",
"368 528 CURVE",
"484 557 LINE",
"461 681 OFFCURVE",
"399 734 OFFCURVE",
"298 734 CURVE SMOOTH",
"119 734 OFFCURVE",
"50 553 OFFCURVE",
"50 342 CURVE SMOOTH",
"50 106 OFFCURVE",
"125 -14 OFFCURVE",
"280 -14 CURVE SMOOTH"
);
},
{
closed = 1;
nodes = (
"226 96 OFFCURVE",
"192 153 OFFCURVE",
"192 241 CURVE SMOOTH",
"192 300 OFFCURVE",
"226 363 OFFCURVE",
"280 363 CURVE SMOOTH",
"338 363 OFFCURVE",
"361 301 OFFCURVE",
"361 230 CURVE SMOOTH",
"361 153 OFFCURVE",
"334 96 OFFCURVE",
"282 96 CURVE SMOOTH"
);
}
);
};
layerId = "849A9C4C-BF7C-40C5-8614-1FD725A2A379";
paths = (
{
closed = 1;
nodes = (
"415 -14 OFFCURVE",
"496 95 OFFCURVE",
"496 235 CURVE SMOOTH",
"496 381 OFFCURVE",
"416 455 OFFCURVE",
"305 455 CURVE SMOOTH",
"246 455 OFFCURVE",
"205 423 OFFCURVE",
"181 378 CURVE",
"187 511 OFFCURVE",
"206 624 OFFCURVE",
"285 624 CURVE SMOOTH",
"338 624 OFFCURVE",
"361 591 OFFCURVE",
"368 528 CURVE",
"484 557 LINE",
"461 681 OFFCURVE",
"399 734 OFFCURVE",
"298 734 CURVE SMOOTH",
"119 734 OFFCURVE",
"50 553 OFFCURVE",
"50 342 CURVE SMOOTH",
"50 106 OFFCURVE",
"125 -14 OFFCURVE",
"280 -14 CURVE SMOOTH"
);
},
{
closed = 1;
nodes = (
"226 96 OFFCURVE",
"192 153 OFFCURVE",
"192 241 CURVE SMOOTH",
"192 300 OFFCURVE",
"226 363 OFFCURVE",
"280 363 CURVE SMOOTH",
"338 363 OFFCURVE",
"361 301 OFFCURVE",
"361 230 CURVE SMOOTH",
"361 153 OFFCURVE",
"334 96 OFFCURVE",
"282 96 CURVE SMOOTH"
);
}
);
width = 526;
}
);
leftKerningGroup = zero;
rightKerningGroup = six;
},
{
glyphname = seven.osf;
lastChange = "2023-02-14 11:56:25 +0000";
layers = (
{
background = {
paths = (
{
closed = 1;
nodes = (
"90 -159 LINE",
"226 -188 LINE",
"436 492 LINE",
"421 563 LINE",
"30 563 LINE",
"30 441 LINE",
"302 441 LINE"
);
}
);
};
layerId = "849A9C4C-BF7C-40C5-8614-1FD725A2A379";
paths = (
{
closed = 1;
nodes = (
"90 -162 LINE",
"226 -191 LINE",
"436 489 LINE",
"421 560 LINE",
"30 560 LINE",
"30 438 LINE",
"302 438 LINE"
);
}
);
width = 456;
}
);
},
{
color = 4;
glyphname = eight.osf;
lastChange = "2023-02-13 22:17:26 +0000";
layers = (
{
background = {
paths = (
{
closed = 1;
nodes = (
"389 -13 OFFCURVE",
"478 72 OFFCURVE",
"478 192 CURVE SMOOTH",
"478 283 OFFCURVE",
"424 341 OFFCURVE",
"343 395 CURVE",
"333 366 LINE",
"405 411 OFFCURVE",
"462 465 OFFCURVE",
"462 545 CURVE SMOOTH",
"462 660 OFFCURVE",
"379 733 OFFCURVE",
"265 733 CURVE SMOOTH",
"154 733 OFFCURVE",
"57 654 OFFCURVE",
"57 541 CURVE SMOOTH",
"57 451 OFFCURVE",
"100 398 OFFCURVE",
"176 351 CURVE",
"186 382 LINE",
"103 340 OFFCURVE",
"39 276 OFFCURVE",
"39 186 CURVE SMOOTH",
"39 57 OFFCURVE",
"145 -13 OFFCURVE",
"251 -13 CURVE SMOOTH"
);
},
{
closed = 1;
nodes = (
"206 98 OFFCURVE",
"171 139 OFFCURVE",
"171 197 CURVE SMOOTH",
"171 242 OFFCURVE",
"199 284 OFFCURVE",
"247 327 CURVE",
"216 327 LINE",
"292 294 OFFCURVE",
"345 248 OFFCURVE",
"345 188 CURVE SMOOTH",
"345 138 OFFCURVE",
"314 98 OFFCURVE",
"264 98 CURVE SMOOTH"
);
},
{
closed = 1;
nodes = (
"300 418 LINE",
"231 451 OFFCURVE",
"189 482 OFFCURVE",
"189 541 CURVE SMOOTH",
"189 591 OFFCURVE",
"223 624 OFFCURVE",
"267 624 CURVE SMOOTH",
"315 624 OFFCURVE",
"344 591 OFFCURVE",
"344 540 CURVE SMOOTH",
"344 495 OFFCURVE",
"311 450 OFFCURVE",
"260 418 CURVE"
);
}
);
};
layerId = "849A9C4C-BF7C-40C5-8614-1FD725A2A379";
paths = (
{
closed = 1;
nodes = (
"389 -13 OFFCURVE",
"478 72 OFFCURVE",
"478 192 CURVE SMOOTH",
"478 283 OFFCURVE",
"424 341 OFFCURVE",
"343 395 CURVE",
"333 366 LINE",
"405 411 OFFCURVE",
"462 465 OFFCURVE",
"462 545 CURVE SMOOTH",
"462 660 OFFCURVE",
"379 733 OFFCURVE",
"265 733 CURVE SMOOTH",
"154 733 OFFCURVE",
"57 654 OFFCURVE",
"57 541 CURVE SMOOTH",
"57 451 OFFCURVE",
"100 398 OFFCURVE",
"176 351 CURVE",
"186 382 LINE",
"103 340 OFFCURVE",
"39 276 OFFCURVE",
"39 186 CURVE SMOOTH",
"39 57 OFFCURVE",
"145 -13 OFFCURVE",
"251 -13 CURVE SMOOTH"
);
},
{
closed = 1;
nodes = (
"206 98 OFFCURVE",
"171 139 OFFCURVE",
"171 197 CURVE SMOOTH",
"171 242 OFFCURVE",
"199 284 OFFCURVE",
"247 327 CURVE",
"216 327 LINE",
"292 294 OFFCURVE",
"345 248 OFFCURVE",
"345 188 CURVE SMOOTH",
"345 138 OFFCURVE",
"314 98 OFFCURVE",
"264 98 CURVE SMOOTH"
);
},
{
closed = 1;
nodes = (
"300 418 LINE",
"231 451 OFFCURVE",
"189 482 OFFCURVE",
"189 541 CURVE SMOOTH",
"189 591 OFFCURVE",
"223 624 OFFCURVE",
"267 624 CURVE SMOOTH",
"315 624 OFFCURVE",
"344 591 OFFCURVE",
"344 540 CURVE SMOOTH",
"344 495 OFFCURVE",
"311 450 OFFCURVE",
"260 418 CURVE"
);
}
);
width = 516;
}
);
leftKerningGroup = eight;
leftMetricsKey = eight;
rightKerningGroup = eight;
rightMetricsKey = eight;
},
{
glyphname = nine.osf;
lastChange = "2023-02-14 11:40:05 +0000";
layers = (
{
background = {
paths = (
{
closed = 1;
nodes = (
"40 2 LINE",
"60 -101 OFFCURVE",
"126 -175 OFFCURVE",
"238 -175 CURVE SMOOTH",
"421 -175 OFFCURVE",
"472 5 OFFCURVE",
"472 207 CURVE SMOOTH",
"472 418 OFFCURVE",
"431 573 OFFCURVE",
"249 573 CURVE SMOOTH",
"107 573 OFFCURVE",
"30 457 OFFCURVE",
"30 317 CURVE SMOOTH",
"30 182 OFFCURVE",
"98 85 OFFCURVE",
"211 85 CURVE SMOOTH",
"269 85 OFFCURVE",
"324 116 OFFCURVE",
"344 160 CURVE",
"344 65 OFFCURVE",
"333 -65 OFFCURVE",
"248 -65 CURVE SMOOTH",
"193 -65 OFFCURVE",
"170 -23 OFFCURVE",
"158 27 CURVE"
);
},
{
closed = 1;
nodes = (
"318 463 OFFCURVE",
"333 377 OFFCURVE",
"333 292 CURVE SMOOTH",
"333 229 OFFCURVE",
"296 188 OFFCURVE",
"248 188 CURVE SMOOTH",
"192 188 OFFCURVE",
"165 246 OFFCURVE",
"165 317 CURVE SMOOTH",
"165 389 OFFCURVE",
"188 463 OFFCURVE",
"250 463 CURVE SMOOTH"
);
}
);
};
layerId = "849A9C4C-BF7C-40C5-8614-1FD725A2A379";
paths = (
{
closed = 1;
nodes = (
"40 2 LINE",
"60 -101 OFFCURVE",
"126 -175 OFFCURVE",
"238 -175 CURVE SMOOTH",
"421 -175 OFFCURVE",
"472 5 OFFCURVE",
"472 207 CURVE SMOOTH",
"472 418 OFFCURVE",
"431 573 OFFCURVE",
"249 573 CURVE SMOOTH",
"107 573 OFFCURVE",
"30 457 OFFCURVE",
"30 317 CURVE SMOOTH",
"30 182 OFFCURVE",
"98 85 OFFCURVE",
"211 85 CURVE SMOOTH",
"269 85 OFFCURVE",
"324 116 OFFCURVE",
"344 160 CURVE",
"344 65 OFFCURVE",
"333 -65 OFFCURVE",
"248 -65 CURVE SMOOTH",
"193 -65 OFFCURVE",
"170 -23 OFFCURVE",
"158 27 CURVE"
);
},
{
closed = 1;
nodes = (
"318 463 OFFCURVE",
"333 377 OFFCURVE",
"333 292 CURVE SMOOTH",
"333 229 OFFCURVE",
"296 188 OFFCURVE",
"248 188 CURVE SMOOTH",
"192 188 OFFCURVE",
"165 246 OFFCURVE",
"165 317 CURVE SMOOTH",
"165 389 OFFCURVE",
"188 463 OFFCURVE",
"250 463 CURVE SMOOTH"
);
}
);
width = 522;
}
);
leftMetricsKey = "=|six.osf";
rightMetricsKey = "=|six.osf";
},
{
glyphname = zero.tf;
lastChange = "2023-02-08 14:33:46 +0000";
layers = (
{
anchors = (
{
name = center;
position = "{272, 383}";
}
);
background = {
components = (
{
name = zero;
}
);
};
layerId = "849A9C4C-BF7C-40C5-8614-1FD725A2A379";
paths = (
{
closed = 1;
nodes = (
"461 -14 OFFCURVE",
"500 193 OFFCURVE",
"500 375 CURVE SMOOTH",
"500 562 OFFCURVE",
"461 764 OFFCURVE",
"270 764 CURVE SMOOTH",
"79 764 OFFCURVE",
"40 561 OFFCURVE",
"40 375 CURVE SMOOTH",
"40 192 OFFCURVE",
"79 -14 OFFCURVE",
"270 -14 CURVE SMOOTH"
);
},
{
closed = 1;
nodes = (
"202 102 OFFCURVE",
"188 216 OFFCURVE",
"188 375 CURVE SMOOTH",
"188 530 OFFCURVE",
"202 648 OFFCURVE",
"270 648 CURVE SMOOTH",
"338 648 OFFCURVE",
"352 531 OFFCURVE",
"352 375 CURVE SMOOTH",
"352 217 OFFCURVE",
"338 102 OFFCURVE",
"270 102 CURVE SMOOTH"
);
}
);
width = 540;
}
);
},
{
glyphname = one.tf;
lastChange = "2023-02-08 14:33:44 +0000";
layers = (
{
background = {
paths = (
{
closed = 1;
nodes = (
"366 0 LINE",
"366 749 LINE",
"295 758 LINE",
"241 700 OFFCURVE",
"171 674 OFFCURVE",
"74 660 CURVE",
"96 552 LINE",
"149 553 OFFCURVE",
"189 561 OFFCURVE",
"229 574 CURVE",
"229 0 LINE"
);
},
{
closed = 1;
nodes = (
"94 0 LINE",
"485 0 LINE",
"500 118 LINE",
"96 118 LINE"
);
}
);
};
layerId = "849A9C4C-BF7C-40C5-8614-1FD725A2A379";
paths = (
{
closed = 1;
nodes = (
"485 0 LINE",
"500 118 LINE",
"366 118 LINE",
"366 749 LINE",
"295 758 LINE",
"241 700 OFFCURVE",
"171 674 OFFCURVE",
"74 660 CURVE",
"96 552 LINE",
"149 553 OFFCURVE",
"189 561 OFFCURVE",
"229 574 CURVE",
"229 118 LINE",
"96 118 LINE",
"94 0 LINE"
);
}
);
width = 540;
}
);
},
{
glyphname = two.tf;
lastChange = "2023-02-08 14:33:42 +0000";
layers = (
{
background = {
components = (
{
name = two;
transform = "{1, 0, 0, 1, 28, 0}";
}
);
};
layerId = "849A9C4C-BF7C-40C5-8614-1FD725A2A379";
paths = (
{
closed = 1;
nodes = (
"475 0 LINE",
"490 118 LINE",
"225 118 LINE",
"371 238 OFFCURVE",
"471 373 OFFCURVE",
"471 531 CURVE SMOOTH",
"471 666 OFFCURVE",
"404 764 OFFCURVE",
"268 764 CURVE SMOOTH",
"121 764 OFFCURVE",
"58 666 OFFCURVE",
"58 512 CURVE",
"180 486 LINE",
"180 580 OFFCURVE",
"199 644 OFFCURVE",
"254 644 CURVE SMOOTH",
"309 644 OFFCURVE",
"324 581 OFFCURVE",
"324 515 CURVE SMOOTH",
"324 373 OFFCURVE",
"206 225 OFFCURVE",
"68 108 CURVE",
"82 0 LINE"
);
}
);
width = 540;
}
);
},
{
color = 4;
glyphname = three.tf;
lastChange = "2023-02-08 14:33:40 +0000";
layers = (
{
background = {
components = (
{
name = three;
transform = "{1, 0, 0, 1, 46, 0}";
}
);
};
layerId = "849A9C4C-BF7C-40C5-8614-1FD725A2A379";
paths = (
{
closed = 1;
nodes = (
"405 -14 OFFCURVE",
"487 86 OFFCURVE",
"487 207 CURVE SMOOTH",
"487 304 OFFCURVE",
"429 376 OFFCURVE",
"309 395 CURVE",
"307 368 LINE",
"431 387 OFFCURVE",
"477 463 OFFCURVE",
"477 555 CURVE SMOOTH",
"477 696 OFFCURVE",
"386 764 OFFCURVE",
"268 764 CURVE SMOOTH",
"147 764 OFFCURVE",
"73 692 OFFCURVE",
"63 558 CURVE",
"181 531 LINE",
"185 598 OFFCURVE",
"211 647 OFFCURVE",
"262 647 CURVE SMOOTH",
"307 647 OFFCURVE",
"337 611 OFFCURVE",
"337 551 CURVE SMOOTH",
"337 467 OFFCURVE",
"289 419 OFFCURVE",
"203 419 CURVE",
"203 331 LINE",
"285 330 OFFCURVE",
"350 292 OFFCURVE",
"350 210 CURVE SMOOTH",
"350 155 OFFCURVE",
"329 104 OFFCURVE",
"262 104 CURVE SMOOTH",
"207 104 OFFCURVE",
"177 152 OFFCURVE",
"175 217 CURVE",
"56 192 LINE",
"59 63 OFFCURVE",
"146 -14 OFFCURVE",
"264 -14 CURVE SMOOTH"
);
}
);
width = 540;
}
);
},
{
glyphname = four.tf;
lastChange = "2023-02-08 14:33:38 +0000";
layers = (
{
background = {
components = (
{
name = four;
transform = "{1, 0, 0, 1, 14, 0}";
}
);
};
layerId = "849A9C4C-BF7C-40C5-8614-1FD725A2A379";
paths = (
{
closed = 1;
nodes = (
"423 0 LINE",
"423 163 LINE",
"505 163 LINE",
"517 275 LINE",
"422 275 LINE",
"422 750 LINE",
"283 750 LINE",
"217 599 OFFCURVE",
"128 424 OFFCURVE",
"24 252 CURVE",
"38 163 LINE",
"286 163 LINE",
"286 0 LINE"
);
},
{
closed = 1;
nodes = (
"197 375 OFFCURVE",
"250 481 OFFCURVE",
"288 574 CURVE",
"288 275 LINE",
"137 275 LINE"
);
}
);
width = 540;
}
);
},
{
glyphname = five.tf;
lastChange = "2023-02-08 14:33:36 +0000";
layers = (
{
background = {
components = (
{
name = five;
transform = "{1, 0, 0, 1, 31, 0}";
}
);
};
layerId = "849A9C4C-BF7C-40C5-8614-1FD725A2A379";
paths = (
{
closed = 1;
nodes = (
"416 -14 OFFCURVE",
"498 99 OFFCURVE",
"498 257 CURVE SMOOTH",
"498 393 OFFCURVE",
"422 489 OFFCURVE",
"313 489 CURVE SMOOTH",
"257 489 OFFCURVE",
"218 466 OFFCURVE",
"197 439 CURVE",
"212 623 LINE",
"454 623 LINE",
"469 750 LINE",
"109 750 LINE",
"76 350 LINE",
"188 326 LINE",
"206 354 OFFCURVE",
"233 378 OFFCURVE",
"270 378 CURVE SMOOTH",
"333 378 OFFCURVE",
"356 316 OFFCURVE",
"356 246 CURVE SMOOTH",
"356 175 OFFCURVE",
"334 103 OFFCURVE",
"267 103 CURVE SMOOTH",
"215 103 OFFCURVE",
"183 154 OFFCURVE",
"182 216 CURVE",
"61 190 LINE",
"67 52 OFFCURVE",
"160 -14 OFFCURVE",
"275 -14 CURVE SMOOTH"
);
}
);
width = 540;
}
);
},
{
glyphname = six.tf;
lastChange = "2023-02-08 14:33:28 +0000";
layers = (
{
background = {
components = (
{
name = six;
transform = "{1, 0, 0, 1, 19, 0}";
}
);
};
layerId = "849A9C4C-BF7C-40C5-8614-1FD725A2A379";
paths = (
{
closed = 1;
nodes = (
"426 -14 OFFCURVE",
"507 101 OFFCURVE",
"507 245 CURVE SMOOTH",
"507 387 OFFCURVE",
"438 474 OFFCURVE",
"314 474 CURVE SMOOTH",
"264 474 OFFCURVE",
"220 446 OFFCURVE",
"193 401 CURVE",
"193 534 OFFCURVE",
"215 649 OFFCURVE",
"289 649 CURVE SMOOTH",
"342 649 OFFCURVE",
"362 595 OFFCURVE",
"372 533 CURVE",
"494 560 LINE",
"477 689 OFFCURVE",
"415 764 OFFCURVE",
"289 764 CURVE SMOOTH",
"113 764 OFFCURVE",
"54 602 OFFCURVE",
"54 369 CURVE SMOOTH",
"54 135 OFFCURVE",
"113 -14 OFFCURVE",
"292 -14 CURVE SMOOTH"
);
},
{
closed = 1;
nodes = (
"220 101 OFFCURVE",
"199 159 OFFCURVE",
"199 245 CURVE SMOOTH",
"199 313 OFFCURVE",
"226 366 OFFCURVE",
"284 366 CURVE SMOOTH",
"342 366 OFFCURVE",
"365 313 OFFCURVE",
"365 245 CURVE SMOOTH",
"365 159 OFFCURVE",
"341 101 OFFCURVE",
"291 101 CURVE SMOOTH"
);
}
);
width = 540;
}
);
},
